<svg width="16" height="20" viewBox="0 0 16 20" fill="none" xmlns="http://www.w3.org/2000/svg">
<path fill-rule="evenodd" clip-rule="evenodd" d="M6.66064 6.90104C7.6601 8.43386 8.59294 10.1666 9.72567 11.6994C9.92556 11.966 10.2587 12.4991 10.4586 12.4991C10.8584 12.5658 11.5247 12.1659 11.9245 11.966C12.5908 11.6994 13.1905 11.3662 13.7235 11.5661C14.5897 12.9657 15.989 13.9653 15.8557 16.0979C15.2561 16.9643 14.5231 17.4308 13.5903 18.1639C12.924 18.697 12.3909 19.1636 11.658 19.5634C11.1916 19.83 10.2587 19.9633 9.59241 19.6301C8.59294 19.2302 7.59347 17.964 6.86053 17.0309C5.99432 16.0313 5.19475 15.1649 4.52844 14.0986C3.19581 12.1659 2.12971 10.4332 1.19688 8.16728C0.863722 7.4342 0.330673 6.2346 0.530567 5.03501C0.530567 4.70179 0.996985 3.90206 1.19688 3.56884C1.79656 2.70247 2.86266 1.76945 3.66223 1.16965C3.72886 0.969723 3.79549 0.76979 3.86213 0.569858C5.32801 -0.163226 6.19422 1.10301 7.06042 2.10267C7.6601 2.76911 8.12652 3.43555 8.25978 4.03535C8.7262 5.43488 7.32695 6.03467 6.66064 6.90104ZM4.72833 1.16965C4.86159 1.16965 4.86159 1.10301 4.92822 1.03637C4.86159 1.03637 4.79496 0.969723 4.72833 0.969723C4.6617 1.10301 4.72833 1.03637 4.72833 1.16965ZM5.39464 1.70281C5.46127 1.63616 5.66117 1.43623 5.46127 1.36959C5.46127 1.43623 5.26138 1.56952 5.39464 1.70281ZM3.79549 1.8361C3.79549 1.96938 3.86213 2.03603 3.99539 2.03603C3.99539 1.90274 4.06202 1.8361 4.06202 1.70281C3.86213 1.70281 3.86213 1.76945 3.79549 1.8361ZM4.46181 4.76843C4.6617 4.70179 4.72833 4.43521 4.72833 4.16864C4.99486 3.5022 5.39464 2.63582 5.32801 1.70281C5.06149 2.76911 4.46181 3.70213 4.46181 4.76843ZM5.92769 2.23596C6.06096 2.3026 6.12759 2.16932 6.26085 2.16932C6.26085 1.96938 6.19422 1.8361 6.06096 1.8361C5.92769 1.90274 5.99432 2.10267 5.92769 2.23596ZM2.32961 4.70179C2.7294 4.36857 2.79603 3.70213 2.99592 3.16898C3.12918 2.96904 3.26245 2.56918 3.19581 2.36925C2.5295 2.76911 2.59613 3.83542 2.32961 4.70179ZM5.59454 5.43488C5.99432 5.43488 6.06096 4.90172 6.12759 4.5685C6.32748 3.96871 6.32748 3.30226 6.66064 2.83576C6.7939 2.76911 6.7939 2.9024 6.86053 2.9024C6.86053 2.63582 6.66064 2.63582 6.52737 2.50254C6.26085 3.5022 5.86106 4.43521 5.59454 5.43488ZM7.06042 3.56884C7.06042 3.43555 7.26032 3.43555 7.26032 3.30226C7.26032 3.23562 7.19369 3.16898 7.12705 3.16898C7.06042 3.30226 6.92716 3.5022 7.06042 3.56884ZM6.26085 6.16796C5.86106 6.2346 5.7278 6.56782 5.66117 6.96769C5.92769 6.96769 5.92769 6.76776 5.92769 6.63447C6.19422 6.43454 6.52737 6.2346 6.66064 5.90138C6.594 5.83474 6.52737 5.83474 6.52737 5.70145C6.66064 5.03501 6.99379 4.36857 6.92716 3.70213C6.72727 4.50186 6.39411 5.23494 6.26085 6.16796ZM6.99379 5.56816C7.46021 5.36823 7.99326 4.63515 7.52684 4.10199C7.39358 4.5685 7.19369 5.10165 6.99379 5.56816ZM3.92876 4.70179C3.92876 4.50186 3.92876 4.30193 3.86213 4.16864C3.86213 4.36857 3.5956 4.76843 3.92876 4.70179ZM5.12812 5.1683C5.19475 4.90172 5.32801 4.50186 5.26138 4.30193C5.19475 4.50186 4.79496 4.96837 5.12812 5.1683ZM1.26351 5.03501C1.26351 4.96837 1.39677 4.76843 1.33014 4.70179C1.26351 4.76843 1.13025 4.96837 1.26351 5.03501ZM3.66223 7.56748C3.79549 6.63447 4.32854 5.50152 4.19528 4.76843H4.12865C4.19528 5.7681 3.52897 6.63447 3.66223 7.56748ZM1.06362 5.83474C1.19688 5.76809 1.33014 5.1683 1.19688 5.1683C1.13025 5.36823 1.06362 5.56816 1.06362 5.83474ZM2.26298 7.70077C2.5295 7.10098 2.7294 5.96803 2.66276 5.30159C2.46287 6.03467 2.12971 6.90104 2.26298 7.70077ZM2.92929 6.96769C2.86266 7.16762 2.7294 7.56748 2.99592 7.63413C3.12918 7.03433 3.32908 6.10132 3.32908 5.36823C3.26244 5.90138 3.06255 6.50118 2.92929 6.96769ZM5.19475 6.56782C5.26138 6.36789 5.52791 5.96803 5.32801 5.76809C5.26138 5.96803 5.06149 6.30125 5.19475 6.56782ZM1.53003 6.43454C1.59667 6.90104 1.26351 7.36755 1.6633 7.50084C1.79656 7.16762 1.72993 6.70111 1.79656 6.36789C1.79656 6.2346 1.59667 6.43454 1.53003 6.43454ZM6.06096 7.30091C6.06096 7.4342 6.12759 7.4342 6.26085 7.4342C6.26085 7.36755 6.19422 7.30091 6.06096 7.30091ZM6.26085 8.30057C6.46074 8.30057 6.66064 8.23392 6.72727 8.36721C6.7939 8.43386 6.72727 8.70043 6.7939 8.76708C6.86053 8.76708 6.99379 8.76708 7.06042 8.76708C6.92716 8.36721 6.66064 7.96735 6.39411 7.70077C6.32748 7.9007 6.32748 8.10064 6.26085 8.30057ZM3.66223 8.16728C3.66223 8.03399 3.5956 7.96735 3.66223 7.83406C3.46234 7.76742 3.32908 8.23392 3.66223 8.16728ZM2.39624 8.5005C2.46287 8.36721 2.5295 8.23392 2.46287 8.03399C2.39624 8.03399 2.32961 8.03399 2.32961 7.96735C2.32961 8.16728 2.26298 8.36721 2.39624 8.5005ZM4.46181 10.3665C4.6617 9.83338 4.92822 9.1003 4.99486 8.56715C4.79496 9.1003 4.39518 9.70009 4.46181 10.3665ZM3.66223 10.6998C3.52897 10.6998 3.5956 10.8997 3.46234 10.8997C3.12918 10.833 3.26245 10.3665 3.19581 10.1C3.12918 9.96667 2.92929 9.96667 2.99592 9.83338C2.99592 9.50016 3.06255 9.30023 2.99592 9.1003C2.39624 10.0333 3.26245 10.9663 3.72886 11.5661C3.72886 10.6331 4.19528 9.70009 4.12865 9.03365C3.92876 9.56681 3.5956 10.1 3.66223 10.6998ZM7.46021 10.0333C7.59347 10.0333 7.6601 9.96667 7.79337 9.96667C7.79337 9.83338 7.6601 9.70009 7.59347 9.63345C7.59347 9.83338 7.46021 9.83338 7.46021 10.0333ZM4.6617 11.6328C4.59507 11.8993 4.6617 12.2992 4.39518 12.4325C4.06202 12.2992 4.19528 12.0326 4.19528 11.6994C3.99539 11.5661 4.06202 11.8993 3.86213 11.8993C4.19528 12.3659 4.39518 12.9657 4.86159 13.2989C4.52844 12.2992 5.12812 11.0996 5.06149 10.1666C4.92823 10.6331 4.79496 11.1663 4.6617 11.6328ZM7.92663 10.8997C8.12652 10.9663 8.39305 10.8997 8.45968 11.0996C8.45968 11.2996 8.39305 11.4328 8.39305 11.6328C8.65957 11.5661 8.85946 11.5661 8.99273 11.6994C8.65957 13.2989 8.05989 15.0983 7.79337 16.5644C7.72673 16.831 7.6601 17.2309 7.99326 17.2975C8.19315 15.4315 8.65957 13.832 8.99273 12.1659C9.05936 12.0993 9.12599 12.0326 9.19262 11.966C8.79283 11.4328 8.45968 10.833 7.99326 10.2999C7.99326 10.4998 7.92663 10.6998 7.92663 10.8997ZM4.12865 11.4995C4.32854 11.2996 4.39518 10.6998 4.32854 10.4332C4.26191 10.7664 4.19528 11.1663 4.12865 11.4995ZM6.12759 14.4318C6.06096 14.6984 5.92769 15.0983 6.19422 15.2316C6.46074 13.6321 7.12705 12.0993 7.26032 10.4998C6.86053 11.6994 6.39411 13.0323 6.12759 14.4318ZM12.9906 12.1659C12.6574 14.032 12.4576 16.3645 12.3243 18.1639C12.191 18.1639 12.1244 18.2972 11.9911 18.2972C11.8579 17.8307 11.8579 17.0976 11.9245 16.4978C11.9911 15.4315 12.191 14.0986 12.2577 13.0323C12.2577 12.899 12.3909 12.5658 12.191 12.4325C11.8579 12.5658 12.191 12.6991 12.191 12.9657C11.7246 14.8317 11.5247 17.0976 11.2582 19.0303C11.658 19.0303 11.658 18.697 11.9245 18.5638C12.3243 18.4971 12.4575 18.2972 12.7241 18.0972C12.7241 16.2979 13.1239 14.2319 13.0572 12.4325C13.1239 12.2992 13.2571 12.2992 13.2571 12.0993C13.1239 12.0993 13.1905 12.1659 12.9906 12.1659ZM13.5903 15.0316C13.7235 14.3652 13.8568 13.2322 13.7235 12.6324C13.6569 13.2989 13.457 14.2319 13.5903 15.0316ZM11.3914 12.9657C11.2582 14.032 11.1249 15.0983 10.925 16.0979C10.7918 17.1642 10.4586 18.1639 10.5919 19.1636C10.9917 19.1636 10.8584 18.697 10.8584 18.4971C10.9917 16.5644 11.2582 14.6318 11.5913 12.8324C11.5913 12.7657 11.5247 12.7657 11.5247 12.7657C11.4581 12.899 11.4581 12.9657 11.3914 12.9657ZM10.5919 13.832C10.1921 15.0316 10.0588 16.6977 9.85893 18.0306C9.7923 18.3638 9.52578 18.897 9.92556 19.0969C10.1921 18.2972 10.1921 17.3642 10.2587 16.4311C10.392 15.5648 10.5919 14.6318 10.6585 13.7654C10.6585 13.6987 10.5919 13.6987 10.5919 13.6987C10.5919 13.6987 10.5919 13.7654 10.5919 13.832ZM8.79283 18.2972C8.9261 18.4971 9.12599 18.7637 9.39251 18.697C9.32588 17.2975 9.65904 15.3648 9.9922 13.8987C9.9922 13.832 9.92556 13.832 9.92556 13.832C9.45915 15.2982 9.19262 16.8977 8.79283 18.2972ZM7.06042 14.3652C7.06042 14.2985 7.19369 14.032 7.12705 14.032C7.06042 14.0986 6.92716 14.2985 7.06042 14.3652ZM6.72727 15.898C6.72727 15.3648 7.12705 14.765 6.92716 14.4985C6.92716 14.8983 6.52737 15.4315 6.72727 15.898ZM7.26032 15.5648C7.19369 15.898 7.06042 16.4311 7.32695 16.4978C7.46021 15.898 7.6601 15.0316 7.59347 14.5651C7.52684 14.8983 7.32695 15.2316 7.26032 15.5648ZM13.1239 17.6974C13.457 17.4974 14.3232 17.1642 13.9234 16.7644C13.8568 16.831 13.8568 17.0309 13.7235 17.0976C13.1239 16.7644 13.7902 15.5648 13.5236 15.0983C13.3904 16.0313 13.3238 16.6977 13.1239 17.6974ZM8.39305 17.8307C8.52631 17.6307 8.65957 17.0976 8.52631 16.831C8.59294 17.2309 8.19315 17.6974 8.39305 17.8307Z" fill="#F5F1E5"/>
</svg>
