<svg width="16" height="20" viewBox="0 0 16 20" fill="none" xmlns="http://www.w3.org/2000/svg">
<path fill-rule="evenodd" clip-rule="evenodd" d="M14.326 8.0992C15.0531 8.0992 15.2713 9.40802 15.4894 9.98972C15.7802 10.935 15.9984 11.8075 15.9984 12.6801C15.9984 13.6253 15.7075 14.4979 15.344 15.2977C15.1258 15.9521 14.7623 16.3884 14.3987 16.8974C14.0352 17.3336 13.7443 17.6245 13.2353 17.9881C12.9445 18.1335 12.799 18.4243 12.5809 18.5698C12.2901 18.7879 11.8538 18.9333 11.4902 19.0787C11.1267 19.2969 10.6904 19.3696 10.2541 19.4423C10.1087 19.515 9.89056 19.6604 9.74514 19.6604C9.09073 19.8059 8.36361 19.7331 7.7092 19.7331C6.61851 19.7331 5.60054 19.8059 4.65529 19.4423C4.43715 19.3696 4.1463 19.2242 3.92816 19.0787C2.47392 18.3516 1.31053 17.0428 0.583406 15.4431C0.510694 15.225 0.36527 15.0796 0.292558 14.9341C0.00170898 14.1343 -0.0710032 12.6801 0.0744211 11.444C0.147133 10.5714 0.36527 9.55345 0.656118 8.82632C0.946967 8.0992 1.1651 7.66293 1.67409 7.00852C2.03765 6.49954 2.40121 6.20869 2.83748 5.77242C3.20104 5.40885 3.5646 5.19072 4.1463 4.82716C4.36444 4.60902 4.80071 4.31817 5.09156 4.24546C5.67326 4.10004 6.10953 4.17275 6.76394 4.02732C6.98207 3.15478 7.20021 2.35494 7.7092 1.77325C8.07276 1.33697 8.9453 0.609853 9.59971 0.391717C10.036 0.246293 10.6177 0.17358 11.1267 0.100868C13.308 -0.18998 14.9804 1.55511 15.1258 3.44563C15.1258 4.02732 15.1985 4.75445 15.1258 5.33614C15.0531 6.42682 14.6896 7.29937 14.326 8.0992ZM12.2173 0.82799C11.4175 1.19155 10.6177 1.84596 9.74514 2.13681C9.67242 2.20952 9.74514 2.35494 9.67242 2.42766C8.87259 3.00935 8.00004 3.51834 7.27292 4.17275C7.27292 4.24546 7.27292 4.31817 7.27292 4.39088C8.07276 3.80919 8.79988 3.15478 9.59971 2.64579C10.545 2.0641 11.6357 1.62782 12.4355 0.900702C12.3628 0.82799 12.2173 0.82799 12.2173 0.82799ZM10.7631 0.900702C10.6904 0.973414 10.6177 1.04613 10.545 1.04613C10.3268 1.19155 9.96327 1.33697 9.67242 1.4824C9.45429 1.62782 9.01801 1.77325 9.09073 2.0641C9.59971 1.91867 10.1087 1.40969 10.545 1.11884C10.6177 1.11884 10.9812 0.973414 10.7631 0.900702C10.8358 0.900702 10.8358 0.900702 10.7631 0.900702ZM8.50903 2.0641C9.01801 1.77325 9.59971 1.4824 10.036 1.04613C9.45429 1.19155 8.9453 1.62782 8.50903 2.0641ZM13.1626 1.19155C12.799 1.62782 12.1446 1.77325 11.7811 2.28223C11.8538 2.28223 11.9992 2.28223 12.0719 2.28223C12.5082 1.99138 13.0172 1.77325 13.3807 1.33697C13.308 1.26426 13.2353 1.19155 13.1626 1.19155ZM10.9812 2.13681C11.054 2.20952 11.1994 2.13681 11.3448 2.13681C11.5629 1.91867 12.0719 1.77325 12.2901 1.55511C12.2901 1.55511 12.4355 1.33697 12.3628 1.33697C11.8538 1.62782 11.4175 1.84596 10.9812 2.13681ZM13.5989 1.55511C13.2353 1.84596 12.7263 2.0641 12.3628 2.28223C12.5082 2.93664 13.5989 1.84596 13.7443 1.62782C13.7443 1.62782 13.7443 1.55511 13.5989 1.55511ZM13.9624 1.99138C13.6716 2.28223 13.0899 2.35494 12.799 2.71851C12.8718 2.86393 12.9445 2.93664 13.0899 2.93664C13.4535 2.64579 13.8897 2.50037 14.1806 2.13681C14.1806 2.0641 14.1079 1.99138 13.9624 1.99138ZM8.29089 3.15478C8.58174 2.93664 9.30886 2.50037 8.87259 2.28223C8.36361 2.71851 7.49106 2.93664 7.49106 3.73648C7.63648 3.59105 7.92733 3.37291 8.29089 3.15478ZM8.00004 2.50037C8.07276 2.50037 8.14547 2.42766 8.14547 2.35494C8.07276 2.28223 8.07276 2.42766 8.00004 2.50037ZM13.1626 3.15478C13.1626 3.3002 13.1626 3.3002 13.1626 3.37291C13.6716 3.22749 14.1079 2.93664 14.326 2.57308C13.9624 2.57308 13.5989 3.00935 13.1626 3.15478ZM12.9445 4.10004C12.6536 2.79122 10.7631 2.28223 9.81785 3.37291C9.09073 4.39088 9.59971 6.20869 10.8358 6.42682C10.9085 6.42682 10.9085 6.57225 10.9812 6.64496C12.2173 6.49954 13.308 5.40885 12.9445 4.10004ZM13.5262 3.95461C13.9624 3.73648 14.6896 3.59105 14.5441 3.00935C14.1079 3.3002 13.1626 3.37291 13.5262 3.95461ZM9.09073 3.37291C8.65445 3.80919 7.78191 4.17275 7.34564 4.68173C7.27292 4.68173 7.27292 4.89987 7.27292 4.97258C7.78191 4.68173 8.36361 4.10004 8.79988 3.73648C8.9453 3.59105 9.16344 3.51834 9.16344 3.3002C9.16344 3.37291 9.09073 3.37291 9.09073 3.37291ZM13.5262 4.24546C13.4535 4.4636 13.4535 4.60902 13.5262 4.82716C13.7443 4.75445 13.9624 4.53631 14.1806 4.39088C14.326 4.24546 14.6896 4.10004 14.6168 3.80919C14.1806 3.8819 13.8897 4.02732 13.5262 4.24546ZM7.34564 5.33614C7.27292 5.40885 7.34564 5.62699 7.34564 5.6997C7.7092 5.40885 8.14547 5.04529 8.50903 4.75445C8.72717 4.60902 9.09073 4.53631 8.9453 4.17275C8.29089 4.4636 7.85462 4.89987 7.34564 5.33614ZM14.5441 4.68173C14.1079 5.19072 13.1626 5.33614 13.0899 6.06326C13.6716 5.6997 14.1806 5.26343 14.6168 4.75445C14.6896 4.68173 14.6168 4.60902 14.5441 4.68173ZM13.3807 5.11801C13.6716 5.11801 13.817 4.89987 13.9624 4.75445C13.7443 4.82716 13.4535 4.82716 13.3807 5.11801ZM4.94613 5.19072C4.728 5.40885 4.65529 5.99055 4.50986 6.2814C4.36444 6.8631 4.29173 7.51751 4.21901 8.02649C5.09156 7.88107 6.03682 7.88107 6.90936 7.73564C6.83665 6.71767 6.90936 5.84513 6.76394 4.82716C6.10953 4.75445 5.23698 4.75445 4.94613 5.19072ZM8.87259 4.89987C8.58174 4.97258 7.49106 5.6997 7.49106 5.91784C7.41835 6.20869 7.63648 6.49954 7.78191 6.71767C8.00004 6.49954 8.29089 6.2814 8.58174 6.06326C8.87259 5.84513 9.30886 5.6997 9.16344 5.33614C8.58174 5.55428 8.21818 5.99055 7.7092 6.2814C7.92733 5.62699 8.65445 5.48157 9.01801 4.89987C8.9453 4.89987 8.9453 4.89987 8.87259 4.89987ZM12.5082 6.8631C12.4355 6.8631 12.4355 6.79039 12.2901 6.79039C12.1446 6.93581 12.3628 6.93581 12.3628 7.08123C12.2173 7.22666 11.9265 7.37208 11.9265 7.66293C10.9812 8.31734 9.96327 8.82633 9.23615 9.62616C9.30886 9.77158 9.38158 9.91701 9.527 9.91701C10.3995 9.11717 11.2721 8.31734 12.2901 7.59022C12.2901 7.51751 12.2901 7.44479 12.2901 7.44479C12.8718 6.79039 13.6716 6.35411 14.326 5.77242C14.3987 5.6997 14.5441 5.55428 14.5441 5.33614C13.817 5.77242 13.1626 6.2814 12.5082 6.8631ZM4.00088 5.77242C2.98291 6.64496 2.03765 7.59022 1.52866 8.89904C2.25579 8.75361 2.83748 8.46276 3.5646 8.24463C3.63732 7.37208 3.92816 6.57225 4.00088 5.77242C4.07359 5.77242 4.07359 5.77242 4.00088 5.77242ZM9.23615 5.91784C9.16344 5.91784 9.09073 6.06326 9.01801 6.13598C8.58174 6.42682 7.63648 6.79039 7.85462 7.29937C8.00004 7.22666 8.07276 7.08123 8.21818 6.93581C8.58174 6.57225 9.09073 6.35411 9.38157 5.91784C9.30886 5.91784 9.30886 5.91784 9.23615 5.91784ZM12.8718 7.22666C12.9445 7.22666 12.9445 7.37208 13.0899 7.37208C13.5262 7.08123 13.817 6.71767 14.2533 6.42682C14.326 6.35411 14.5441 6.35411 14.4714 6.13598C14.4714 6.06326 14.3987 6.06326 14.3987 6.06326C13.9624 6.49954 13.2353 6.71767 12.8718 7.22666ZM9.527 6.2814C9.01801 6.71767 8.43632 7.00852 8.00004 7.51751C8.00004 7.66293 8.07276 7.66293 8.07276 7.73564C8.43632 7.59022 8.65445 7.29937 8.87259 7.08123C9.23615 6.93581 9.527 6.71767 9.74514 6.35411C9.67242 6.35411 9.67242 6.2814 9.527 6.2814ZM9.09073 7.29937C8.65445 7.59022 8.14547 7.73564 8.36361 8.31734C8.87259 7.80835 9.59971 7.37208 10.036 6.8631C9.67242 6.71767 9.45429 7.08123 9.09073 7.29937ZM12.9445 7.80836C13.0899 7.80836 13.0899 7.95378 13.2353 7.95378C13.4535 7.51751 14.326 7.37208 14.1806 6.79039C13.817 7.15395 13.308 7.37208 12.9445 7.80836ZM11.7811 7.00852C11.4902 7.00852 11.3448 7.22666 11.1267 7.37208C10.4723 7.80835 9.67242 8.24463 9.16344 8.6809C9.01801 8.6809 8.79988 8.75361 8.72717 8.82632C8.79988 9.04446 8.87259 9.18989 9.01801 9.2626C9.89056 8.46276 10.9085 7.80835 11.7811 7.00852ZM10.4723 7.08123C10.3268 7.29937 9.96327 7.37208 9.74514 7.59022C9.527 7.73564 9.30886 7.95378 9.16344 8.0992C8.9453 8.24463 8.58174 8.39005 8.65445 8.75361C9.09073 8.6809 9.38158 8.17192 9.81785 7.95378C10.3995 7.88107 10.6904 7.51751 11.054 7.22666C10.8358 7.08123 10.6177 7.08123 10.4723 7.08123ZM9.74514 10.1351C9.81785 10.2079 9.81785 10.3533 9.96327 10.3533C10.7631 9.48073 11.7084 8.82632 12.6536 8.0992C12.5082 7.95378 12.7263 7.80835 12.5809 7.73564C11.5629 8.39005 10.545 9.11717 9.74514 10.1351ZM10.1814 10.426C10.1814 10.4987 10.3268 10.5714 10.3268 10.5714C11.2721 9.91701 11.9265 8.97175 12.9445 8.39005C12.9445 8.46276 13.0172 8.46276 13.0172 8.53548C12.2901 9.2626 11.1267 9.8443 10.545 10.7168C10.6904 10.7896 10.7631 10.8623 10.9085 10.8623C11.3448 10.2079 11.9992 9.84429 12.5809 9.40802C12.6536 9.40802 12.7263 9.40802 12.799 9.40802C12.9445 9.18989 13.0899 8.89904 13.308 8.60819C13.4535 8.31734 13.7443 8.0992 13.6716 7.80836C12.3628 8.53548 11.1267 9.33531 10.1814 10.426ZM7.41835 8.39005C7.27292 9.40802 7.41835 10.7168 7.41835 11.9529C8.9453 12.0984 9.96327 12.0984 11.5629 12.0984C11.5629 11.9529 11.6357 11.9529 11.5629 11.8075C11.4175 11.7348 11.3448 11.9529 11.1267 11.8802C10.9085 11.7348 10.7631 11.5167 10.6177 11.2985C9.30886 10.7168 8.50903 9.55345 7.85462 8.39005C7.7092 8.39005 7.56377 8.39005 7.41835 8.39005ZM4.07359 8.82632C4.00088 9.84429 3.85545 11.0077 3.85545 11.8802C4.728 12.0984 5.74597 12.0257 6.76394 12.0257C6.83665 10.7896 6.83665 9.55345 6.76394 8.46276C5.9641 8.46276 4.87342 8.60819 4.07359 8.82632ZM13.817 8.97175C13.3807 9.77158 12.7263 10.426 12.1446 11.0804C12.2173 11.444 12.1446 11.7348 12.2173 12.0257C13.1626 12.0257 14.2533 12.2438 15.1258 12.0984C15.1985 10.935 14.4714 9.55345 13.817 8.97175ZM1.1651 9.77158C0.874255 10.426 0.801543 11.2258 0.656118 12.0257C1.52866 12.0984 2.40121 12.0984 3.27376 12.0257C3.27376 11.2258 3.5646 9.98972 3.41918 9.11717C2.61935 9.2626 1.89222 9.55345 1.1651 9.77158ZM11.1267 11.0804C11.6357 11.2258 11.8538 10.4987 12.2173 10.2079C11.7811 10.426 11.3448 10.6441 11.1267 11.0804ZM0.656118 12.6801C0.656118 13.3345 0.72883 13.9889 0.874255 14.4979C1.52866 15.0069 2.40121 15.225 3.41918 15.4431C3.49189 14.4979 3.34647 13.5526 3.27376 12.6801C2.18307 12.6801 1.52866 12.6074 0.656118 12.6801ZM3.78274 12.7528C3.85545 13.6253 3.92816 14.6433 4.00088 15.5158C4.87342 15.734 5.9641 15.8067 6.98207 15.8067C6.90936 14.716 6.90936 13.7708 6.83665 12.6801C5.9641 12.6801 4.87342 12.6074 3.92816 12.6074C3.85545 12.6074 3.78274 12.6801 3.78274 12.7528ZM7.41835 12.7528C7.41835 13.8435 7.41835 14.7887 7.56377 15.8794C8.65445 16.0248 9.96327 15.8794 11.1267 15.734C11.4175 14.9341 11.5629 13.7708 11.5629 12.8982C10.3995 12.6801 8.72717 12.6074 7.41835 12.7528ZM12.1446 12.8255C12.1446 13.698 11.9265 14.6433 11.7811 15.4431C12.8718 15.5158 13.7443 14.8614 14.6896 14.7887C14.9804 14.2797 15.1258 13.6253 15.1258 12.8982C14.1079 12.7528 13.308 12.8255 12.1446 12.8255ZM4.00088 18.2789C3.78274 17.5518 3.63732 16.7519 3.49189 16.0248C2.61935 15.8794 2.03765 15.5886 1.23782 15.2977C1.81951 16.6792 2.54663 17.8426 4.00088 18.2789ZM11.5629 16.243C11.3448 17.0428 11.054 17.6972 10.8358 18.4243C12.4355 17.9881 13.5262 16.9701 14.326 15.6613C13.3807 15.734 12.5082 16.0975 11.5629 16.243ZM4.1463 16.1703C4.1463 16.5338 4.29173 17.0428 4.36444 17.4791C4.43715 17.8426 4.58257 18.4243 4.80071 18.5698C5.01885 18.7879 5.67326 18.7879 6.10953 18.9333C6.40038 19.006 6.69123 19.1515 6.98207 19.006C6.90936 18.4243 7.1275 17.3336 6.98207 16.4611C5.9641 16.3884 5.16427 16.3157 4.1463 16.1703ZM7.56377 16.5338C7.56377 17.3336 7.63648 18.3516 7.56377 19.1515C8.50903 19.1515 9.23615 19.006 9.96327 18.7879C10.3995 18.0608 10.7631 17.2609 10.9812 16.3157C9.89056 16.4611 8.58174 16.4611 7.56377 16.5338Z" fill="#F5F1E5"/>
</svg>
