<svg width="84" height="26" viewBox="0 0 84 26" fill="none" xmlns="http://www.w3.org/2000/svg">
<g clip-path="url(#clip0_10_920)">
<path d="M36.4757 12.4458C36.5233 12.4458 36.5472 12.4697 36.5948 12.4697C36.6662 12.4697 36.7377 12.4935 36.7615 12.422C36.7615 12.3982 36.833 12.3744 36.8806 12.3506C36.9282 12.3268 36.9997 12.303 37.0473 12.2554C36.9997 12.2554 36.9282 12.2792 36.8568 12.303C36.9044 12.1601 37.0949 12.1363 37.2616 12.1125C37.2854 12.1363 37.3093 12.1601 37.3331 12.1601C37.2616 12.184 37.214 12.2078 37.1664 12.2316C37.1664 12.2316 37.1664 12.2554 37.1902 12.2554C37.2616 12.2554 37.3093 12.2316 37.3807 12.2316C37.476 12.2078 37.5474 12.1601 37.6427 12.1363C37.6189 12.1363 37.595 12.1125 37.5474 12.0887C37.6189 12.0649 37.6903 12.0411 37.7379 12.0173C37.7379 12.0173 37.7379 12.0173 37.7379 11.9935C37.4998 12.0173 37.2616 12.0173 37.0235 12.0411C36.6424 12.0649 36.2852 12.0887 35.9041 12.1125C35.404 12.1363 34.9039 12.1601 34.4038 12.184C34.1418 12.184 33.856 12.2078 33.594 12.2316C33.4273 12.2316 33.2606 12.2316 33.0939 12.2316C32.5223 12.2554 31.9508 12.303 31.3792 12.3268C30.8314 12.3506 30.2837 12.3744 29.7597 12.3982C29.3787 12.422 28.9976 12.4458 28.6166 12.4697C28.3308 12.4935 28.045 12.4935 27.7592 12.5173C27.14 12.5411 26.5208 12.5887 25.9016 12.6363C25.592 12.6601 25.2824 12.6601 24.949 12.6839C24.7108 12.7077 24.4727 12.7315 24.2345 12.7315C23.6153 12.7554 23.0199 12.7792 22.4007 12.8268C22.2102 12.8268 22.0435 12.8506 21.8529 12.8744C21.591 12.8982 21.329 12.8982 21.067 12.922C20.686 12.9458 20.3049 12.9696 19.9477 12.9934C19.781 12.9934 19.5905 12.9696 19.4238 12.9696C19.3761 12.9696 19.3523 12.9696 19.2809 12.9696C19.3285 12.9934 19.3523 12.9934 19.3999 13.0173C19.3285 13.0173 19.2809 13.0411 19.2332 13.0411C18.9713 13.0411 18.7093 13.0649 18.4235 13.0649C18.3282 13.0649 18.233 13.0411 18.1377 13.0649C18.0663 13.0649 17.971 13.0887 17.8996 13.0887C17.4947 13.1125 17.0898 13.1363 16.685 13.1601C16.423 13.1839 16.1848 13.1839 15.9229 13.2077C15.4942 13.2315 15.0655 13.2315 14.6368 13.2553C14.3748 13.2553 14.0891 13.303 13.8271 13.303C13.6842 13.303 13.5651 13.303 13.4222 13.303C13.1603 13.303 12.8983 13.3268 12.6363 13.3268C12.422 13.3268 12.2076 13.3506 11.9695 13.3506C11.9933 13.3268 12.0171 13.3268 12.0409 13.303C12.0409 13.303 12.0409 13.303 12.0409 13.2791C11.9933 13.303 11.9457 13.303 11.898 13.3268C11.7551 13.3506 11.6361 13.3506 11.4932 13.3506C11.0645 13.3506 10.6596 13.3744 10.2309 13.3982C9.82607 13.422 9.4212 13.422 9.04015 13.4458C8.802 13.4458 8.56384 13.4458 8.3495 13.4458C8.18279 13.4458 8.01608 13.4696 7.82556 13.4696C7.49214 13.4696 7.15872 13.4696 6.8253 13.4934C6.68241 13.4934 6.53952 13.4696 6.37281 13.4934C6.15847 13.5172 5.92031 13.5172 5.68216 13.5172C5.32492 13.5172 4.9915 13.541 4.63427 13.541C4.39611 13.541 4.15796 13.541 3.94362 13.541C3.68164 13.541 3.44349 13.5648 3.18152 13.5648C2.82428 13.5648 2.46705 13.5648 2.086 13.5648C1.75258 13.5648 1.41916 13.5648 1.06193 13.5648C0.871405 13.5648 0.657064 13.5887 0.466539 13.5887C0.133121 13.5887 -0.176481 13.5887 -0.509899 13.5887C-0.77187 13.5887 -1.05766 13.5887 -1.31963 13.5648C-1.48634 13.5648 -1.67686 13.5648 -1.84357 13.5648C-2.10554 13.5648 -2.36752 13.5648 -2.62949 13.5648C-2.86764 13.5648 -3.08198 13.5887 -3.32014 13.5887C-3.82027 13.5887 -4.32039 13.5648 -4.82052 13.5648C-5.29683 13.5648 -5.77314 13.5648 -6.24946 13.5648C-6.60669 13.5648 -6.96392 13.5648 -7.32116 13.5648C-7.70221 13.5648 -8.05944 13.5648 -8.44049 13.5887C-8.70246 13.5887 -8.98825 13.5887 -9.25022 13.5887C-9.63127 13.5887 -10.0123 13.6125 -10.3934 13.6125C-10.7744 13.6125 -11.1793 13.5887 -11.5603 13.5887C-11.8223 13.5887 -12.0843 13.5887 -12.3462 13.5887C-12.513 13.5887 -12.6559 13.5887 -12.8226 13.5887C-13.1083 13.5887 -13.3941 13.5887 -13.7037 13.5887C-13.8943 13.5887 -14.0848 13.5887 -14.2515 13.5887C-14.6087 13.5887 -14.9421 13.6125 -15.2994 13.6363C-15.3946 13.6363 -15.4661 13.6363 -15.5614 13.6125C-15.5852 13.6125 -15.5852 13.6125 -15.609 13.6125C-15.99 13.5887 -16.2282 13.5887 -16.4902 13.6125C-16.9188 13.6363 -17.3237 13.6363 -17.7524 13.6601C-17.9667 13.6601 -18.1811 13.6839 -18.3716 13.6839C-18.3954 13.6839 -18.4192 13.6839 -18.4192 13.6839C-18.5383 13.7791 -18.705 13.7315 -18.8955 13.7077C-19.0146 13.6839 -19.1575 13.6839 -19.2528 13.6125C-19.3718 13.541 -19.5147 13.4696 -19.5386 13.3506C-19.5624 13.2315 -19.5624 13.1601 -19.5147 13.0411C-19.4671 12.9696 -19.4671 12.8744 -19.4195 12.7792C-19.3718 12.6601 -19.3004 12.5649 -19.2528 12.4458C-19.2051 12.3506 -19.1337 12.2316 -19.0384 12.1363L-19.0146 12.1125C-19.0622 12.0411 -18.9908 11.9935 -18.9194 11.9459C-18.8479 11.9697 -18.7288 11.9459 -18.6097 11.9459C-18.3716 11.9459 -18.1096 11.9459 -17.8715 11.9459C-17.5857 11.9459 -17.2999 11.9459 -17.0379 11.9459C-16.6807 11.9459 -16.3235 11.9221 -15.9424 11.9221C-15.7995 11.9221 -15.6566 11.9221 -15.5137 11.9221C-15.1327 11.9221 -14.7516 11.9221 -14.3944 11.9221C-14.2039 11.9221 -14.0372 11.8983 -13.8704 11.8983C-13.6561 11.8983 -13.4179 11.8983 -13.2036 11.9221C-13.0369 11.9221 -12.8702 11.9221 -12.7035 11.9221C-12.2986 11.9221 -11.8699 11.9221 -11.4651 11.9221C-11.2031 11.9221 -10.9411 11.8983 -10.6792 11.8983C-10.3934 11.8983 -10.1314 11.8983 -9.84561 11.9221C-9.77416 11.9221 -9.70272 11.9221 -9.63127 11.9221C-9.29785 11.9221 -8.98825 11.8983 -8.65483 11.8983C-8.20233 11.8983 -7.74984 11.9221 -7.32116 11.9221C-6.96392 11.9221 -6.6305 11.8983 -6.27327 11.8983C-5.93985 11.8983 -5.63025 11.8983 -5.29683 11.8983C-4.77289 11.8983 -4.24895 11.8983 -3.725 11.8983C-3.17724 11.8983 -2.6533 11.8744 -2.10554 11.8744C-1.77213 11.8744 -1.41489 11.8744 -1.05766 11.8744C-0.914764 11.8744 -0.795685 11.8506 -0.652792 11.8506C-0.462267 11.8506 -0.271742 11.8506 -0.0812168 11.8506C0.0378609 11.8506 0.133121 11.8506 0.252199 11.8506C0.561802 11.8506 0.89522 11.8506 1.20482 11.8506C1.46679 11.8506 1.70495 11.8506 1.96692 11.8268C2.20508 11.8268 2.44324 11.8268 2.68139 11.8268C3.20533 11.8268 3.72928 11.803 4.2294 11.803C4.3723 11.803 4.49137 11.8268 4.63427 11.8268C4.6819 11.8268 4.72953 11.8268 4.75335 11.8268C4.94387 11.803 5.15821 11.8506 5.30111 11.7792C5.30111 11.7792 5.32492 11.7792 5.34874 11.7792C5.58689 11.803 5.80123 11.7792 6.03939 11.7792C6.25373 11.7792 6.46807 11.7792 6.68241 11.7792C6.94438 11.7792 7.20635 11.7792 7.44451 11.7554C7.7303 11.7554 7.99227 11.7554 8.27806 11.7554C8.54003 11.7554 8.802 11.7316 9.08779 11.7078C9.25449 11.7078 9.44502 11.7078 9.61173 11.684C9.68317 11.684 9.73081 11.684 9.80225 11.684C9.89752 11.684 9.99278 11.6602 10.1119 11.7078H10.1357C10.2547 11.684 10.3976 11.684 10.5405 11.6602C10.6358 11.7316 10.7311 11.684 10.8263 11.6602C10.9692 11.6602 11.0883 11.6364 11.2312 11.6364C11.4455 11.6364 11.6599 11.6364 11.8504 11.6364C11.9218 11.6364 11.9695 11.6126 12.0409 11.5887C12.0885 11.5887 12.1362 11.6126 12.1838 11.6126C12.3029 11.6126 12.4458 11.5887 12.5649 11.5649C12.6125 11.5649 12.6601 11.5649 12.6839 11.5649C12.9221 11.6126 13.1603 11.5649 13.3746 11.5411C13.5413 11.5173 13.7318 11.5173 13.9224 11.5173C14.0176 11.5173 14.0891 11.5173 14.1843 11.5173C14.2081 11.5173 14.2081 11.5173 14.232 11.5173C14.3748 11.4221 14.5892 11.5173 14.7559 11.4935C14.8273 11.4935 14.8988 11.4935 14.9702 11.4697C15.3751 11.4459 15.7561 11.4221 16.161 11.3983C16.2801 11.3983 16.3992 11.3983 16.5182 11.3983C16.6135 11.3983 16.685 11.4221 16.7564 11.3745C16.804 11.3507 16.8755 11.3745 16.9469 11.3745C17.0898 11.3745 17.2327 11.303 17.4232 11.3745C17.4471 11.3745 17.4947 11.3745 17.4947 11.3745C17.5423 11.303 17.6376 11.3507 17.7328 11.3507C17.8757 11.3507 18.0424 11.3745 18.1377 11.3269C18.233 11.2792 18.3282 11.3507 18.4235 11.3269C18.5188 11.303 18.6378 11.3269 18.7569 11.303C18.7807 11.303 18.8045 11.303 18.8284 11.303C18.9474 11.2316 19.1141 11.2792 19.257 11.2554C19.3999 11.2316 19.5428 11.2554 19.6857 11.2316C19.9239 11.184 20.162 11.2316 20.4002 11.2078H20.424C20.5431 11.184 20.6383 11.184 20.7574 11.1602C20.8051 11.1602 20.8527 11.1602 20.9003 11.1602C21.0432 11.1602 21.2099 11.1126 21.329 11.1364C21.4957 11.1602 21.6148 11.1602 21.7577 11.1364C21.8291 11.1364 21.9006 11.1126 21.972 11.1126L22.0197 11.1364C22.0911 11.1364 22.2102 11.1602 22.2102 11.065C22.234 11.0888 22.234 11.1126 22.234 11.1126C22.4483 11.0888 22.615 11.0888 22.8056 11.065C22.9485 11.065 23.1152 11.0412 23.2581 11.0173C23.3057 11.0173 23.3295 11.0173 23.3771 11.0173C23.401 11.0173 23.4724 11.0412 23.4724 11.0173C23.5677 10.9459 23.7582 10.9459 23.8773 10.9697C24.044 10.9935 24.1869 10.9459 24.3298 10.9459C24.4965 10.9459 24.6394 10.9459 24.8061 10.9459C24.8299 10.9459 24.8299 10.9459 24.8537 10.9459C25.0442 10.8983 25.2824 10.9459 25.4967 10.9221C25.6396 10.9221 25.8063 10.8983 25.9492 10.8745C25.9492 10.8507 25.9254 10.8507 25.9016 10.8269C26.2112 10.8269 26.497 10.8269 26.7828 10.8269C26.8066 10.8269 26.8304 10.8269 26.8304 10.8269C26.9971 10.7793 27.2115 10.8269 27.3782 10.7793C27.5925 10.7316 27.8068 10.7793 28.0212 10.7554C28.1403 10.7554 28.2593 10.7316 28.3784 10.7078C28.6642 10.684 28.95 10.684 29.212 10.6602C29.331 10.6602 29.4263 10.6364 29.5454 10.6364C29.9979 10.6126 30.4742 10.5888 30.9267 10.565C31.1887 10.5412 31.4506 10.5412 31.7126 10.5412C32.0936 10.5174 32.4747 10.4936 32.8557 10.4697C32.9272 10.4697 32.9986 10.4697 33.0701 10.4697C33.4035 10.4459 33.7369 10.3983 34.0703 10.3745C34.3085 10.3507 34.5466 10.3507 34.7848 10.3507C34.8563 10.3507 34.9277 10.3269 34.9991 10.3269V10.3031C34.8801 10.2793 34.7848 10.2793 34.6657 10.2555C34.1418 10.184 33.6178 10.1126 33.0701 10.065C32.7605 10.0412 32.4509 10.0174 32.1413 9.96977C31.8793 9.94596 31.6173 9.92215 31.3792 9.87454C31.0934 9.85073 30.7838 9.80311 30.498 9.7793C30.0693 9.73169 29.6645 9.70788 29.2358 9.66026C29.0452 9.63645 28.8547 9.63645 28.6642 9.61264C28.4022 9.58884 28.1641 9.56503 27.9021 9.51741C27.5925 9.4936 27.2829 9.46979 26.9733 9.44599C26.7828 9.42218 26.5684 9.39837 26.3779 9.37456C26.1874 9.35075 25.973 9.32694 25.7825 9.30313C25.4729 9.27933 25.1633 9.25552 24.8299 9.23171C24.6394 9.2079 24.4488 9.18409 24.2583 9.16028C24.0678 9.13648 23.9011 9.08886 23.8058 8.96982C23.782 8.94601 23.7582 8.94601 23.6867 8.9222C23.782 8.89839 23.8535 8.87458 23.9249 8.85077C23.9963 8.82697 23.9963 8.80316 23.9487 8.77935C23.8773 8.73173 23.9011 8.68412 23.9487 8.6365C24.044 8.56507 24.0916 8.46984 24.1631 8.37461C24.3298 8.3508 24.2345 8.13652 24.4965 8.16033C24.5679 8.16033 24.6394 8.11271 24.7108 8.0889C24.7823 8.0651 24.8537 8.0651 24.9013 8.0651C24.9252 8.0651 24.9728 8.0651 24.9966 8.04129C24.9966 7.96986 25.1157 7.99367 25.1871 7.96986C25.4253 7.94605 25.6634 7.92225 25.9016 7.89844C25.9254 7.89844 25.973 7.89844 26.0207 7.89844C26.1874 7.92225 26.3541 7.92225 26.5208 7.94605C26.6399 7.94605 26.7828 7.94605 26.9018 7.94605C27.1162 7.94605 27.3305 7.96986 27.5211 7.99367C27.5687 7.99367 27.6401 8.01748 27.5925 7.94605C27.6639 7.94605 27.7116 7.92225 27.783 7.92225C28.1403 7.94605 28.5213 7.99367 28.8785 8.01748C29.2358 8.04129 29.593 8.0651 29.9264 8.0889C30.2598 8.11271 30.6171 8.13652 30.9505 8.16033C31.2363 8.18414 31.5221 8.20795 31.784 8.23176C32.1651 8.27937 32.57 8.30318 32.951 8.3508C33.1177 8.37461 33.3082 8.39841 33.4749 8.42222C33.594 8.44603 33.6893 8.44603 33.8084 8.46984C34.1656 8.51746 34.499 8.54127 34.8563 8.58888C35.142 8.61269 35.404 8.6365 35.6898 8.68412C35.928 8.70792 36.1661 8.75554 36.4281 8.80316C36.6662 8.82697 36.9044 8.87458 37.1426 8.89839C37.4522 8.94601 37.7618 8.99363 38.0714 9.04124C38.3333 9.08886 38.5715 9.11267 38.8335 9.13648C38.9764 9.16028 39.1192 9.18409 39.2621 9.2079C39.4527 9.25552 39.6194 9.27933 39.8099 9.32694C40.2862 9.39837 40.7387 9.51741 41.1912 9.66026C41.5008 9.7555 41.7866 9.85073 42.0486 9.99358C42.3344 10.1364 42.5011 10.3507 42.5963 10.5412C42.6916 10.7316 42.6916 10.9459 42.763 11.1602C42.763 11.2078 42.8107 11.2316 42.8107 11.2792C42.8583 11.4697 42.9059 11.6602 42.9297 11.8506C42.9297 11.9459 42.8583 12.0173 42.763 12.0887C42.5487 12.2554 42.2391 12.3744 41.9533 12.4697C41.6437 12.5887 41.3341 12.6839 41.0245 12.7792C40.7625 12.8744 40.5006 12.9458 40.2386 13.0173C40.0242 13.0887 39.7861 13.1601 39.5717 13.2315C39.3098 13.303 39.0478 13.3744 38.7858 13.4696C38.5477 13.541 38.3333 13.6125 38.0952 13.6839C37.8094 13.7791 37.4998 13.8505 37.214 13.9458C37.0235 13.9934 36.833 14.0648 36.6424 14.1362C36.3328 14.2315 36.0232 14.3029 35.7136 14.3981C35.4516 14.4696 35.2135 14.541 34.9515 14.6362C34.6657 14.7315 34.3799 14.8029 34.0942 14.8981C33.7131 15.0172 33.3321 15.1362 32.951 15.2552C32.689 15.3267 32.4271 15.3981 32.1651 15.4933C31.784 15.6124 31.403 15.7552 30.9981 15.8743C30.6647 15.9695 30.3551 16.0647 30.0217 16.16C29.7835 16.2314 29.5692 16.279 29.331 16.3266C29.2358 16.3504 29.0929 16.3266 28.9738 16.279C28.8547 16.2314 28.688 16.2076 28.5928 16.1362C28.5213 16.0409 28.426 15.9695 28.4737 15.8743C28.5451 15.7314 28.5451 15.5886 28.5689 15.4457C28.5689 15.3981 28.6166 15.3743 28.6166 15.3267C28.6166 15.2076 28.688 15.1362 28.7595 15.041C28.8785 14.8981 28.9976 14.7553 29.1881 14.66C29.212 14.6362 29.2358 14.6124 29.2834 14.5886C29.2596 14.5648 29.2358 14.5648 29.1881 14.5648C29.212 14.541 29.2596 14.541 29.2834 14.5172C29.2596 14.4934 29.212 14.4934 29.1881 14.4696C29.1881 14.4696 29.1881 14.4458 29.212 14.4458C29.4501 14.3743 29.6883 14.3267 29.9264 14.2553C30.0455 14.2315 30.1646 14.1839 30.2837 14.1601C30.5218 14.0886 30.76 14.0172 30.9981 13.9458C31.1172 13.8982 31.2601 13.8744 31.403 13.8505C31.4744 13.8505 31.4983 13.7791 31.5697 13.7553C31.7364 13.7077 31.9269 13.6839 32.0936 13.6125C32.1889 13.5887 32.2604 13.5172 32.3556 13.5172C32.4509 13.4934 32.57 13.541 32.6652 13.5172C32.7843 13.5172 32.8557 13.4696 32.9034 13.3982C32.8796 13.3982 32.8557 13.3744 32.8081 13.3744C33.3559 13.2315 33.8798 13.0887 34.4038 12.9458L34.4276 12.9696C34.4038 12.9934 34.4038 13.0173 34.3799 13.0173C34.5467 12.9934 34.7134 12.9696 34.8801 12.9458C34.8801 12.9458 34.8324 12.922 34.7848 12.8982C34.9039 12.8744 35.023 12.8744 35.1182 12.8744C35.2135 12.8506 35.3326 12.8268 35.404 12.7792C35.5469 12.6839 35.6898 12.6363 35.9041 12.6125C35.9756 12.6125 36.047 12.5649 36.1185 12.5411C36.2137 12.5173 36.3328 12.4697 36.4281 12.4458C36.4519 12.4935 36.4519 12.4697 36.4757 12.4458Z" fill="black"/>
</g>
<defs>
<clipPath id="clip0_10_920">
<rect width="82.998" height="25.6901" fill="white" transform="translate(0.68396)"/>
</clipPath>
</defs>
</svg>
