<svg width="47" height="32" viewBox="0 0 47 32" fill="none" xmlns="http://www.w3.org/2000/svg">
<path d="M3.14974 14.9807V6.33686L3.61027 6.37228V14.9807C3.61027 15.5948 3.72245 16.0494 3.94682 16.3446C4.17118 16.6398 4.52544 16.7874 5.00959 16.7874C5.03321 16.7874 5.04501 16.8229 5.04501 16.8937C5.04501 16.9646 5.03321 17 5.00959 17C4.76161 17 4.50772 16.9941 4.24794 16.9823C3.99996 16.9705 3.71655 16.9646 3.39772 16.9646C3.0907 16.9646 2.78958 16.9705 2.49436 16.9823C2.19915 16.9941 1.92165 17 1.66186 17C1.63824 17 1.62643 16.9646 1.62643 16.8937C1.62643 16.8229 1.63824 16.7874 1.66186 16.7874C2.18144 16.7874 2.55931 16.6398 2.79548 16.3446C3.03165 16.0494 3.14974 15.5948 3.14974 14.9807ZM12.1124 17.2303C12.1124 17.2539 12.0829 17.2657 12.0239 17.2657C11.9766 17.2775 11.9412 17.2775 11.9176 17.2657L3.57485 7.38192C3.16155 6.89777 2.80139 6.57303 2.49436 6.40771C2.19915 6.23058 1.90393 6.14202 1.60872 6.14202C1.5851 6.14202 1.57329 6.10659 1.57329 6.03574C1.57329 5.96489 1.5851 5.92946 1.60872 5.92946C1.83308 5.92946 2.05745 5.93537 2.28181 5.94718C2.50617 5.95898 2.71282 5.96489 2.90176 5.96489C3.18516 5.96489 3.44495 5.95898 3.68112 5.94718C3.9173 5.93537 4.09442 5.92946 4.21251 5.92946C4.36602 5.92946 4.4782 6.00031 4.54905 6.14202C4.61991 6.27191 4.79113 6.50808 5.06273 6.85053L11.9707 15.1756L12.1124 17.2303ZM12.1124 7.96644V17.2303L11.6696 16.6812V7.96644C11.6696 7.3524 11.5574 6.89777 11.3331 6.60255C11.1205 6.29553 10.7722 6.14202 10.288 6.14202C10.2644 6.14202 10.2526 6.10659 10.2526 6.03574C10.2526 5.96489 10.2644 5.92946 10.288 5.92946C10.536 5.92946 10.7899 5.94127 11.0497 5.96489C11.3095 5.9767 11.5929 5.9826 11.8999 5.9826C12.1951 5.9826 12.4844 5.9767 12.7678 5.96489C13.0512 5.94127 13.3169 5.92946 13.5649 5.92946C13.5885 5.92946 13.6003 5.96489 13.6003 6.03574C13.6003 6.10659 13.5885 6.14202 13.5649 6.14202C13.0689 6.14202 12.7029 6.29553 12.4667 6.60255C12.2305 6.89777 12.1124 7.3524 12.1124 7.96644ZM22.2348 17H14.6891C14.6537 17 14.636 16.9646 14.636 16.8937C14.636 16.8229 14.6537 16.7874 14.6891 16.7874C15.0906 16.7874 15.3917 16.7579 15.5925 16.6989C15.805 16.6398 15.9467 16.5218 16.0176 16.3446C16.0884 16.1675 16.1239 15.9077 16.1239 15.5653V7.3642C16.1239 7.02176 16.0884 6.76787 16.0176 6.60255C15.9467 6.42542 15.805 6.30734 15.5925 6.24829C15.3917 6.17744 15.0906 6.14202 14.6891 6.14202C14.6537 6.14202 14.636 6.10659 14.636 6.03574C14.636 5.96489 14.6537 5.92946 14.6891 5.92946H21.916C22.034 5.92946 22.0931 5.9826 22.0931 6.08888L22.1285 8.3207C22.1285 8.35612 22.0931 8.37974 22.0222 8.39155C21.9632 8.39155 21.9278 8.37384 21.916 8.33841C21.8333 7.68894 21.603 7.19888 21.2252 6.86824C20.8473 6.5258 20.3513 6.35457 19.7373 6.35457H18.8339C18.4797 6.35457 18.2081 6.38409 18.0191 6.44314C17.8302 6.50218 17.7003 6.61436 17.6294 6.77968C17.5586 6.93319 17.5232 7.15165 17.5232 7.43506V15.4944C17.5232 15.7778 17.5527 16.0022 17.6117 16.1675C17.6826 16.321 17.8066 16.4332 17.9837 16.504C18.1608 16.5631 18.4088 16.5926 18.7276 16.5926H19.8967C20.5698 16.5926 21.1248 16.3978 21.5617 16.0081C21.9986 15.6066 22.2997 15.0398 22.4651 14.3076C22.4651 14.2722 22.5005 14.2604 22.5713 14.2722C22.6422 14.284 22.6776 14.3076 22.6776 14.3431C22.6304 14.6619 22.589 15.0457 22.5536 15.4944C22.5182 15.9431 22.5005 16.3564 22.5005 16.7343C22.5005 16.9114 22.4119 17 22.2348 17ZM21.2429 12.926C21.2429 12.4183 21.0953 12.0463 20.8 11.8101C20.5166 11.5622 20.0561 11.4382 19.4184 11.4382H16.8501V11.0308H19.4716C20.0738 11.0308 20.5166 10.9304 20.8 10.7296C21.0835 10.5171 21.2252 10.1924 21.2252 9.75544C21.2252 9.73182 21.2547 9.72002 21.3137 9.72002C21.3846 9.72002 21.42 9.73182 21.42 9.75544C21.42 10.1215 21.4141 10.4049 21.4023 10.6057C21.4023 10.8064 21.4023 11.019 21.4023 11.2433C21.4023 11.5149 21.4082 11.7865 21.42 12.0581C21.4436 12.3297 21.4554 12.619 21.4554 12.926C21.4554 12.9497 21.42 12.9615 21.3491 12.9615C21.2783 12.9615 21.2429 12.9497 21.2429 12.926ZM30.79 17C30.7663 17 30.7545 16.9646 30.7545 16.8937C30.7545 16.8229 30.7663 16.7874 30.79 16.7874C31.156 16.7874 31.3981 16.7402 31.5162 16.6457C31.6461 16.5513 31.6225 16.3682 31.4453 16.0966L25.7949 7.47048C25.4761 6.98633 25.1632 6.64388 24.8562 6.44314C24.5609 6.24239 24.2244 6.14202 23.8465 6.14202C23.8229 6.14202 23.8111 6.10659 23.8111 6.03574C23.8111 5.96489 23.8229 5.92946 23.8465 5.92946C24.0709 5.92946 24.3071 5.94127 24.555 5.96489C24.803 5.9767 25.0333 5.9826 25.2458 5.9826C25.73 5.9826 26.1787 5.9767 26.592 5.96489C27.0053 5.94127 27.3655 5.92946 27.6725 5.92946C27.7079 5.92946 27.7256 5.96489 27.7256 6.03574C27.7256 6.10659 27.7079 6.14202 27.6725 6.14202C27.3064 6.14202 27.0585 6.18925 26.9286 6.28372C26.8105 6.37819 26.84 6.56713 27.0171 6.85053L32.7207 15.5298C33.0277 15.9904 33.3406 16.3151 33.6594 16.504C33.9783 16.693 34.368 16.7874 34.8285 16.7874C34.8521 16.7874 34.8639 16.8229 34.8639 16.8937C34.8639 16.9646 34.8521 17 34.8285 17C34.5805 17 34.3089 16.9941 34.0137 16.9823C33.7185 16.9705 33.4056 16.9646 33.0749 16.9646C32.5908 16.9646 32.1657 16.9705 31.7996 16.9823C31.4453 16.9941 31.1088 17 30.79 17ZM23.758 17C23.7225 17 23.7048 16.9646 23.7048 16.8937C23.7048 16.8229 23.7225 16.7874 23.758 16.7874C24.1358 16.7874 24.5491 16.6398 24.9979 16.3446C25.4466 16.0494 25.9012 15.583 26.3617 14.9453L28.877 11.509L29.125 11.7039L26.8046 14.9807C26.3913 15.5475 26.2259 15.9904 26.3086 16.3092C26.4031 16.628 26.7337 16.7874 27.3005 16.7874C27.336 16.7874 27.3537 16.8229 27.3537 16.8937C27.3537 16.9646 27.336 17 27.3005 17C26.9817 17 26.6747 16.9941 26.3795 16.9823C26.0842 16.9705 25.7005 16.9646 25.2281 16.9646C24.9093 16.9646 24.6554 16.9705 24.4665 16.9823C24.2775 16.9941 24.0414 17 23.758 17ZM29.4261 11.4382L29.1781 11.2433L31.4276 8.03729C31.8527 7.43506 32.024 6.96862 31.9413 6.63798C31.8704 6.30734 31.5575 6.14202 31.0025 6.14202C30.9671 6.14202 30.9494 6.10659 30.9494 6.03574C30.9494 5.96489 30.9671 5.92946 31.0025 5.92946C31.3213 5.92946 31.6284 5.94127 31.9236 5.96489C32.2188 5.9767 32.6026 5.9826 33.0749 5.9826C33.3938 5.9826 33.6476 5.9767 33.8366 5.96489C34.0255 5.94127 34.2558 5.92946 34.5274 5.92946C34.5628 5.92946 34.5805 5.96489 34.5805 6.03574C34.5805 6.10659 34.5628 6.14202 34.5274 6.14202C34.1613 6.14202 33.748 6.30143 33.2875 6.62026C32.8269 6.9391 32.3546 7.42915 31.8704 8.09043L29.4261 11.4382ZM38.5728 6.28372C37.8407 6.28372 37.268 6.49037 36.8547 6.90367C36.4414 7.30516 36.1344 7.95463 35.9336 8.85209C35.9218 8.8757 35.8805 8.88751 35.8096 8.88751C35.7506 8.88751 35.7211 8.8698 35.7211 8.83437C35.7447 8.68086 35.7683 8.4624 35.7919 8.179C35.8273 7.89559 35.8569 7.58857 35.8805 7.25793C35.9041 6.92729 35.9218 6.60846 35.9336 6.30143C35.9572 5.99441 35.969 5.74053 35.969 5.53978C35.969 5.48074 36.0045 5.45122 36.0753 5.45122C36.1462 5.45122 36.1816 5.48074 36.1816 5.53978C36.1816 5.65787 36.2406 5.74643 36.3587 5.80547C36.4768 5.85271 36.6126 5.88813 36.7661 5.91175C36.9196 5.92356 37.0495 5.92946 37.1558 5.92946C38.1713 5.96489 39.3581 5.9826 40.7161 5.9826C41.5427 5.9826 42.204 5.9767 42.6999 5.96489C43.1959 5.94127 43.6741 5.92946 44.1347 5.92946C44.5362 5.92946 44.8432 5.90585 45.0557 5.85861C45.2801 5.79957 45.4218 5.67558 45.4808 5.48664C45.4926 5.43941 45.5281 5.41579 45.5871 5.41579C45.658 5.41579 45.6934 5.43941 45.6934 5.48664C45.6698 5.66377 45.6462 5.91175 45.6225 6.23058C45.6107 6.54941 45.593 6.88005 45.5694 7.2225C45.5576 7.56495 45.5458 7.88378 45.534 8.179C45.5222 8.47421 45.5163 8.69267 45.5163 8.83437C45.5163 8.8698 45.4808 8.88751 45.41 8.88751C45.3509 8.88751 45.3214 8.8698 45.3214 8.83437C45.2388 7.9133 45.0026 7.25793 44.6129 6.86824C44.2232 6.47856 43.6446 6.28372 42.877 6.28372C42.4637 6.28372 42.1508 6.31324 41.9383 6.37228C41.7375 6.41952 41.6017 6.51989 41.5309 6.6734C41.4718 6.82691 41.4423 7.06899 41.4423 7.39963V15.5653C41.4423 15.9077 41.4777 16.1675 41.5486 16.3446C41.6312 16.5218 41.7848 16.6398 42.0091 16.6989C42.2453 16.7579 42.6055 16.7874 43.0896 16.7874C43.1132 16.7874 43.125 16.8229 43.125 16.8937C43.125 16.9646 43.1132 17 43.0896 17C42.7708 17 42.4106 16.9941 42.0091 16.9823C41.6194 16.9705 41.1884 16.9646 40.7161 16.9646C40.2674 16.9646 39.8422 16.9705 39.4408 16.9823C39.0511 16.9941 38.6909 17 38.3603 17C38.3248 17 38.3071 16.9646 38.3071 16.8937C38.3071 16.8229 38.3248 16.7874 38.3603 16.7874C38.8208 16.7874 39.1692 16.7579 39.4053 16.6989C39.6533 16.6398 39.8186 16.5218 39.9013 16.3446C39.9839 16.1675 40.0253 15.9077 40.0253 15.5653V7.3642C40.0253 7.04537 39.9899 6.8092 39.919 6.65569C39.8482 6.49037 39.7064 6.39 39.4939 6.35457C39.2813 6.30734 38.9743 6.28372 38.5728 6.28372Z" fill="black"/>
<path d="M41.5585 29.2337C41.5913 29.2337 41.6077 29.2506 41.6404 29.2506C41.6896 29.2506 41.7388 29.2676 41.7552 29.2168C41.7552 29.1998 41.8043 29.1829 41.8371 29.166C41.8699 29.1491 41.9191 29.1321 41.9518 29.0983C41.9191 29.0983 41.8699 29.1152 41.8207 29.1321C41.8535 29.0305 41.9846 29.0136 42.0993 28.9967C42.1157 29.0136 42.1321 29.0305 42.1485 29.0305C42.0993 29.0475 42.0666 29.0644 42.0338 29.0813C42.0338 29.0813 42.0338 29.0983 42.0502 29.0983C42.0993 29.0983 42.1321 29.0813 42.1813 29.0813C42.2468 29.0644 42.296 29.0305 42.3616 29.0136C42.3452 29.0136 42.3288 28.9967 42.296 28.9797C42.3452 28.9628 42.3943 28.9459 42.4271 28.929C42.4271 28.929 42.4271 28.929 42.4271 28.912C42.2632 28.929 42.0993 28.929 41.9354 28.9459C41.6732 28.9628 41.4274 28.9797 41.1651 28.9967C40.821 29.0136 40.4768 29.0305 40.1326 29.0475C39.9523 29.0475 39.7557 29.0644 39.5754 29.0813C39.4607 29.0813 39.3459 29.0813 39.2312 29.0813C38.8379 29.0983 38.4445 29.1321 38.0512 29.1491C37.6742 29.166 37.2973 29.1829 36.9367 29.1998C36.6745 29.2168 36.4122 29.2337 36.15 29.2506C35.9533 29.2676 35.7567 29.2676 35.56 29.2845C35.1339 29.3014 34.7077 29.3353 34.2816 29.3691C34.0686 29.3861 33.8555 29.3861 33.626 29.403C33.4622 29.4199 33.2983 29.4369 33.1344 29.4369C32.7082 29.4538 32.2985 29.4707 31.8724 29.5046C31.7413 29.5046 31.6265 29.5215 31.4954 29.5385C31.3152 29.5554 31.1349 29.5554 30.9546 29.5723C30.6924 29.5892 30.4301 29.6062 30.1843 29.6231C30.0696 29.6231 29.9384 29.6062 29.8237 29.6062C29.7909 29.6062 29.7746 29.6062 29.7254 29.6062C29.7582 29.6231 29.7746 29.6231 29.8073 29.64C29.7582 29.64 29.7254 29.657 29.6926 29.657C29.5123 29.657 29.332 29.6739 29.1354 29.6739C29.0698 29.6739 29.0043 29.657 28.9387 29.6739C28.8895 29.6739 28.824 29.6908 28.7748 29.6908C28.4962 29.7078 28.2176 29.7247 27.9389 29.7416C27.7587 29.7585 27.5948 29.7585 27.4145 29.7755C27.1195 29.7924 26.8245 29.7924 26.5295 29.8093C26.3492 29.8093 26.1525 29.8432 25.9722 29.8432C25.8739 29.8432 25.7919 29.8432 25.6936 29.8432C25.5133 29.8432 25.333 29.8601 25.1528 29.8601C25.0053 29.8601 24.8578 29.8771 24.6939 29.8771C24.7102 29.8601 24.7266 29.8601 24.743 29.8432C24.743 29.8432 24.743 29.8432 24.743 29.8263C24.7102 29.8432 24.6775 29.8432 24.6447 29.8601C24.5464 29.8771 24.4644 29.8771 24.3661 29.8771C24.0711 29.8771 23.7924 29.894 23.4974 29.9109C23.2188 29.9279 22.9402 29.9279 22.678 29.9448C22.5141 29.9448 22.3502 29.9448 22.2027 29.9448C22.088 29.9448 21.9732 29.9617 21.8421 29.9617C21.6127 29.9617 21.3832 29.9617 21.1538 29.9786C21.0554 29.9786 20.9571 29.9617 20.8424 29.9786C20.6949 29.9956 20.531 29.9956 20.3671 29.9956C20.1212 29.9956 19.8918 30.0125 19.6459 30.0125C19.482 30.0125 19.3182 30.0125 19.1707 30.0125C18.9904 30.0125 18.8265 30.0294 18.6462 30.0294C18.4004 30.0294 18.1545 30.0294 17.8923 30.0294C17.6628 30.0294 17.4334 30.0294 17.1875 30.0294C17.0564 30.0294 16.9089 30.0464 16.7778 30.0464C16.5484 30.0464 16.3353 30.0464 16.1058 30.0464C15.9256 30.0464 15.7289 30.0464 15.5486 30.0294C15.4339 30.0294 15.3028 30.0294 15.188 30.0294C15.0078 30.0294 14.8275 30.0294 14.6472 30.0294C14.4833 30.0294 14.3358 30.0464 14.1719 30.0464C13.8277 30.0464 13.4836 30.0294 13.1394 30.0294C12.8116 30.0294 12.4838 30.0294 12.156 30.0294C11.9102 30.0294 11.6643 30.0294 11.4185 30.0294C11.1563 30.0294 10.9104 30.0294 10.6482 30.0464C10.4679 30.0464 10.2712 30.0464 10.091 30.0464C9.82873 30.0464 9.5665 30.0633 9.30427 30.0633C9.04204 30.0633 8.76342 30.0464 8.50119 30.0464C8.32091 30.0464 8.14063 30.0464 7.96035 30.0464C7.84562 30.0464 7.74728 30.0464 7.63256 30.0464C7.43589 30.0464 7.23921 30.0464 7.02615 30.0464C6.89504 30.0464 6.76392 30.0464 6.6492 30.0464C6.40336 30.0464 6.17391 30.0633 5.92807 30.0802C5.86251 30.0802 5.81334 30.0802 5.74778 30.0633C5.7314 30.0633 5.7314 30.0633 5.71501 30.0633C5.45278 30.0464 5.28888 30.0464 5.1086 30.0633C4.81359 30.0802 4.53497 30.0802 4.23997 30.0972C4.09246 30.0972 3.94496 30.1141 3.81384 30.1141C3.79745 30.1141 3.78106 30.1141 3.78106 30.1141C3.69912 30.1818 3.58439 30.1479 3.45328 30.131C3.37133 30.1141 3.27299 30.1141 3.20744 30.0633C3.12549 30.0125 3.02715 29.9617 3.01077 29.8771C2.99438 29.7924 2.99438 29.7416 3.02715 29.657C3.05993 29.6062 3.05993 29.5385 3.09271 29.4707C3.12549 29.3861 3.17466 29.3184 3.20744 29.2337C3.24022 29.166 3.28938 29.0813 3.35494 29.0136L3.37133 28.9967C3.33855 28.9459 3.38772 28.912 3.43689 28.8782C3.48606 28.8951 3.568 28.8782 3.64995 28.8782C3.81384 28.8782 3.99413 28.8782 4.15802 28.8782C4.35469 28.8782 4.55136 28.8782 4.73165 28.8782C4.97749 28.8782 5.22333 28.8612 5.48556 28.8612C5.58389 28.8612 5.68223 28.8612 5.78056 28.8612C6.04279 28.8612 6.30502 28.8612 6.55086 28.8612C6.68198 28.8612 6.7967 28.8443 6.91143 28.8443C7.05893 28.8443 7.22283 28.8443 7.37033 28.8612C7.48505 28.8612 7.59978 28.8612 7.71451 28.8612C7.99312 28.8612 8.28813 28.8612 8.56675 28.8612C8.74703 28.8612 8.92732 28.8443 9.1076 28.8443C9.30427 28.8443 9.48455 28.8443 9.68123 28.8612C9.73039 28.8612 9.77956 28.8612 9.82873 28.8612C10.0582 28.8612 10.2712 28.8443 10.5007 28.8443C10.8121 28.8443 11.1235 28.8612 11.4185 28.8612C11.6643 28.8612 11.8938 28.8443 12.1396 28.8443C12.3691 28.8443 12.5821 28.8443 12.8116 28.8443C13.1722 28.8443 13.5327 28.8443 13.8933 28.8443C14.2702 28.8443 14.6308 28.8274 15.0078 28.8274C15.2372 28.8274 15.4831 28.8274 15.7289 28.8274C15.8272 28.8274 15.9092 28.8104 16.0075 28.8104C16.1386 28.8104 16.2697 28.8104 16.4009 28.8104C16.4828 28.8104 16.5484 28.8104 16.6303 28.8104C16.8434 28.8104 17.0728 28.8104 17.2859 28.8104C17.4662 28.8104 17.6301 28.8104 17.8103 28.7935C17.9742 28.7935 18.1381 28.7935 18.302 28.7935C18.6626 28.7935 19.0231 28.7766 19.3673 28.7766C19.4657 28.7766 19.5476 28.7935 19.6459 28.7935C19.6787 28.7935 19.7115 28.7935 19.7279 28.7935C19.859 28.7766 20.0065 28.8104 20.1048 28.7597C20.1048 28.7597 20.1212 28.7597 20.1376 28.7597C20.3015 28.7766 20.449 28.7597 20.6129 28.7597C20.7604 28.7597 20.9079 28.7597 21.0554 28.7597C21.2357 28.7597 21.416 28.7597 21.5799 28.7427C21.7766 28.7427 21.9568 28.7427 22.1535 28.7427C22.3338 28.7427 22.5141 28.7258 22.7108 28.7089C22.8255 28.7089 22.9566 28.7089 23.0713 28.6919C23.1205 28.6919 23.1533 28.6919 23.2024 28.6919C23.268 28.6919 23.3335 28.675 23.4155 28.7089H23.4319C23.5138 28.6919 23.6122 28.6919 23.7105 28.675C23.7761 28.7258 23.8416 28.6919 23.9072 28.675C24.0055 28.675 24.0875 28.6581 24.1858 28.6581C24.3333 28.6581 24.4808 28.6581 24.6119 28.6581C24.6611 28.6581 24.6939 28.6411 24.743 28.6242C24.7758 28.6242 24.8086 28.6411 24.8414 28.6411C24.9233 28.6411 25.0216 28.6242 25.1036 28.6073C25.1364 28.6073 25.1691 28.6073 25.1855 28.6073C25.3494 28.6411 25.5133 28.6073 25.6608 28.5903C25.7756 28.5734 25.9067 28.5734 26.0378 28.5734C26.1033 28.5734 26.1525 28.5734 26.2181 28.5734C26.2345 28.5734 26.2345 28.5734 26.2508 28.5734C26.3492 28.5057 26.4967 28.5734 26.6114 28.5565C26.6606 28.5565 26.7097 28.5565 26.7589 28.5396C27.0375 28.5226 27.2998 28.5057 27.5784 28.4888C27.6603 28.4888 27.7423 28.4888 27.8242 28.4888C27.8898 28.4888 27.9389 28.5057 27.9881 28.4718C28.0209 28.4549 28.0701 28.4718 28.1192 28.4718C28.2176 28.4718 28.3159 28.421 28.447 28.4718C28.4634 28.4718 28.4962 28.4718 28.4962 28.4718C28.529 28.421 28.5945 28.4549 28.6601 28.4549C28.7584 28.4549 28.8731 28.4718 28.9387 28.438C29.0043 28.4041 29.0698 28.4549 29.1354 28.438C29.2009 28.421 29.2829 28.438 29.3648 28.421C29.3812 28.421 29.3976 28.421 29.414 28.421C29.4959 28.3703 29.6107 28.4041 29.709 28.3872C29.8073 28.3703 29.9057 28.3872 30.004 28.3703C30.1679 28.3364 30.3318 28.3703 30.4957 28.3533H30.5121C30.594 28.3364 30.6596 28.3364 30.7415 28.3195C30.7743 28.3195 30.8071 28.3195 30.8399 28.3195C30.9382 28.3195 31.0529 28.2856 31.1349 28.3025C31.2496 28.3195 31.3315 28.3195 31.4299 28.3025C31.479 28.3025 31.5282 28.2856 31.5774 28.2856L31.6102 28.3025C31.6593 28.3025 31.7413 28.3195 31.7413 28.2517C31.7577 28.2687 31.7577 28.2856 31.7577 28.2856C31.9052 28.2687 32.0199 28.2687 32.151 28.2517C32.2493 28.2517 32.3641 28.2348 32.4624 28.2179C32.4952 28.2179 32.5116 28.2179 32.5444 28.2179C32.5607 28.2179 32.6099 28.2348 32.6099 28.2179C32.6755 28.1671 32.8066 28.1671 32.8885 28.184C33.0033 28.201 33.1016 28.1671 33.1999 28.1671C33.3147 28.1671 33.413 28.1671 33.5277 28.1671C33.5441 28.1671 33.5441 28.1671 33.5605 28.1671C33.6916 28.1332 33.8555 28.1671 34.003 28.1502C34.1013 28.1502 34.2161 28.1332 34.3144 28.1163C34.3144 28.0994 34.298 28.0994 34.2816 28.0824C34.4947 28.0824 34.6914 28.0824 34.888 28.0824C34.9044 28.0824 34.9208 28.0824 34.9208 28.0824C35.0355 28.0486 35.183 28.0824 35.2978 28.0486C35.4453 28.0147 35.5928 28.0486 35.7403 28.0316C35.8222 28.0316 35.9042 28.0147 35.9861 27.9978C36.1828 27.9809 36.3795 27.9809 36.5597 27.9639C36.6417 27.9639 36.7072 27.947 36.7892 27.947C37.1006 27.9301 37.4284 27.9131 37.7398 27.8962C37.9201 27.8793 38.1003 27.8793 38.2806 27.8793C38.5429 27.8623 38.8051 27.8454 39.0673 27.8285C39.1165 27.8285 39.1656 27.8285 39.2148 27.8285C39.4443 27.8116 39.6737 27.7777 39.9032 27.7608C40.0671 27.7438 40.231 27.7438 40.3948 27.7438C40.444 27.7438 40.4932 27.7269 40.5424 27.7269V27.71C40.4604 27.693 40.3948 27.693 40.3129 27.6761C39.9523 27.6253 39.5918 27.5745 39.2148 27.5407C39.0018 27.5237 38.7887 27.5068 38.5756 27.4729C38.3953 27.456 38.2151 27.4391 38.0512 27.4052C37.8545 27.3883 37.6414 27.3544 37.4448 27.3375C37.1498 27.3036 36.8711 27.2867 36.5761 27.2528C36.445 27.2359 36.3139 27.2359 36.1828 27.219C36.0025 27.2021 35.8386 27.1851 35.6583 27.1513C35.4453 27.1343 35.2322 27.1174 35.0191 27.1005C34.888 27.0835 34.7405 27.0666 34.6094 27.0497C34.4783 27.0328 34.3308 27.0158 34.1997 26.9989C33.9866 26.982 33.7736 26.965 33.5441 26.9481C33.413 26.9312 33.2819 26.9142 33.1508 26.8973C33.0196 26.8804 32.9049 26.8465 32.8394 26.7619C32.823 26.7449 32.8066 26.7449 32.7574 26.728C32.823 26.7111 32.8721 26.6941 32.9213 26.6772C32.9705 26.6603 32.9705 26.6434 32.9377 26.6264C32.8885 26.5926 32.9049 26.5587 32.9377 26.5248C33.0033 26.4741 33.036 26.4063 33.0852 26.3386C33.1999 26.3217 33.1344 26.1693 33.3147 26.1862C33.3638 26.1862 33.413 26.1524 33.4622 26.1354C33.5113 26.1185 33.5605 26.1185 33.5933 26.1185C33.6097 26.1185 33.6424 26.1185 33.6588 26.1016C33.6588 26.0508 33.7408 26.0677 33.7899 26.0508C33.9538 26.0339 34.1177 26.0169 34.2816 26C34.298 26 34.3308 26 34.3636 26C34.4783 26.0169 34.593 26.0169 34.7077 26.0339C34.7897 26.0339 34.888 26.0339 34.97 26.0339C35.1175 26.0339 35.265 26.0508 35.3961 26.0677C35.4289 26.0677 35.478 26.0847 35.4453 26.0339C35.4944 26.0339 35.5272 26.0169 35.5764 26.0169C35.8222 26.0339 36.0844 26.0677 36.3303 26.0847C36.5761 26.1016 36.822 26.1185 37.0514 26.1354C37.2809 26.1524 37.5267 26.1693 37.7562 26.1862C37.9528 26.2032 38.1495 26.2201 38.3298 26.237C38.592 26.2709 38.8706 26.2878 39.1329 26.3217C39.2476 26.3386 39.3787 26.3555 39.4934 26.3725C39.5754 26.3894 39.6409 26.3894 39.7229 26.4063C39.9687 26.4402 40.1982 26.4571 40.444 26.491C40.6407 26.5079 40.821 26.5248 41.0176 26.5587C41.1815 26.5756 41.3454 26.6095 41.5257 26.6434C41.6896 26.6603 41.8535 26.6941 42.0174 26.7111C42.2305 26.7449 42.4435 26.7788 42.6566 26.8127C42.8369 26.8465 43.0008 26.8634 43.181 26.8804C43.2794 26.8973 43.3777 26.9142 43.476 26.9312C43.6072 26.965 43.7219 26.982 43.853 27.0158C44.1808 27.0666 44.4922 27.1513 44.8036 27.2528C45.0166 27.3206 45.2133 27.3883 45.3936 27.4899C45.5903 27.5915 45.705 27.7438 45.7706 27.8793C45.8361 28.0147 45.8361 28.1671 45.8853 28.3195C45.8853 28.3533 45.9181 28.3703 45.9181 28.4041C45.9508 28.5396 45.9836 28.675 46 28.8104C46 28.8782 45.9508 28.929 45.8853 28.9797C45.7378 29.0983 45.5247 29.1829 45.328 29.2506C45.115 29.3353 44.9019 29.403 44.6889 29.4707C44.5086 29.5385 44.3283 29.5892 44.148 29.64C44.0005 29.6908 43.8366 29.7416 43.6891 29.7924C43.5088 29.8432 43.3285 29.894 43.1483 29.9617C42.9844 30.0125 42.8369 30.0633 42.673 30.1141C42.4763 30.1818 42.2632 30.2326 42.0666 30.3003C41.9354 30.3342 41.8043 30.385 41.6732 30.4358C41.4602 30.5035 41.2471 30.5543 41.034 30.622C40.8537 30.6728 40.6899 30.7236 40.5096 30.7913C40.3129 30.859 40.1162 30.9098 39.9196 30.9775C39.6573 31.0622 39.3951 31.1468 39.1329 31.2315C38.9526 31.2823 38.7723 31.3331 38.592 31.4008C38.3298 31.4854 38.0676 31.587 37.7889 31.6717C37.5595 31.7394 37.3464 31.8071 37.117 31.8748C36.9531 31.9256 36.8056 31.9595 36.6417 31.9934C36.5761 32.0103 36.4778 31.9934 36.3958 31.9595C36.3139 31.9256 36.1992 31.9087 36.1336 31.8579C36.0844 31.7902 36.0189 31.7394 36.0517 31.6717C36.1008 31.5701 36.1008 31.4685 36.1172 31.3669C36.1172 31.3331 36.15 31.3161 36.15 31.2823C36.15 31.1976 36.1992 31.1468 36.2483 31.0791C36.3303 30.9775 36.4122 30.876 36.5434 30.8082C36.5597 30.7913 36.5761 30.7744 36.6089 30.7574C36.5925 30.7405 36.5761 30.7405 36.5434 30.7405C36.5597 30.7236 36.5925 30.7236 36.6089 30.7066C36.5925 30.6897 36.5597 30.6897 36.5434 30.6728C36.5434 30.6728 36.5434 30.6559 36.5597 30.6559C36.7236 30.6051 36.8875 30.5712 37.0514 30.5204C37.1334 30.5035 37.2153 30.4696 37.2973 30.4527C37.4612 30.4019 37.625 30.3511 37.7889 30.3003C37.8709 30.2665 37.9692 30.2495 38.0676 30.2326C38.1167 30.2326 38.1331 30.1818 38.1823 30.1649C38.297 30.131 38.4281 30.1141 38.5429 30.0633C38.6084 30.0464 38.6576 29.9956 38.7231 29.9956C38.7887 29.9786 38.8706 30.0125 38.9362 29.9956C39.0181 29.9956 39.0673 29.9617 39.1001 29.9109C39.0837 29.9109 39.0673 29.894 39.0345 29.894C39.4115 29.7924 39.7721 29.6908 40.1326 29.5892L40.149 29.6062C40.1326 29.6231 40.1326 29.64 40.1162 29.64C40.231 29.6231 40.3457 29.6062 40.4604 29.5892C40.4604 29.5892 40.4276 29.5723 40.3948 29.5554C40.4768 29.5385 40.5587 29.5385 40.6243 29.5385C40.6899 29.5215 40.7718 29.5046 40.821 29.4707C40.9193 29.403 41.0176 29.3691 41.1651 29.3522C41.2143 29.3522 41.2635 29.3184 41.3126 29.3014C41.3782 29.2845 41.4602 29.2506 41.5257 29.2337C41.5421 29.2676 41.5421 29.2506 41.5585 29.2337Z" fill="black"/>
</svg>
