<svg width="44" height="28" viewBox="0 0 44 28" fill="none" xmlns="http://www.w3.org/2000/svg">
<path d="M3.91531 15.4944C3.91531 15.8487 3.95664 16.1203 4.0393 16.3092C4.13376 16.4863 4.3227 16.6103 4.60611 16.6812C4.88951 16.752 5.31462 16.7874 5.88143 16.7874C5.91686 16.7874 5.93457 16.8229 5.93457 16.8937C5.93457 16.9646 5.91686 17 5.88143 17C5.50356 17 5.09026 16.9941 4.64153 16.9823C4.20462 16.9705 3.72637 16.9646 3.20679 16.9646C2.81711 16.9646 2.43333 16.9705 2.05546 16.9823C1.68939 16.9941 1.35875 17 1.06354 17C1.03992 17 1.02811 16.9646 1.02811 16.8937C1.02811 16.8229 1.03992 16.7874 1.06354 16.7874C1.47684 16.7874 1.78386 16.7579 1.9846 16.6989C2.19716 16.6398 2.33296 16.5218 2.392 16.3446C2.46285 16.1675 2.49828 15.9077 2.49828 15.5653V7.3642C2.49828 7.02176 2.46285 6.76787 2.392 6.60255C2.33296 6.42542 2.19716 6.30734 1.9846 6.24829C1.78386 6.17744 1.47684 6.14202 1.06354 6.14202C1.03992 6.14202 1.02811 6.10659 1.02811 6.03574C1.02811 5.96489 1.03992 5.92946 1.06354 5.92946C1.35875 5.92946 1.68939 5.94127 2.05546 5.96489C2.42152 5.9767 2.7994 5.9826 3.18908 5.9826C3.4961 5.9826 3.86807 5.96489 4.30499 5.92946C4.75371 5.89404 5.20244 5.87632 5.65117 5.87632C6.33606 5.87632 6.95011 5.9767 7.4933 6.17744C8.04831 6.37819 8.49113 6.69112 8.82177 7.11622C9.15241 7.54133 9.32363 8.09634 9.33544 8.78123C9.33544 9.39528 9.22326 9.92666 8.9989 10.3754C8.77453 10.8241 8.46751 11.1961 8.07783 11.4913C7.69995 11.7865 7.27484 12.005 6.8025 12.1467C6.34197 12.2884 5.88734 12.3592 5.43861 12.3592C5.29691 12.3592 5.1493 12.3533 4.99579 12.3415C4.85409 12.3297 4.71829 12.3061 4.58839 12.2707C4.54116 12.2589 4.52345 12.2175 4.53526 12.1467C4.55887 12.064 4.58839 12.0286 4.62382 12.0404C4.7301 12.064 4.83637 12.0817 4.94265 12.0935C5.06074 12.1053 5.16111 12.1113 5.24377 12.1113C5.6925 12.1113 6.1058 12.005 6.48367 11.7924C6.86154 11.5799 7.16857 11.2551 7.40474 10.8182C7.64091 10.3695 7.759 9.81448 7.759 9.1532C7.759 8.51554 7.64681 7.97825 7.42245 7.54133C7.2099 7.10442 6.90878 6.76787 6.5191 6.5317C6.12941 6.29553 5.68069 6.17744 5.17292 6.17744C4.84228 6.17744 4.58249 6.20106 4.39355 6.24829C4.21642 6.29553 4.09243 6.40771 4.02158 6.58484C3.95073 6.76197 3.91531 7.03356 3.91531 7.39963V15.4944ZM19.7134 17C19.5244 17 19.2115 16.7638 18.7746 16.2915C18.3495 15.8191 17.8358 15.1461 17.2336 14.2722C16.6313 13.3984 15.9523 12.3592 15.1966 11.1548L16.3834 10.7651C17.3753 12.253 18.2137 13.4397 18.8986 14.3254C19.5953 15.1992 20.2093 15.831 20.7407 16.2206C21.2721 16.5985 21.7799 16.7874 22.264 16.7874C22.2995 16.7874 22.3172 16.8229 22.3172 16.8937C22.3172 16.9646 22.2995 17 22.264 17C21.6027 17 21.0596 17 20.6344 17C20.2211 17 19.9141 17 19.7134 17ZM15.1435 5.87632C16.159 5.87632 16.9325 6.07707 17.4638 6.47856C18.007 6.86824 18.2786 7.41144 18.2786 8.10814C18.2786 8.54506 18.1724 8.96427 17.9598 9.36576C17.7591 9.76725 17.4816 10.1215 17.1273 10.4285C16.7849 10.7356 16.3834 10.9776 15.9228 11.1548C15.4741 11.3319 15.0077 11.4204 14.5235 11.4204C14.3818 11.4204 14.2342 11.4204 14.0807 11.4204C13.9272 11.4086 13.7855 11.3968 13.6556 11.385V15.5653C13.6556 15.9077 13.6851 16.1675 13.7441 16.3446C13.815 16.5218 13.9508 16.6398 14.1515 16.6989C14.3641 16.7579 14.677 16.7874 15.0903 16.7874C15.1257 16.7874 15.1435 16.8229 15.1435 16.8937C15.1435 16.9646 15.1257 17 15.0903 17C14.7951 17 14.4704 16.9941 14.1161 16.9823C13.7619 16.9705 13.3722 16.9646 12.9471 16.9646C12.5456 16.9646 12.1618 16.9705 11.7957 16.9823C11.4297 16.9941 11.099 17 10.8038 17C10.7684 17 10.7507 16.9646 10.7507 16.8937C10.7507 16.8229 10.7684 16.7874 10.8038 16.7874C11.2053 16.7874 11.5064 16.7579 11.7072 16.6989C11.9197 16.6398 12.0614 16.5218 12.1323 16.3446C12.2149 16.1675 12.2563 15.9077 12.2563 15.5653V7.3642C12.2563 7.02176 12.2208 6.76787 12.15 6.60255C12.0791 6.42542 11.9433 6.30734 11.7426 6.24829C11.5418 6.17744 11.2348 6.14202 10.8215 6.14202C10.7979 6.14202 10.7861 6.10659 10.7861 6.03574C10.7861 5.96489 10.7979 5.92946 10.8215 5.92946C11.1167 5.92946 11.4415 5.94127 11.7957 5.96489C12.1618 5.9767 12.5456 5.9826 12.9471 5.9826C13.2659 5.9826 13.632 5.96489 14.0453 5.92946C14.4586 5.89404 14.8246 5.87632 15.1435 5.87632ZM16.8085 8.74581C16.8085 8.07272 16.7199 7.55314 16.5428 7.18708C16.3656 6.8092 16.1236 6.54941 15.8165 6.40771C15.5213 6.2542 15.1848 6.17744 14.8069 6.17744C14.5235 6.17744 14.2991 6.20697 14.1338 6.26601C13.9685 6.31324 13.8445 6.42542 13.7619 6.60255C13.691 6.77968 13.6556 7.04537 13.6556 7.39963V10.9245C13.8209 10.9363 13.998 10.954 14.187 10.9776C14.3877 10.9894 14.5589 10.9953 14.7006 10.9953C15.4564 10.9953 15.9937 10.83 16.3125 10.4994C16.6431 10.1569 16.8085 9.57241 16.8085 8.74581ZM30.406 17H22.8603C22.8249 17 22.8072 16.9646 22.8072 16.8937C22.8072 16.8229 22.8249 16.7874 22.8603 16.7874C23.2618 16.7874 23.5629 16.7579 23.7637 16.6989C23.9762 16.6398 24.1179 16.5218 24.1888 16.3446C24.2596 16.1675 24.2951 15.9077 24.2951 15.5653V7.3642C24.2951 7.02176 24.2596 6.76787 24.1888 6.60255C24.1179 6.42542 23.9762 6.30734 23.7637 6.24829C23.5629 6.17744 23.2618 6.14202 22.8603 6.14202C22.8249 6.14202 22.8072 6.10659 22.8072 6.03574C22.8072 5.96489 22.8249 5.92946 22.8603 5.92946H30.0872C30.2052 5.92946 30.2643 5.9826 30.2643 6.08888L30.2997 8.3207C30.2997 8.35612 30.2643 8.37974 30.1934 8.39155C30.1344 8.39155 30.099 8.37384 30.0872 8.33841C30.0045 7.68894 29.7742 7.19888 29.3964 6.86824C29.0185 6.5258 28.5225 6.35457 27.9085 6.35457H27.0051C26.6509 6.35457 26.3793 6.38409 26.1903 6.44314C26.0014 6.50218 25.8715 6.61436 25.8006 6.77968C25.7298 6.93319 25.6944 7.15165 25.6944 7.43506V15.4944C25.6944 15.7778 25.7239 16.0022 25.7829 16.1675C25.8538 16.321 25.9778 16.4332 26.1549 16.504C26.332 16.5631 26.58 16.5926 26.8988 16.5926H28.0679C28.741 16.5926 29.296 16.3978 29.7329 16.0081C30.1698 15.6066 30.4709 15.0398 30.6363 14.3076C30.6363 14.2722 30.6717 14.2604 30.7425 14.2722C30.8134 14.284 30.8488 14.3076 30.8488 14.3431C30.8016 14.6619 30.7602 15.0457 30.7248 15.4944C30.6894 15.9431 30.6717 16.3564 30.6717 16.7343C30.6717 16.9114 30.5831 17 30.406 17ZM29.4141 12.926C29.4141 12.4183 29.2665 12.0463 28.9713 11.8101C28.6878 11.5622 28.2273 11.4382 27.5896 11.4382H25.0213V11.0308H27.6428C28.245 11.0308 28.6878 10.9304 28.9713 10.7296C29.2547 10.5171 29.3964 10.1924 29.3964 9.75544C29.3964 9.73182 29.4259 9.72002 29.4849 9.72002C29.5558 9.72002 29.5912 9.73182 29.5912 9.75544C29.5912 10.1215 29.5853 10.4049 29.5735 10.6057C29.5735 10.8064 29.5735 11.019 29.5735 11.2433C29.5735 11.5149 29.5794 11.7865 29.5912 12.0581C29.6148 12.3297 29.6266 12.619 29.6266 12.926C29.6266 12.9497 29.5912 12.9615 29.5203 12.9615C29.4495 12.9615 29.4141 12.9497 29.4141 12.926ZM43.5311 5.92946C43.5665 5.92946 43.5842 5.96489 43.5842 6.03574C43.5842 6.10659 43.5665 6.14202 43.5311 6.14202C43.1296 6.14202 42.7635 6.27191 42.4329 6.5317C42.1141 6.77968 41.8425 7.18708 41.6181 7.75389L38.0047 16.9823C37.9929 17.0295 37.9279 17.0531 37.8098 17.0531C37.7036 17.0531 37.6386 17.0295 37.615 16.9823L33.1691 7.39963C32.9683 6.96271 32.7558 6.64388 32.5314 6.44314C32.3188 6.24239 32.0472 6.14202 31.7166 6.14202C31.6812 6.14202 31.6635 6.10659 31.6635 6.03574C31.6635 5.96489 31.6812 5.92946 31.7166 5.92946C31.8701 5.92946 32.0118 5.93537 32.1417 5.94718C32.2716 5.95898 32.4133 5.97079 32.5668 5.9826C32.7203 5.9826 32.9093 5.9826 33.1336 5.9826C33.5824 5.9826 33.9661 5.9826 34.285 5.9826C34.6038 5.97079 34.8754 5.95898 35.0998 5.94718C35.3241 5.93537 35.5249 5.92946 35.702 5.92946C35.7374 5.92946 35.7551 5.96489 35.7551 6.03574C35.7551 6.10659 35.7374 6.14202 35.702 6.14202C35.2297 6.14202 34.9049 6.24829 34.7278 6.46085C34.5507 6.66159 34.5684 6.99223 34.7809 7.45277L38.4121 15.3527L37.7744 16.38L41.193 7.66532C41.3819 7.18117 41.3819 6.8092 41.193 6.54941C41.0159 6.27782 40.6144 6.14202 39.9885 6.14202C39.9531 6.14202 39.9354 6.10659 39.9354 6.03574C39.9354 5.96489 39.9531 5.92946 39.9885 5.92946C40.2955 5.92946 40.5848 5.94127 40.8564 5.96489C41.1398 5.9767 41.5059 5.9826 41.9546 5.9826C42.2971 5.9826 42.5687 5.9767 42.7694 5.96489C42.982 5.94127 43.2359 5.92946 43.5311 5.92946Z" fill="black"/>
<path d="M5.33822 25.2337C5.3062 25.2337 5.2902 25.2506 5.25818 25.2506C5.21016 25.2506 5.16213 25.2676 5.14612 25.2168C5.14612 25.1998 5.0981 25.1829 5.06608 25.166C5.03407 25.1491 4.98604 25.1321 4.95403 25.0983C4.98604 25.0983 5.03407 25.1152 5.08209 25.1321C5.05008 25.0305 4.92201 25.0136 4.80995 24.9967C4.79394 25.0136 4.77794 25.0305 4.76193 25.0305C4.80995 25.0475 4.84197 25.0644 4.87399 25.0813C4.87399 25.0813 4.87398 25.0983 4.85798 25.0983C4.80995 25.0983 4.77793 25.0813 4.72991 25.0813C4.66587 25.0644 4.61785 25.0305 4.55382 25.0136C4.56983 25.0136 4.58583 24.9967 4.61785 24.9797C4.56983 24.9628 4.5218 24.9459 4.48978 24.929C4.48978 24.929 4.48978 24.929 4.48978 24.912C4.64987 24.929 4.80995 24.929 4.97003 24.9459C5.22616 24.9628 5.46629 24.9797 5.72242 24.9967C6.05859 25.0136 6.39476 25.0305 6.73093 25.0475C6.90702 25.0475 7.09912 25.0644 7.27521 25.0813C7.38727 25.0813 7.49932 25.0813 7.61138 25.0813C7.99558 25.0983 8.37978 25.1321 8.76397 25.1491C9.13216 25.166 9.50035 25.1829 9.85253 25.1998C10.1087 25.2168 10.3648 25.2337 10.6209 25.2506C10.813 25.2676 11.0051 25.2676 11.1972 25.2845C11.6134 25.3014 12.0296 25.3353 12.4459 25.3691C12.654 25.3861 12.8621 25.3861 13.0862 25.403C13.2463 25.4199 13.4063 25.4369 13.5664 25.4369C13.9826 25.4538 14.3828 25.4707 14.7991 25.5046C14.9271 25.5046 15.0392 25.5215 15.1673 25.5385C15.3433 25.5554 15.5194 25.5554 15.6955 25.5723C15.9517 25.5892 16.2078 25.6062 16.4479 25.6231C16.56 25.6231 16.688 25.6062 16.8001 25.6062C16.8321 25.6062 16.8481 25.6062 16.8961 25.6062C16.8641 25.6231 16.8481 25.6231 16.8161 25.64C16.8641 25.64 16.8961 25.657 16.9282 25.657C17.1042 25.657 17.2803 25.6739 17.4724 25.6739C17.5365 25.6739 17.6005 25.657 17.6645 25.6739C17.7126 25.6739 17.7766 25.6908 17.8246 25.6908C18.0967 25.7078 18.3689 25.7247 18.641 25.7416C18.8171 25.7585 18.9772 25.7585 19.1533 25.7755C19.4414 25.7924 19.7296 25.7924 20.0177 25.8093C20.1938 25.8093 20.3859 25.8432 20.562 25.8432C20.6581 25.8432 20.7381 25.8432 20.8341 25.8432C21.0102 25.8432 21.1863 25.8601 21.3624 25.8601C21.5065 25.8601 21.6506 25.8771 21.8106 25.8771C21.7946 25.8601 21.7786 25.8601 21.7626 25.8432C21.7626 25.8432 21.7626 25.8432 21.7626 25.8263C21.7946 25.8432 21.8267 25.8432 21.8587 25.8601C21.9547 25.8771 22.0348 25.8771 22.1308 25.8771C22.419 25.8771 22.6911 25.894 22.9792 25.9109C23.2514 25.9279 23.5235 25.9279 23.7797 25.9448C23.9397 25.9448 24.0998 25.9448 24.2439 25.9448C24.356 25.9448 24.468 25.9617 24.5961 25.9617C24.8202 25.9617 25.0443 25.9617 25.2684 25.9786C25.3645 25.9786 25.4605 25.9617 25.5726 25.9786C25.7166 25.9956 25.8767 25.9956 26.0368 25.9956C26.2769 25.9956 26.501 26.0125 26.7412 26.0125C26.9013 26.0125 27.0613 26.0125 27.2054 26.0125C27.3815 26.0125 27.5416 26.0294 27.7177 26.0294C27.9578 26.0294 28.1979 26.0294 28.454 26.0294C28.6782 26.0294 28.9023 26.0294 29.1424 26.0294C29.2705 26.0294 29.4145 26.0464 29.5426 26.0464C29.7667 26.0464 29.9748 26.0464 30.1989 26.0464C30.375 26.0464 30.5671 26.0464 30.7432 26.0294C30.8553 26.0294 30.9833 26.0294 31.0954 26.0294C31.2715 26.0294 31.4476 26.0294 31.6237 26.0294C31.7838 26.0294 31.9278 26.0464 32.0879 26.0464C32.4241 26.0464 32.7603 26.0294 33.0964 26.0294C33.4166 26.0294 33.7368 26.0294 34.0569 26.0294C34.297 26.0294 34.5372 26.0294 34.7773 26.0294C35.0334 26.0294 35.2735 26.0294 35.5297 26.0464C35.7058 26.0464 35.8979 26.0464 36.0739 26.0464C36.3301 26.0464 36.5862 26.0633 36.8423 26.0633C37.0985 26.0633 37.3706 26.0464 37.6267 26.0464C37.8028 26.0464 37.9789 26.0464 38.155 26.0464C38.2671 26.0464 38.3631 26.0464 38.4752 26.0464C38.6673 26.0464 38.8594 26.0464 39.0675 26.0464C39.1955 26.0464 39.3236 26.0464 39.4357 26.0464C39.6758 26.0464 39.8999 26.0633 40.14 26.0802C40.2041 26.0802 40.2521 26.0802 40.3161 26.0633C40.3321 26.0633 40.3321 26.0633 40.3481 26.0633C40.6043 26.0464 40.7643 26.0464 40.9404 26.0633C41.2286 26.0802 41.5007 26.0802 41.7889 26.0972C41.9329 26.0972 42.077 26.1141 42.2051 26.1141C42.2211 26.1141 42.2371 26.1141 42.2371 26.1141C42.3171 26.1818 42.4292 26.1479 42.5573 26.131C42.6373 26.1141 42.7334 26.1141 42.7974 26.0633C42.8774 26.0125 42.9735 25.9617 42.9895 25.8771C43.0055 25.7924 43.0055 25.7416 42.9735 25.657C42.9415 25.6062 42.9415 25.5385 42.9094 25.4707C42.8774 25.3861 42.8294 25.3184 42.7974 25.2337C42.7654 25.166 42.7173 25.0813 42.6533 25.0136L42.6373 24.9967C42.6693 24.9459 42.6213 24.912 42.5733 24.8782C42.5252 24.8951 42.4452 24.8782 42.3652 24.8782C42.2051 24.8782 42.029 24.8782 41.8689 24.8782C41.6768 24.8782 41.4847 24.8782 41.3086 24.8782C41.0685 24.8782 40.8284 24.8612 40.5722 24.8612C40.4762 24.8612 40.3801 24.8612 40.2841 24.8612C40.028 24.8612 39.7718 24.8612 39.5317 24.8612C39.4037 24.8612 39.2916 24.8443 39.1795 24.8443C39.0355 24.8443 38.8754 24.8443 38.7313 24.8612C38.6192 24.8612 38.5072 24.8612 38.3951 24.8612C38.123 24.8612 37.8348 24.8612 37.5627 24.8612C37.3866 24.8612 37.2105 24.8443 37.0344 24.8443C36.8423 24.8443 36.6662 24.8443 36.4742 24.8612C36.4261 24.8612 36.3781 24.8612 36.3301 24.8612C36.106 24.8612 35.8979 24.8443 35.6737 24.8443C35.3696 24.8443 35.0654 24.8612 34.7773 24.8612C34.5372 24.8612 34.313 24.8443 34.0729 24.8443C33.8488 24.8443 33.6407 24.8443 33.4166 24.8443C33.0644 24.8443 32.7122 24.8443 32.36 24.8443C31.9919 24.8443 31.6397 24.8274 31.2715 24.8274C31.0474 24.8274 30.8073 24.8274 30.5671 24.8274C30.4711 24.8274 30.391 24.8104 30.295 24.8104C30.1669 24.8104 30.0389 24.8104 29.9108 24.8104C29.8308 24.8104 29.7667 24.8104 29.6867 24.8104C29.4786 24.8104 29.2545 24.8104 29.0464 24.8104C28.8703 24.8104 28.7102 24.8104 28.5341 24.7935C28.374 24.7935 28.2139 24.7935 28.0538 24.7935C27.7017 24.7935 27.3495 24.7766 27.0133 24.7766C26.9173 24.7766 26.8372 24.7935 26.7412 24.7935C26.7092 24.7935 26.6771 24.7935 26.6611 24.7935C26.5331 24.7766 26.389 24.8104 26.2929 24.7597C26.2929 24.7597 26.2769 24.7597 26.2609 24.7597C26.1008 24.7766 25.9568 24.7597 25.7967 24.7597C25.6526 24.7597 25.5085 24.7597 25.3645 24.7597C25.1884 24.7597 25.0123 24.7597 24.8522 24.7427C24.6601 24.7427 24.484 24.7427 24.2919 24.7427C24.1158 24.7427 23.9397 24.7258 23.7476 24.7089C23.6356 24.7089 23.5075 24.7089 23.3955 24.6919C23.3474 24.6919 23.3154 24.6919 23.2674 24.6919C23.2034 24.6919 23.1393 24.675 23.0593 24.7089H23.0433C22.9632 24.6919 22.8672 24.6919 22.7711 24.675C22.7071 24.7258 22.6431 24.6919 22.579 24.675C22.483 24.675 22.403 24.6581 22.3069 24.6581C22.1628 24.6581 22.0188 24.6581 21.8907 24.6581C21.8427 24.6581 21.8106 24.6411 21.7626 24.6242C21.7306 24.6242 21.6986 24.6411 21.6666 24.6411C21.5865 24.6411 21.4905 24.6242 21.4104 24.6073C21.3784 24.6073 21.3464 24.6073 21.3304 24.6073C21.1703 24.6411 21.0102 24.6073 20.8662 24.5903C20.7541 24.5734 20.626 24.5734 20.498 24.5734C20.4339 24.5734 20.3859 24.5734 20.3219 24.5734C20.3059 24.5734 20.3059 24.5734 20.2899 24.5734C20.1938 24.5057 20.0497 24.5734 19.9377 24.5565C19.8897 24.5565 19.8416 24.5565 19.7936 24.5396C19.5215 24.5226 19.2653 24.5057 18.9932 24.4888C18.9132 24.4888 18.8331 24.4888 18.7531 24.4888C18.6891 24.4888 18.641 24.5057 18.593 24.4718C18.561 24.4549 18.513 24.4718 18.4649 24.4718C18.3689 24.4718 18.2728 24.421 18.1448 24.4718C18.1288 24.4718 18.0967 24.4718 18.0967 24.4718C18.0647 24.421 18.0007 24.4549 17.9367 24.4549C17.8406 24.4549 17.7286 24.4718 17.6645 24.438C17.6005 24.4041 17.5365 24.4549 17.4724 24.438C17.4084 24.421 17.3284 24.438 17.2483 24.421C17.2323 24.421 17.2163 24.421 17.2003 24.421C17.1202 24.3703 17.0082 24.4041 16.9121 24.3872C16.8161 24.3703 16.72 24.3872 16.624 24.3703C16.4639 24.3364 16.3038 24.3703 16.1437 24.3533H16.1277C16.0477 24.3364 15.9837 24.3364 15.9036 24.3195C15.8716 24.3195 15.8396 24.3195 15.8076 24.3195C15.7115 24.3195 15.5995 24.2856 15.5194 24.3025C15.4074 24.3195 15.3273 24.3195 15.2313 24.3025C15.1833 24.3025 15.1352 24.2856 15.0872 24.2856L15.0552 24.3025C15.0072 24.3025 14.9271 24.3195 14.9271 24.2517C14.9111 24.2687 14.9111 24.2856 14.9111 24.2856C14.767 24.2687 14.655 24.2687 14.5269 24.2517C14.4309 24.2517 14.3188 24.2348 14.2228 24.2179C14.1908 24.2179 14.1747 24.2179 14.1427 24.2179C14.1267 24.2179 14.0787 24.2348 14.0787 24.2179C14.0147 24.1671 13.8866 24.1671 13.8066 24.184C13.6945 24.201 13.5984 24.1671 13.5024 24.1671C13.3903 24.1671 13.2943 24.1671 13.1822 24.1671C13.1662 24.1671 13.1662 24.1671 13.1502 24.1671C13.0222 24.1332 12.8621 24.1671 12.718 24.1502C12.6219 24.1502 12.5099 24.1332 12.4138 24.1163C12.4138 24.0994 12.4298 24.0994 12.4459 24.0824C12.2378 24.0824 12.0457 24.0824 11.8536 24.0824C11.8375 24.0824 11.8215 24.0824 11.8215 24.0824C11.7095 24.0486 11.5654 24.0824 11.4533 24.0486C11.3093 24.0147 11.1652 24.0486 11.0211 24.0316C10.9411 24.0316 10.861 24.0147 10.781 23.9978C10.5889 23.9809 10.3968 23.9809 10.2207 23.9639C10.1407 23.9639 10.0766 23.947 9.9966 23.947C9.69245 23.9301 9.37228 23.9131 9.06813 23.8962C8.89204 23.8793 8.71595 23.8793 8.53986 23.8793C8.28373 23.8623 8.0276 23.8454 7.77147 23.8285C7.72344 23.8285 7.67542 23.8285 7.62739 23.8285C7.40328 23.8116 7.17916 23.7777 6.95505 23.7608C6.79497 23.7438 6.63488 23.7438 6.4748 23.7438C6.42678 23.7438 6.37875 23.7269 6.33073 23.7269V23.71C6.41077 23.693 6.4748 23.693 6.55484 23.6761C6.90702 23.6253 7.2592 23.5745 7.62739 23.5407C7.8355 23.5237 8.0436 23.5068 8.25171 23.4729C8.4278 23.456 8.60389 23.4391 8.76397 23.4052C8.95607 23.3883 9.16418 23.3544 9.35628 23.3375C9.64442 23.3036 9.91656 23.2867 10.2047 23.2528C10.3328 23.2359 10.4608 23.2359 10.5889 23.219C10.765 23.2021 10.9251 23.1851 11.1012 23.1513C11.3093 23.1343 11.5174 23.1174 11.7255 23.1005C11.8536 23.0835 11.9976 23.0666 12.1257 23.0497C12.2538 23.0328 12.3978 23.0158 12.5259 22.9989C12.734 22.982 12.9421 22.965 13.1662 22.9481C13.2943 22.9312 13.4224 22.9142 13.5504 22.8973C13.6785 22.8804 13.7905 22.8465 13.8546 22.7619C13.8706 22.7449 13.8866 22.7449 13.9346 22.728C13.8706 22.7111 13.8226 22.6941 13.7745 22.6772C13.7265 22.6603 13.7265 22.6434 13.7585 22.6264C13.8066 22.5926 13.7905 22.5587 13.7585 22.5248C13.6945 22.4741 13.6625 22.4063 13.6145 22.3386C13.5024 22.3217 13.5664 22.1693 13.3903 22.1862C13.3423 22.1862 13.2943 22.1524 13.2463 22.1354C13.1982 22.1185 13.1502 22.1185 13.1182 22.1185C13.1022 22.1185 13.0702 22.1185 13.0542 22.1016C13.0542 22.0508 12.9741 22.0677 12.9261 22.0508C12.766 22.0339 12.6059 22.0169 12.4459 22C12.4298 22 12.3978 22 12.3658 22C12.2538 22.0169 12.1417 22.0169 12.0296 22.0339C11.9496 22.0339 11.8536 22.0339 11.7735 22.0339C11.6294 22.0339 11.4854 22.0508 11.3573 22.0677C11.3253 22.0677 11.2773 22.0847 11.3093 22.0339C11.2613 22.0339 11.2292 22.0169 11.1812 22.0169C10.9411 22.0339 10.685 22.0677 10.4448 22.0847C10.2047 22.1016 9.96459 22.1185 9.74047 22.1354C9.51636 22.1524 9.27623 22.1693 9.05212 22.1862C8.86002 22.2032 8.66792 22.2201 8.49183 22.237C8.2357 22.2709 7.96356 22.2878 7.70743 22.3217C7.59538 22.3386 7.46731 22.3555 7.35525 22.3725C7.27521 22.3894 7.21118 22.3894 7.13114 22.4063C6.89101 22.4402 6.6669 22.4571 6.42678 22.491C6.23468 22.5079 6.05859 22.5248 5.86649 22.5587C5.70641 22.5756 5.54633 22.6095 5.37024 22.6434C5.21016 22.6603 5.05007 22.6941 4.88999 22.7111C4.68188 22.7449 4.47378 22.7788 4.26567 22.8127C4.08958 22.8465 3.9295 22.8634 3.75341 22.8804C3.65736 22.8973 3.56131 22.9142 3.46526 22.9312C3.3372 22.965 3.22514 22.982 3.09707 23.0158C2.77691 23.0666 2.47275 23.1513 2.1686 23.2528C1.96049 23.3206 1.76839 23.3883 1.5923 23.4899C1.4002 23.5915 1.28815 23.7438 1.22411 23.8793C1.16008 24.0147 1.16008 24.1671 1.11205 24.3195C1.11205 24.3533 1.08004 24.3703 1.08004 24.4041C1.04802 24.5396 1.01601 24.675 1 24.8104C1 24.8782 1.04802 24.929 1.11205 24.9797C1.25613 25.0983 1.46424 25.1829 1.65634 25.2506C1.86444 25.3353 2.07255 25.403 2.28066 25.4707C2.45675 25.5385 2.63284 25.5892 2.80893 25.64C2.953 25.6908 3.11308 25.7416 3.25716 25.7924C3.43325 25.8432 3.60934 25.894 3.78543 25.9617C3.94551 26.0125 4.08958 26.0633 4.24966 26.1141C4.44176 26.1818 4.64987 26.2326 4.84197 26.3003C4.97003 26.3342 5.0981 26.385 5.22616 26.4358C5.43427 26.5035 5.64238 26.5543 5.85048 26.622C6.02657 26.6728 6.18666 26.7236 6.36275 26.7913C6.55484 26.859 6.74694 26.9098 6.93904 26.9775C7.19517 27.0622 7.4513 27.1468 7.70743 27.2315C7.88352 27.2823 8.05961 27.3331 8.2357 27.4008C8.49183 27.4854 8.74796 27.587 9.0201 27.6717C9.24422 27.7394 9.45233 27.8071 9.67644 27.8748C9.83652 27.9256 9.98059 27.9595 10.1407 27.9934C10.2047 28.0103 10.3008 27.9934 10.3808 27.9595C10.4608 27.9256 10.5729 27.9087 10.6369 27.8579C10.685 27.7902 10.749 27.7394 10.717 27.6717C10.6689 27.5701 10.6689 27.4685 10.6529 27.3669C10.6529 27.3331 10.6209 27.3161 10.6209 27.2823C10.6209 27.1976 10.5729 27.1468 10.5249 27.0791C10.4448 26.9775 10.3648 26.876 10.2367 26.8082C10.2207 26.7913 10.2047 26.7744 10.1727 26.7574C10.1887 26.7405 10.2047 26.7405 10.2367 26.7405C10.2207 26.7236 10.1887 26.7236 10.1727 26.7066C10.1887 26.6897 10.2207 26.6897 10.2367 26.6728C10.2367 26.6728 10.2367 26.6559 10.2207 26.6559C10.0606 26.6051 9.90055 26.5712 9.74047 26.5204C9.66043 26.5035 9.58039 26.4696 9.50035 26.4527C9.34027 26.4019 9.18019 26.3511 9.0201 26.3003C8.94006 26.2665 8.84401 26.2495 8.74797 26.2326C8.69994 26.2326 8.68393 26.1818 8.63591 26.1649C8.52385 26.131 8.39579 26.1141 8.28373 26.0633C8.2197 26.0464 8.17167 25.9956 8.10764 25.9956C8.04361 25.9786 7.96356 26.0125 7.89953 25.9956C7.81949 25.9956 7.77147 25.9617 7.73945 25.9109C7.75546 25.9109 7.77147 25.894 7.80348 25.894C7.4353 25.7924 7.08311 25.6908 6.73093 25.5892L6.71492 25.6062C6.73093 25.6231 6.73093 25.64 6.74694 25.64C6.63488 25.6231 6.52283 25.6062 6.41077 25.5892C6.41077 25.5892 6.44279 25.5723 6.4748 25.5554C6.39476 25.5385 6.31472 25.5385 6.25069 25.5385C6.18665 25.5215 6.10661 25.5046 6.05859 25.4707C5.96254 25.403 5.86649 25.3691 5.72242 25.3522C5.67439 25.3522 5.62637 25.3184 5.57834 25.3014C5.51431 25.2845 5.43427 25.2506 5.37024 25.2337C5.35423 25.2676 5.35423 25.2506 5.33822 25.2337Z" fill="black"/>
</svg>
