<svg width="313" height="68" viewBox="0 0 313 68" fill="none" xmlns="http://www.w3.org/2000/svg">
<path d="M31.9782 34.5319C31.9782 36.0353 31.6101 37.4313 30.8737 38.7199C30.1374 40.0086 29.1556 41.0517 27.9283 41.8494C26.701 42.6165 25.3357 43 23.8323 43H8.69104V10.3243H23.142C24.6761 10.3243 25.9954 10.7385 27.0999 11.5669C28.2351 12.3646 29.0942 13.4078 29.6771 14.6964C30.2908 15.9543 30.5976 17.2736 30.5976 18.6543C30.5976 20.3111 30.168 21.8298 29.309 23.2105C28.4806 24.5911 27.3453 25.6036 25.9033 26.2479C27.7749 26.8002 29.2476 27.8587 30.3214 29.4235C31.426 30.9575 31.9782 32.6604 31.9782 34.5319ZM31.0578 34.5319C31.0578 33.2126 30.751 31.9854 30.1374 30.8502C29.5544 29.7149 28.7414 28.7945 27.6982 28.0888C26.655 27.3525 25.4738 26.9843 24.1545 26.9843H9.61148V42.0796H23.8323C25.1823 42.0796 26.3942 41.7114 27.4681 40.975C28.5726 40.2387 29.447 39.3029 30.0913 38.1677C30.7356 37.0018 31.0578 35.7899 31.0578 34.5319ZM9.61148 11.2447V26.0638H22.8659C24.2158 26.0638 25.3971 25.6957 26.4096 24.9593C27.4221 24.223 28.2198 23.2872 28.8027 22.152C29.3857 21.0168 29.6771 19.8509 29.6771 18.6543C29.6771 17.335 29.401 16.1231 28.8487 15.0185C28.2965 13.8833 27.5294 12.9782 26.5476 12.3032C25.5658 11.5975 24.4306 11.2447 23.142 11.2447H9.61148ZM56.3834 10.3243H57.2118L71.4327 43H70.4202L65.3117 31.3104H48.2375L43.129 43H42.1165L56.3834 10.3243ZM64.8975 30.3899L56.7976 11.6589L48.6057 30.3899H64.8975ZM84.5257 43V10.3243H85.4462V31.5405L106.248 10.3243H107.583L93.6381 24.5911L108.227 43H107.031L92.9478 25.2354L85.4462 32.8291V43H84.5257ZM142.226 42.0796V43H120.78V10.3243H141.812V11.2447H121.701V25.8337H139.327V26.7542H121.701V42.0796H142.226ZM167.394 10.3243H168.222L182.443 43H181.431L176.322 31.3104H159.248L154.139 43H153.127L167.394 10.3243ZM175.908 30.3899L167.808 11.6589L159.616 30.3899H175.908ZM196.457 12.1191V43H195.536V10.3243H196.227L221.217 41.6654V10.3243H222.137V43H221.078L196.457 12.1191ZM239.857 12.1191V43H238.937V10.3243H239.627L264.617 41.6654V10.3243H265.537V43H264.479L239.857 12.1191ZM292.876 10.3243H293.705L307.925 43H306.913L301.804 31.3104H284.73L279.622 43H278.609L292.876 10.3243ZM301.39 30.3899L293.29 11.6589L285.098 30.3899H301.39Z" fill="white"/>
<mask id="path-2-inside-1_92_734" fill="white">
<path d="M91.3613 58.1064H106.702V61.1746H91.3613V58.1064Z"/>
</mask>
<path d="M91.3613 58.8735H106.702V57.3394H91.3613V58.8735ZM106.702 60.4076H91.3613V61.9416H106.702V60.4076Z" fill="white" mask="url(#path-2-inside-1_92_734)"/>
<path d="M114.814 63.7493C114.584 63.7493 114.358 63.7263 114.137 63.6803C113.926 63.625 113.755 63.556 113.627 63.4732C113.498 63.3811 113.438 63.2799 113.447 63.1694C113.456 63.0222 113.488 62.9439 113.544 62.9347C113.599 62.9163 113.728 62.9209 113.93 62.9485C114.243 63.013 114.579 63.0176 114.938 62.9623C115.297 62.9071 115.633 62.8105 115.946 62.6724C116.259 62.5343 116.503 62.3778 116.678 62.203C116.926 61.9636 117.037 61.7243 117.009 61.485C116.991 61.2457 116.848 61.0386 116.581 60.8637C116.462 60.7809 116.296 60.7026 116.084 60.629C115.872 60.5554 115.661 60.5001 115.449 60.4633C115.247 60.4173 115.081 60.3989 114.952 60.4081C114.869 60.4173 114.8 60.4173 114.745 60.4081C114.699 60.3989 114.616 60.3621 114.496 60.2976C114.441 60.2332 114.391 60.1642 114.344 60.0905C114.298 60.0077 114.266 59.9479 114.248 59.9111C114.239 59.865 114.262 59.819 114.317 59.773C114.381 59.727 114.515 59.6487 114.717 59.5383C114.92 59.4186 115.233 59.2437 115.656 59.0136C116.043 58.8019 116.346 58.6316 116.567 58.5028C116.797 58.3647 116.977 58.2543 117.106 58.1714C117.244 58.0794 117.354 57.9965 117.437 57.9229C117.603 57.702 117.686 57.5593 117.686 57.4949C117.686 57.4305 117.566 57.3752 117.327 57.3292C117.097 57.3108 116.876 57.297 116.664 57.2878C116.452 57.2786 116.346 57.2924 116.346 57.3292C116.346 57.3292 116.342 57.3292 116.333 57.3292C116.333 57.3292 116.319 57.3292 116.291 57.3292C116.245 57.3108 116.144 57.3154 115.987 57.343C115.831 57.3706 115.679 57.4029 115.532 57.4397C115.394 57.4765 115.32 57.5087 115.311 57.5363C115.302 57.5547 115.247 57.5869 115.145 57.633C115.053 57.6698 114.957 57.702 114.855 57.7296C114.763 57.7572 114.703 57.771 114.676 57.771C114.63 57.7526 114.575 57.7066 114.51 57.633C114.455 57.5501 114.409 57.4673 114.372 57.3844C114.335 57.2924 114.326 57.2234 114.344 57.1773C114.363 57.1405 114.418 57.0945 114.51 57.0393C114.611 56.9748 114.726 56.9104 114.855 56.846C114.984 56.7723 115.099 56.7125 115.2 56.6665C115.329 56.6297 115.509 56.6021 115.739 56.5837C115.978 56.5653 116.218 56.556 116.457 56.556C116.696 56.5468 116.871 56.5468 116.982 56.556C117.405 56.6021 117.732 56.7125 117.962 56.8874C118.192 57.0623 118.335 57.297 118.39 57.5915C118.417 57.7204 118.427 57.8263 118.417 57.9091C118.408 57.9919 118.367 58.0794 118.293 58.1714C118.22 58.2543 118.091 58.3785 117.907 58.5442C117.676 58.6915 117.488 58.8157 117.341 58.917C117.193 59.0182 116.972 59.1471 116.678 59.3036C116.613 59.3496 116.526 59.4094 116.415 59.4831C116.305 59.5567 116.204 59.6257 116.112 59.6902C116.02 59.7454 115.974 59.7822 115.974 59.8006C115.974 59.8006 115.992 59.8144 116.029 59.842C116.066 59.8604 116.112 59.888 116.167 59.9249C116.222 59.9617 116.273 60.0031 116.319 60.0491C116.586 60.1412 116.83 60.2884 117.051 60.4909C117.271 60.6934 117.428 60.8591 117.52 60.988C117.649 61.2733 117.699 61.5494 117.672 61.8164C117.653 62.0833 117.561 62.3364 117.396 62.5757C117.23 62.8059 116.986 63.0176 116.664 63.2108C116.406 63.3581 116.107 63.4824 115.767 63.5836C115.426 63.6757 115.108 63.7309 114.814 63.7493ZM121.168 63.5422C120.864 63.625 120.611 63.6573 120.408 63.6389C120.206 63.6112 120.008 63.5054 119.815 63.3213C119.686 63.2201 119.589 63.1234 119.525 63.0314C119.46 62.9393 119.414 62.8013 119.387 62.6172C119.341 62.4791 119.313 62.3686 119.304 62.2858C119.295 62.203 119.299 62.1017 119.318 61.9821C119.345 61.8624 119.382 61.6783 119.428 61.4298C119.502 61.0984 119.566 60.8407 119.621 60.6566C119.677 60.4633 119.787 60.2516 119.953 60.0215C120.026 59.8282 120.109 59.6349 120.201 59.4416C120.302 59.2391 120.376 59.1103 120.422 59.055C120.468 58.9906 120.537 58.894 120.629 58.7651C120.721 58.6362 120.818 58.5166 120.919 58.4061C121.011 58.2865 121.094 58.176 121.168 58.0748C121.251 57.9643 121.292 57.9091 121.292 57.9091C121.338 57.8815 121.379 57.8539 121.416 57.8263C121.462 57.7986 121.508 57.7526 121.554 57.6882C121.628 57.6054 121.729 57.5087 121.858 57.3983C121.996 57.2878 122.148 57.1819 122.314 57.0807C122.488 56.9794 122.659 56.892 122.824 56.8184C122.999 56.7447 123.16 56.6987 123.308 56.6803C123.602 56.5791 123.74 56.5837 123.722 56.6941C123.722 56.6941 123.736 56.7079 123.763 56.7355C123.791 56.7631 123.842 56.7862 123.915 56.8046C123.952 56.8138 123.98 56.846 123.998 56.9012C124.026 56.9472 124.053 56.9933 124.081 57.0393C124.099 57.1129 124.095 57.1773 124.067 57.2326C124.049 57.2878 123.975 57.3752 123.846 57.4949C123.717 57.5869 123.625 57.6376 123.57 57.6468C123.524 57.656 123.483 57.6422 123.446 57.6054C123.455 57.5685 123.437 57.5455 123.391 57.5363C123.345 57.5179 123.321 57.5087 123.321 57.5087C123.266 57.4903 123.147 57.5317 122.963 57.633C122.778 57.7342 122.581 57.8631 122.369 58.0196C122.166 58.176 121.996 58.3279 121.858 58.4752C121.775 58.5488 121.702 58.6224 121.637 58.6961C121.573 58.7697 121.531 58.8249 121.513 58.8618C121.393 58.9814 121.287 59.1011 121.195 59.2207C121.103 59.3312 121.057 59.3864 121.057 59.3864C121.085 59.4416 121.149 59.4554 121.251 59.4278C121.361 59.4002 121.421 59.368 121.43 59.3312C121.43 59.2944 121.531 59.2483 121.734 59.1931C121.945 59.1287 122.157 59.0873 122.369 59.0689C122.452 59.032 122.562 59.0274 122.7 59.055C122.847 59.0827 122.967 59.1057 123.059 59.1241C123.262 59.1609 123.4 59.1977 123.473 59.2345C123.547 59.2714 123.639 59.3588 123.75 59.4969C123.934 59.6717 124.058 59.8466 124.122 60.0215C124.196 60.1872 124.228 60.3897 124.219 60.629C124.219 60.7763 124.205 60.9051 124.178 61.0156C124.15 61.126 124.085 61.2411 123.984 61.3608C123.911 61.4804 123.814 61.6231 123.694 61.7888C123.575 61.9452 123.455 62.0879 123.335 62.2168C123.225 62.3456 123.128 62.4377 123.045 62.4929C123.009 62.5113 122.972 62.5343 122.935 62.5619C122.907 62.5803 122.893 62.5896 122.893 62.5896C122.884 62.6448 122.815 62.7184 122.686 62.8105C122.567 62.8933 122.415 62.9853 122.231 63.0866C122.047 63.1878 121.858 63.2799 121.665 63.3627C121.481 63.4456 121.315 63.5054 121.168 63.5422ZM120.243 62.8657C120.408 62.9025 120.537 62.9209 120.629 62.9209C120.721 62.9117 120.882 62.8611 121.112 62.769C121.186 62.7506 121.255 62.7322 121.32 62.7138C121.384 62.6954 121.435 62.6908 121.471 62.7C121.471 62.7 121.536 62.6586 121.665 62.5757C121.794 62.4837 121.945 62.3871 122.12 62.2858C122.608 61.9729 122.986 61.6277 123.252 61.2503C123.519 60.8637 123.63 60.5462 123.584 60.2976C123.593 60.224 123.579 60.155 123.542 60.0905C123.515 60.0169 123.506 59.9617 123.515 59.9249C123.487 59.9249 123.441 59.9157 123.377 59.8973C123.312 59.8788 123.229 59.8604 123.128 59.842C123.018 59.8144 122.907 59.8052 122.797 59.8144C122.696 59.8236 122.539 59.8512 122.327 59.8973C122.125 59.9341 121.812 60.0031 121.389 60.1044C121.324 60.1228 121.251 60.155 121.168 60.201C121.085 60.2378 121.002 60.2654 120.919 60.2838C120.882 60.3115 120.827 60.3483 120.753 60.3943C120.68 60.4311 120.611 60.4587 120.546 60.4771C120.436 60.4863 120.344 60.5738 120.27 60.7395C120.197 60.9051 120.109 61.2181 120.008 61.6783C119.943 61.9913 119.907 62.203 119.897 62.3134C119.888 62.4239 119.907 62.5159 119.953 62.5896C119.971 62.7 120.008 62.769 120.063 62.7966C120.118 62.8243 120.178 62.8473 120.243 62.8657ZM126.196 63.6389C126.03 63.5192 125.947 63.4179 125.947 63.3351C125.911 63.2799 125.869 63.2523 125.823 63.2523C125.796 63.2615 125.768 63.2339 125.74 63.1694C125.722 63.105 125.704 63.0314 125.685 62.9485C125.676 62.8565 125.676 62.792 125.685 62.7552C125.722 62.6816 125.777 62.6402 125.851 62.631C125.924 62.6126 125.993 62.6218 126.058 62.6586C126.132 62.6862 126.173 62.7368 126.182 62.8105C126.201 62.8841 126.27 62.9439 126.389 62.9899C126.518 63.036 126.684 63.0544 126.886 63.0452C127.144 63.036 127.411 62.9715 127.687 62.8519C127.972 62.7322 128.235 62.5803 128.474 62.3963C128.723 62.2122 128.92 62.0235 129.068 61.8302C129.132 61.7013 129.192 61.531 129.247 61.3193C129.302 61.1076 129.339 60.9189 129.358 60.7533C129.376 60.5876 129.362 60.5047 129.316 60.5047C129.316 60.5047 129.307 60.4725 129.289 60.4081C129.279 60.3437 129.261 60.2746 129.233 60.201C129.187 60.0629 129.082 59.9249 128.916 59.7868C128.75 59.6395 128.589 59.5337 128.433 59.4692C128.368 59.4508 128.249 59.437 128.074 59.4278C127.908 59.4094 127.756 59.4094 127.618 59.4278C127.471 59.437 127.337 59.437 127.218 59.4278C127.107 59.4186 127.052 59.414 127.052 59.414C127.006 59.4048 126.937 59.368 126.845 59.3036C126.762 59.2391 126.684 59.1701 126.61 59.0965C126.537 59.0228 126.5 58.963 126.5 58.917C126.518 58.8526 126.564 58.7513 126.638 58.6132C126.711 58.466 126.799 58.3049 126.9 58.13C127.011 57.9459 127.126 57.7756 127.245 57.6192C127.365 57.4535 127.48 57.3154 127.59 57.205C127.867 56.9012 128.18 56.6757 128.529 56.5284C128.888 56.372 129.256 56.3029 129.634 56.3213C129.901 56.3305 130.089 56.3535 130.2 56.3904C130.32 56.418 130.435 56.5054 130.545 56.6527C130.619 56.7816 130.651 56.8966 130.642 56.9979C130.633 57.0991 130.596 57.1681 130.531 57.205C130.467 57.2418 130.379 57.2326 130.269 57.1773C130.14 57.0945 129.961 57.0623 129.73 57.0807C129.51 57.0991 129.275 57.1451 129.026 57.2188C128.833 57.2924 128.626 57.4121 128.405 57.5777C128.193 57.7342 128.064 57.8631 128.018 57.9643C127.982 57.9919 127.954 58.0196 127.936 58.0472C127.926 58.0748 127.903 58.084 127.867 58.0748C127.867 58.0748 127.853 58.0932 127.825 58.13C127.798 58.1576 127.784 58.1898 127.784 58.2267C127.738 58.2819 127.706 58.3233 127.687 58.3509C127.678 58.3693 127.655 58.3601 127.618 58.3233C127.618 58.3233 127.618 58.3371 127.618 58.3647C127.618 58.3923 127.613 58.4245 127.604 58.4614C127.595 58.5258 127.6 58.581 127.618 58.627C127.646 58.6639 127.747 58.6915 127.922 58.7099C128.152 58.7467 128.327 58.7835 128.446 58.8203C128.566 58.8479 128.741 58.9308 128.971 59.0689C129.229 59.2161 129.436 59.414 129.592 59.6625C129.749 59.9019 129.855 60.1734 129.91 60.4771C129.974 60.7809 129.984 61.0892 129.938 61.4022C129.91 61.6047 129.882 61.7612 129.855 61.8716C129.827 61.9821 129.749 62.1339 129.62 62.3272C129.408 62.6218 129.151 62.8841 128.847 63.1142C128.543 63.3351 128.226 63.51 127.894 63.6389C127.563 63.7585 127.245 63.8229 126.942 63.8321C126.647 63.8414 126.398 63.7769 126.196 63.6389ZM138.448 64.2325C138.328 64.2602 138.227 64.2417 138.144 64.1773C138.07 64.1221 138.015 64.0392 137.978 63.9288C137.905 63.7171 137.849 63.487 137.813 63.2385C137.785 62.9807 137.78 62.7552 137.799 62.5619L137.826 62.272L137.288 62.7C136.975 62.9761 136.671 63.174 136.377 63.2937C136.091 63.4133 135.838 63.4732 135.617 63.4732C135.516 63.4548 135.415 63.4179 135.314 63.3627C135.212 63.3075 135.12 63.2385 135.038 63.1556C134.964 63.0728 134.904 62.9853 134.858 62.8933C134.803 62.7644 134.784 62.5896 134.803 62.3686C134.83 62.1477 134.886 61.9084 134.968 61.6507C135.061 61.3838 135.171 61.126 135.3 60.8775C135.438 60.6198 135.594 60.3943 135.769 60.201C136.073 59.7408 136.4 59.46 136.75 59.3588C137.099 59.2575 137.444 59.3082 137.785 59.5107C138.024 59.6119 138.172 59.6579 138.227 59.6487C138.291 59.6395 138.347 59.5337 138.393 59.3312C138.429 59.1839 138.466 59.0366 138.503 58.8894C138.54 58.7329 138.6 58.5258 138.682 58.2681C138.913 57.5685 139.11 57.0209 139.276 56.6251C139.451 56.2293 139.608 55.8841 139.746 55.5896C139.847 55.3779 139.93 55.249 139.994 55.203C140.068 55.1478 140.141 55.1248 140.215 55.134C140.316 55.134 140.408 55.1708 140.491 55.2444C140.574 55.3181 140.638 55.4193 140.684 55.5482C140.721 55.631 140.735 55.7046 140.726 55.7691C140.726 55.8243 140.698 55.9025 140.643 56.0038C140.523 56.2247 140.381 56.5192 140.215 56.8874C140.059 57.2464 139.897 57.6422 139.732 58.0748C139.575 58.5074 139.428 58.9354 139.29 59.3588C139.152 59.7822 139.037 60.155 138.945 60.4771C138.89 60.6796 138.839 60.9374 138.793 61.2503C138.756 61.5633 138.724 61.8854 138.696 62.2168C138.669 62.5389 138.65 62.8289 138.641 63.0866C138.641 63.3351 138.65 63.4962 138.669 63.5698C138.724 63.7539 138.747 63.892 138.738 63.984C138.738 64.0761 138.715 64.1359 138.669 64.1635C138.623 64.2003 138.549 64.2233 138.448 64.2325ZM136.114 62.7C136.243 62.6724 136.368 62.6218 136.487 62.5481C136.616 62.4745 136.75 62.3871 136.888 62.2858C137.164 62.0741 137.403 61.8808 137.606 61.7059C137.808 61.531 137.942 61.2641 138.006 60.9051C138.024 60.7303 138.006 60.5922 137.951 60.4909C137.905 60.3805 137.826 60.2792 137.716 60.1872C137.606 60.1136 137.454 60.0859 137.26 60.1044C137.076 60.1136 136.883 60.2102 136.681 60.3943C136.46 60.5968 136.243 60.8683 136.032 61.2089C135.829 61.5494 135.677 61.9683 135.576 62.4653C135.558 62.5573 135.585 62.631 135.659 62.6862C135.732 62.7414 135.884 62.746 136.114 62.7ZM140.347 63.4732C140.31 63.3995 140.264 63.3443 140.209 63.3075C140.154 63.2615 140.126 63.2201 140.126 63.1832C140.126 63.1464 140.122 63.1096 140.113 63.0728C140.113 63.0268 140.094 62.9853 140.057 62.9485C140.011 62.8933 140.016 62.769 140.071 62.5757C140.126 62.3732 140.218 62.1293 140.347 61.844C140.476 61.5494 140.628 61.2411 140.803 60.9189C140.877 60.8453 140.95 60.7487 141.024 60.629C141.097 60.5093 141.153 60.4311 141.189 60.3943C141.189 60.3575 141.203 60.3253 141.231 60.2976C141.258 60.2608 141.291 60.2424 141.328 60.2424V60.1596C141.328 60.1136 141.369 60.0353 141.452 59.9249C141.544 59.8144 141.654 59.6948 141.783 59.5659C141.912 59.4278 142.045 59.299 142.184 59.1793C142.322 59.0504 142.437 58.9584 142.529 58.9032C142.722 58.7743 142.92 58.6961 143.122 58.6685C143.334 58.6408 143.514 58.6869 143.661 58.8065C143.688 58.8341 143.734 58.8802 143.799 58.9446C143.863 59.009 143.937 59.0827 144.02 59.1655C144.112 59.2391 144.204 59.3174 144.296 59.4002L144.807 59.8558L144.558 60.5462C144.439 60.9143 144.406 61.2365 144.462 61.5126C144.526 61.7888 144.618 62.0281 144.738 62.2306C144.784 62.3318 144.876 62.4285 145.014 62.5205C145.161 62.6126 145.299 62.6678 145.428 62.6862C145.502 62.6954 145.571 62.723 145.635 62.769C145.7 62.8151 145.732 62.8887 145.732 62.9899C145.732 63.082 145.713 63.1556 145.677 63.2108C145.64 63.2661 145.575 63.3029 145.483 63.3213C145.18 63.3581 144.894 63.2845 144.627 63.1004C144.37 62.9163 144.13 62.6126 143.909 62.1892C143.873 62.1339 143.822 62.0327 143.757 61.8854C143.702 61.7289 143.67 61.6277 143.661 61.5817C143.624 61.6277 143.555 61.7151 143.454 61.844C143.352 61.9636 143.274 62.0511 143.219 62.1063C142.566 62.769 141.999 63.2155 141.521 63.4456C141.051 63.6665 140.66 63.6757 140.347 63.4732ZM140.844 62.7C140.844 62.7644 140.941 62.7644 141.134 62.7C141.337 62.6264 141.553 62.4975 141.783 62.3134C142.096 62.0465 142.409 61.7519 142.722 61.4298C143.044 61.1076 143.302 60.8085 143.495 60.5324L143.799 60.0353C143.707 59.8236 143.606 59.681 143.495 59.6073C143.394 59.5245 143.306 59.4831 143.233 59.4831C143.113 59.4831 142.934 59.5935 142.694 59.8144C142.464 60.0353 142.216 60.3299 141.949 60.698C141.682 61.0662 141.429 61.4712 141.189 61.913C141.097 62.0971 141.015 62.2766 140.941 62.4515C140.877 62.6172 140.844 62.7 140.844 62.7ZM146.057 67.2976C145.854 67.3344 145.716 67.339 145.642 67.3114C145.569 67.2838 145.468 67.2378 145.339 67.1734C145.237 67.0997 145.159 67.0445 145.104 67.0077C145.049 66.9709 145.021 66.934 145.021 66.8972C145.021 66.8696 145.03 66.8374 145.049 66.8006C145.067 66.773 145.099 66.7454 145.145 66.7177C145.201 66.6993 145.274 66.6901 145.366 66.6901C145.431 66.7269 145.537 66.7454 145.684 66.7454C145.84 66.7454 145.937 66.7269 145.974 66.6901C145.974 66.6901 146.015 66.6625 146.098 66.6073C146.19 66.5613 146.31 66.5244 146.457 66.4968C146.742 66.3588 146.995 66.1839 147.216 65.9722C147.437 65.7605 147.649 65.4843 147.851 65.1438C147.934 65.0149 148.022 64.863 148.114 64.6882C148.206 64.5225 148.27 64.3568 148.307 64.1911C148.381 64.007 148.464 63.7585 148.556 63.4456C148.657 63.1326 148.744 62.8243 148.818 62.5205C148.892 62.2076 148.933 61.9729 148.942 61.8164C148.997 61.3009 149.085 60.8269 149.205 60.3943C149.333 59.9525 149.444 59.46 149.536 58.917C149.591 58.7881 149.633 58.7145 149.66 58.6961C149.688 58.6685 149.748 58.6547 149.84 58.6547C149.941 58.6547 150.015 58.6639 150.061 58.6823C150.116 58.6915 150.176 58.7467 150.24 58.8479C150.332 59.0228 150.364 59.2299 150.337 59.4692C150.318 59.6994 150.249 59.9019 150.13 60.0767C150.038 60.2056 149.955 60.4081 149.881 60.6842C149.817 60.9512 149.752 61.2871 149.688 61.6921C149.642 61.8946 149.591 62.1339 149.536 62.4101C149.49 62.677 149.439 62.9761 149.384 63.3075C149.347 63.3995 149.297 63.5422 149.232 63.7355C149.168 63.9196 149.126 64.0669 149.108 64.1773C149.099 64.2141 149.071 64.2878 149.025 64.3982C148.979 64.5087 148.933 64.6145 148.887 64.7158C148.841 64.8262 148.809 64.8999 148.79 64.9367C148.431 65.6822 148.022 66.2529 147.562 66.6487C147.101 67.0445 146.6 67.2608 146.057 67.2976ZM147.106 63.2937C147.005 63.2937 146.899 63.2385 146.788 63.128C146.687 63.0176 146.618 62.9301 146.581 62.8657C146.544 62.7736 146.498 62.6862 146.443 62.6034C146.388 62.5205 146.347 62.4193 146.319 62.2996C146.301 62.18 146.31 62.0327 146.347 61.8578C146.383 61.7381 146.434 61.5679 146.498 61.347C146.572 61.1168 146.65 60.8683 146.733 60.6014C146.825 60.3345 146.917 60.0721 147.009 59.8144C147.111 59.5475 147.203 59.3128 147.285 59.1103C147.368 58.8986 147.442 58.7467 147.506 58.6547C147.562 58.581 147.621 58.535 147.686 58.5166C147.759 58.4982 147.833 58.5074 147.907 58.5442C147.98 58.5718 148.045 58.6316 148.1 58.7237C148.201 58.8526 148.243 58.963 148.224 59.055C148.206 59.1471 148.123 59.3266 147.976 59.5935C147.939 59.6948 147.893 59.8052 147.838 59.9249C147.782 60.0353 147.755 60.109 147.755 60.1458C147.746 60.1642 147.727 60.2286 147.7 60.3391C147.681 60.4403 147.658 60.537 147.631 60.629C147.603 60.7211 147.575 60.7671 147.548 60.7671C147.511 60.8039 147.47 60.9097 147.423 61.0846C147.377 61.2503 147.336 61.439 147.299 61.6507C147.262 61.8532 147.239 62.0327 147.23 62.1892C147.221 62.3364 147.235 62.4101 147.272 62.4101C147.557 62.4101 147.851 62.2996 148.155 62.0787C148.468 61.8578 148.781 61.5356 149.094 61.1122L149.329 62.0925C149.2 62.1569 149.08 62.226 148.97 62.2996C148.859 62.364 148.758 62.4423 148.666 62.5343C148.638 62.5711 148.574 62.6218 148.473 62.6862C148.372 62.7506 148.27 62.8105 148.169 62.8657C148.077 62.9117 148.017 62.9347 147.99 62.9347C147.99 62.9347 147.976 62.9393 147.948 62.9485C147.93 62.9485 147.921 62.9669 147.921 63.0037C147.921 63.0222 147.861 63.059 147.741 63.1142C147.621 63.1602 147.497 63.2016 147.368 63.2385C147.239 63.2753 147.152 63.2937 147.106 63.2937ZM152.253 63.7769C151.793 63.7769 151.457 63.6112 151.245 63.2799C151.181 63.1878 151.149 63.0958 151.149 63.0037C151.158 62.9025 151.186 62.8335 151.232 62.7966C151.287 62.7598 151.351 62.792 151.425 62.8933C151.554 62.9669 151.738 63.0037 151.977 63.0037C152.097 63.0037 152.221 62.9945 152.35 62.9761C152.479 62.9485 152.608 62.9117 152.737 62.8657C152.875 62.8013 152.967 62.746 153.013 62.7C153.059 62.6448 153.05 62.5988 152.985 62.5619H152.999C152.76 62.4975 152.516 62.3963 152.267 62.2582C152.028 62.1109 151.821 61.9544 151.646 61.7888C151.471 61.6139 151.37 61.4574 151.342 61.3193C151.268 61.034 151.287 60.7441 151.397 60.4495C151.508 60.1458 151.664 59.8788 151.867 59.6487C151.94 59.6027 152.032 59.5475 152.143 59.4831C152.253 59.4094 152.341 59.368 152.405 59.3588V59.3726C152.58 59.1885 152.792 59.0412 153.04 58.9308C153.298 58.8203 153.57 58.7191 153.855 58.627L154.062 58.5994C154.172 58.581 154.264 58.5718 154.338 58.5718C154.329 58.5718 154.347 58.581 154.393 58.5994C154.439 58.6086 154.481 58.6178 154.518 58.627C154.573 58.6547 154.619 58.6685 154.656 58.6685C154.775 58.6869 154.886 58.7421 154.987 58.8341C155.088 58.9262 155.167 59.0366 155.222 59.1655C155.286 59.2852 155.309 59.4002 155.291 59.5107C155.272 59.6856 155.217 59.842 155.125 59.9801C155.042 60.1182 154.941 60.1964 154.821 60.2148C154.84 60.2056 154.826 60.1918 154.78 60.1734C154.743 60.1458 154.702 60.1182 154.656 60.0905L154.614 60.1182C154.614 60.1182 154.61 60.109 154.6 60.0905C154.6 60.0629 154.591 60.0307 154.573 59.9939C154.545 59.9387 154.531 59.8788 154.531 59.8144C154.531 59.7408 154.536 59.6625 154.545 59.5797C154.564 59.4785 154.564 59.4186 154.545 59.4002C154.536 59.3818 154.476 59.368 154.366 59.3588C154.237 59.3312 154.048 59.3542 153.8 59.4278C153.56 59.5015 153.358 59.6027 153.192 59.7316C152.99 59.8604 152.819 59.9847 152.681 60.1044C152.543 60.2148 152.433 60.3253 152.35 60.4357C152.267 60.537 152.193 60.6566 152.129 60.7947C152.083 60.8591 152.042 60.9235 152.005 60.988C151.977 61.0432 151.963 61.0938 151.963 61.1399C151.963 61.2411 152.037 61.347 152.184 61.4574C152.341 61.5587 152.571 61.6783 152.875 61.8164C153.114 61.9176 153.316 62.0281 153.482 62.1477C153.648 62.2674 153.763 62.4055 153.827 62.5619C153.846 62.5988 153.85 62.6448 153.841 62.7C153.841 62.746 153.832 62.7782 153.813 62.7966C153.832 62.8151 153.841 62.8289 153.841 62.8381V62.8243C153.915 62.9347 153.915 63.0498 153.841 63.1694C153.777 63.2891 153.662 63.3949 153.496 63.487C153.339 63.5698 153.146 63.6343 152.916 63.6803H152.93C152.81 63.7171 152.691 63.7447 152.571 63.7631C152.46 63.7723 152.355 63.7769 152.253 63.7769ZM160.482 63.4456C160.289 63.4824 160.165 63.4962 160.109 63.487C160.063 63.4686 159.99 63.4133 159.889 63.3213C159.741 63.2477 159.617 63.1556 159.516 63.0452C159.424 62.9347 159.355 62.8197 159.309 62.7C159.272 62.5711 159.258 62.4653 159.267 62.3825C159.295 62.0603 159.373 61.7151 159.502 61.347C159.631 60.9788 159.787 60.6244 159.971 60.2838C160.155 59.9433 160.353 59.6533 160.565 59.414C160.786 59.1655 160.998 59.0044 161.2 58.9308C161.384 58.8572 161.559 58.8295 161.725 58.8479C161.89 58.8664 162.01 58.9538 162.084 59.1103C162.222 59.3772 162.19 59.5475 161.987 59.6211C161.96 59.6211 161.927 59.6349 161.89 59.6625C161.854 59.681 161.835 59.7086 161.835 59.7454C161.872 59.7638 161.973 59.7684 162.139 59.7592C162.305 59.7408 162.47 59.7132 162.636 59.6763C162.811 59.6303 162.926 59.5843 162.981 59.5383C163.036 59.5107 163.078 59.4969 163.105 59.4969C163.133 59.4969 163.202 59.5061 163.313 59.5245C163.469 59.5705 163.547 59.6257 163.547 59.6902C163.547 59.727 163.561 59.7638 163.589 59.8006C163.616 59.8282 163.649 59.842 163.685 59.842C163.75 59.8512 163.741 59.8927 163.658 59.9663C163.584 60.0399 163.455 60.1412 163.271 60.27C163.096 60.3805 162.986 60.4541 162.94 60.4909C162.903 60.5186 162.898 60.583 162.926 60.6842C163 60.8591 163.004 61.0616 162.94 61.2917C162.875 61.5218 162.76 61.7565 162.595 61.9959C162.429 62.2352 162.226 62.4607 161.987 62.6724C161.757 62.8749 161.508 63.0498 161.242 63.197C160.984 63.3351 160.731 63.4179 160.482 63.4456ZM160.247 62.8381C160.284 62.8381 160.349 62.8197 160.441 62.7828C160.533 62.7368 160.606 62.7 160.662 62.6724C160.698 62.6356 160.745 62.5942 160.8 62.5481C160.864 62.4929 160.915 62.4607 160.952 62.4515C160.988 62.4515 161.034 62.4377 161.09 62.4101C161.145 62.3732 161.223 62.3042 161.324 62.203C161.426 62.0925 161.559 61.9314 161.725 61.7197C161.909 61.5172 162.052 61.3331 162.153 61.1675C162.254 60.9926 162.282 60.8315 162.236 60.6842C162.226 60.6474 162.199 60.6244 162.153 60.6152C162.116 60.606 162.065 60.583 162.001 60.5462C161.909 60.5462 161.821 60.5232 161.739 60.4771C161.665 60.4219 161.578 60.3529 161.476 60.27L161.255 59.9939L161.021 60.2286C160.873 60.3759 160.717 60.5968 160.551 60.8913C160.395 61.1767 160.261 61.4712 160.151 61.775C160.04 62.0695 159.976 62.3042 159.958 62.4791C159.948 62.6172 159.971 62.7092 160.027 62.7552C160.082 62.8013 160.155 62.8289 160.247 62.8381ZM164.217 65.4337C164.162 65.4705 164.098 65.4613 164.024 65.4061C163.96 65.3509 163.863 65.2496 163.734 65.1024C163.67 65.0287 163.628 64.9505 163.61 64.8676C163.592 64.7848 163.596 64.6283 163.624 64.3982C163.661 64.297 163.679 64.2003 163.679 64.1083C163.688 64.0162 163.693 63.9518 163.693 63.915C163.693 63.8598 163.707 63.7309 163.734 63.5284C163.771 63.3259 163.808 63.1142 163.845 62.8933C163.881 62.6632 163.914 62.4883 163.941 62.3686C163.941 62.3594 163.946 62.3364 163.955 62.2996C163.964 62.2628 163.974 62.2306 163.983 62.203C164.001 62.1201 164.024 62.0097 164.052 61.8716C164.089 61.7335 164.121 61.5633 164.148 61.3608C164.222 61.1306 164.282 60.9051 164.328 60.6842C164.383 60.4541 164.411 60.2976 164.411 60.2148C164.411 60.0491 164.475 59.9295 164.604 59.8558C164.613 59.8098 164.641 59.7408 164.687 59.6487C164.733 59.5475 164.774 59.4646 164.811 59.4002C164.995 58.8756 165.147 58.4614 165.267 58.1576C165.386 57.8447 165.511 57.5731 165.64 57.343C165.695 57.1865 165.755 57.0255 165.819 56.8598C165.893 56.6941 165.966 56.5653 166.04 56.4732C166.086 56.3535 166.192 56.2017 166.357 56.0176C166.523 55.8243 166.698 55.6402 166.882 55.4653C167.066 55.2812 167.213 55.1432 167.324 55.0511C167.526 54.9499 167.687 54.8808 167.807 54.844C167.927 54.8072 168.083 54.7888 168.277 54.7888C168.451 54.7888 168.567 54.8118 168.622 54.8578C168.686 54.8946 168.778 54.9683 168.898 55.0787C169.027 55.2168 169.1 55.3088 169.119 55.3549C169.137 55.4009 169.146 55.4883 169.146 55.6172C169.128 55.7369 169.077 55.8933 168.995 56.0866C168.921 56.2707 168.838 56.441 168.746 56.5975C168.663 56.7447 168.594 56.823 168.539 56.8322C168.428 56.869 168.346 56.8598 168.29 56.8046C168.244 56.7401 168.221 56.6389 168.221 56.5008C168.221 56.4364 168.203 56.3766 168.166 56.3213C168.139 56.2569 168.125 56.2247 168.125 56.2247C168.125 56.1971 168.129 56.1511 168.139 56.0866C168.157 56.013 168.185 55.944 168.221 55.8795C168.267 55.7875 168.277 55.7184 168.249 55.6724C168.231 55.6264 168.171 55.6172 168.069 55.6448C168.042 55.6632 167.968 55.7184 167.849 55.8105C167.729 55.9025 167.6 56.0084 167.462 56.128C167.333 56.2385 167.218 56.3443 167.117 56.4456C167.016 56.5468 166.965 56.6113 166.965 56.6389C166.965 56.6389 166.947 56.6803 166.91 56.7631C166.873 56.8368 166.804 56.9334 166.703 57.0531C166.638 57.1451 166.578 57.2372 166.523 57.3292C166.477 57.4121 166.454 57.4627 166.454 57.4811C166.454 57.5179 166.45 57.5593 166.44 57.6054C166.44 57.6422 166.417 57.6606 166.371 57.6606C166.371 57.6606 166.357 57.702 166.33 57.7848C166.302 57.8677 166.252 57.9735 166.178 58.1024C166.141 58.1944 166.095 58.2911 166.04 58.3923C165.985 58.4844 165.939 58.5488 165.902 58.5856H165.916C165.916 58.5856 165.893 58.6455 165.847 58.7651C165.81 58.8756 165.768 58.9952 165.722 59.1241C165.676 59.2437 165.653 59.3128 165.653 59.3312C165.653 59.368 165.718 59.3864 165.847 59.3864C165.985 59.3864 166.146 59.3726 166.33 59.345C166.514 59.3082 166.68 59.2714 166.827 59.2345C166.956 59.1977 167.043 59.1793 167.089 59.1793C167.135 59.1793 167.227 59.1977 167.365 59.2345C167.439 59.2806 167.499 59.3496 167.545 59.4416C167.6 59.5245 167.637 59.6073 167.655 59.6902C167.683 59.7638 167.683 59.819 167.655 59.8558C167.646 59.8927 167.545 59.9433 167.352 60.0077C167.158 60.0721 166.965 60.1228 166.772 60.1596C166.606 60.1964 166.403 60.2378 166.164 60.2838C165.925 60.3299 165.713 60.3713 165.529 60.4081C165.354 60.4449 165.267 60.4771 165.267 60.5047C165.23 60.5047 165.198 60.5278 165.17 60.5738C165.142 60.6106 165.129 60.6428 165.129 60.6704C165.129 60.7993 165.11 60.8959 165.073 60.9604C165.055 61.0156 165.023 61.126 164.977 61.2917C164.931 61.4574 164.88 61.6415 164.825 61.844C164.779 62.0465 164.737 62.2306 164.701 62.3963C164.673 62.5619 164.659 62.6724 164.659 62.7276C164.604 62.792 164.572 62.8749 164.563 62.9761C164.553 63.0682 164.549 63.151 164.549 63.2247C164.512 63.2983 164.489 63.3673 164.48 63.4318C164.471 63.487 164.466 63.533 164.466 63.5698C164.466 63.579 164.466 63.5974 164.466 63.625C164.466 63.6527 164.461 63.6803 164.452 63.7079C164.443 63.7999 164.429 63.9196 164.411 64.0669C164.402 64.2233 164.397 64.3752 164.397 64.5225L164.355 64.9229C164.346 65.0425 164.332 65.1438 164.314 65.2266C164.296 65.3187 164.263 65.3877 164.217 65.4337ZM172.104 63.5422C172.076 63.5514 172.03 63.5468 171.966 63.5284C171.901 63.51 171.837 63.487 171.772 63.4594C171.708 63.4318 171.667 63.4087 171.648 63.3903C171.611 63.3535 171.575 63.2983 171.538 63.2247C171.51 63.151 171.51 63.0452 171.538 62.9071C171.565 62.7598 171.657 62.5711 171.814 62.341C171.86 62.249 171.915 62.1109 171.98 61.9268C172.044 61.7427 172.108 61.5494 172.173 61.347C172.246 61.1353 172.311 60.9466 172.366 60.7809C172.431 60.6152 172.477 60.5001 172.504 60.4357C172.523 60.2792 172.513 60.1688 172.477 60.1044C172.449 60.0307 172.371 59.9893 172.242 59.9801C172.15 59.9801 172.076 59.9709 172.021 59.9525C171.975 59.9341 171.952 59.842 171.952 59.6763C171.97 59.5475 172.003 59.46 172.049 59.414C172.104 59.3588 172.177 59.299 172.27 59.2345C172.362 59.1885 172.454 59.1563 172.546 59.1379C172.647 59.1195 172.744 59.1149 172.836 59.1241C172.928 59.1333 173.001 59.1655 173.056 59.2207C173.121 59.2575 173.162 59.3404 173.181 59.4692C173.199 59.5889 173.208 59.7132 173.208 59.842C173.218 59.9709 173.227 60.0675 173.236 60.132C173.328 60.0583 173.452 59.9571 173.609 59.8282C173.774 59.6902 173.917 59.5613 174.037 59.4416C174.184 59.3404 174.359 59.2391 174.561 59.1379C174.764 59.0274 174.911 58.9722 175.003 58.9722C175.104 58.9722 175.206 58.9998 175.307 59.055C175.408 59.1011 175.477 59.1609 175.514 59.2345C175.606 59.391 175.648 59.5291 175.638 59.6487C175.638 59.7684 175.588 59.8927 175.486 60.0215C175.394 60.1412 175.279 60.224 175.141 60.27C175.012 60.3161 174.93 60.3391 174.893 60.3391C174.838 60.3391 174.769 60.2976 174.686 60.2148C174.603 60.132 174.557 60.0629 174.548 60.0077C174.548 59.9801 174.488 60.0077 174.368 60.0905C174.258 60.1642 174.133 60.2608 173.995 60.3805C173.857 60.4909 173.742 60.5922 173.65 60.6842C173.494 60.8775 173.328 61.1399 173.153 61.4712C172.978 61.8026 172.771 62.203 172.532 62.6724C172.421 62.9025 172.343 63.1004 172.297 63.2661C172.251 63.4226 172.187 63.5146 172.104 63.5422ZM177.203 63.6389C176.844 63.4916 176.61 63.2891 176.499 63.0314C176.398 62.7644 176.38 62.3548 176.444 61.8026C176.462 61.5172 176.472 61.3285 176.472 61.2365C176.472 61.1445 176.421 61.0524 176.32 60.9604C176.292 60.9235 176.241 60.8729 176.168 60.8085C176.103 60.7441 176.076 60.6888 176.085 60.6428C176.076 60.5784 176.08 60.5093 176.099 60.4357C176.117 60.3529 176.145 60.3115 176.182 60.3115C176.218 60.3115 176.255 60.3022 176.292 60.2838C176.338 60.2654 176.38 60.2654 176.416 60.2838C176.453 60.2838 176.495 60.2884 176.541 60.2976C176.587 60.3069 176.61 60.3299 176.61 60.3667C176.646 60.4311 176.706 60.4403 176.789 60.3943C176.872 60.3391 176.959 60.2194 177.051 60.0353C177.144 59.888 177.263 59.7408 177.41 59.5935C177.567 59.4462 177.719 59.3128 177.866 59.1931C178.023 59.0643 178.151 58.9722 178.253 58.917C178.299 58.8986 178.368 58.8756 178.46 58.8479C178.552 58.8203 178.648 58.7973 178.75 58.7789C178.86 58.7605 178.952 58.7559 179.026 58.7651C179.191 58.7743 179.33 58.8203 179.44 58.9032C179.56 58.986 179.67 59.0827 179.771 59.1931C179.891 59.276 179.965 59.3864 179.992 59.5245C180.029 59.6625 180.038 59.8098 180.02 59.9663C180.001 60.1228 179.96 60.2654 179.896 60.3943C179.868 60.4863 179.79 60.5968 179.661 60.7257C179.532 60.8545 179.385 60.9788 179.219 61.0984C179.053 61.2181 178.902 61.3055 178.763 61.3608C178.644 61.3884 178.487 61.4114 178.294 61.4298C178.11 61.4482 177.935 61.4574 177.769 61.4574C177.613 61.4482 177.507 61.4298 177.452 61.4022C177.387 61.3654 177.337 61.416 177.3 61.5541C177.263 61.6921 177.236 61.89 177.217 62.1477C177.199 62.3502 177.199 62.4975 177.217 62.5896C177.236 62.6816 177.254 62.746 177.272 62.7828C177.337 62.8473 177.424 62.9301 177.535 63.0314C177.654 63.1234 177.82 63.1372 178.032 63.0728C178.207 63.0268 178.377 62.9071 178.543 62.7138C178.717 62.5205 178.879 62.364 179.026 62.2444C179.063 62.18 179.122 62.1431 179.205 62.1339C179.297 62.1155 179.394 62.1201 179.495 62.1477C179.596 62.2122 179.638 62.2904 179.619 62.3825C179.61 62.4653 179.564 62.5942 179.481 62.769C179.454 62.8335 179.389 62.9163 179.288 63.0176C179.196 63.1096 179.09 63.2062 178.971 63.3075C178.86 63.3995 178.759 63.4732 178.667 63.5284C178.391 63.6757 178.133 63.7539 177.894 63.7631C177.654 63.7631 177.424 63.7217 177.203 63.6389ZM178.018 60.8361C178.22 60.7901 178.382 60.7579 178.501 60.7395C178.621 60.7211 178.736 60.6704 178.846 60.5876C178.957 60.4955 179.095 60.3253 179.261 60.0767C179.297 59.9755 179.307 59.8742 179.288 59.773C179.279 59.6717 179.256 59.6027 179.219 59.5659C179.136 59.4739 179.035 59.4462 178.915 59.4831C178.805 59.5107 178.699 59.5613 178.598 59.6349C178.533 59.6625 178.437 59.7316 178.308 59.842C178.188 59.9433 178.069 60.0629 177.949 60.201C177.829 60.3299 177.733 60.4495 177.659 60.56C177.585 60.6704 177.567 60.7349 177.604 60.7533C177.585 60.7901 177.636 60.8131 177.756 60.8223C177.884 60.8315 177.972 60.8361 178.018 60.8361ZM182.715 63.6112C182.595 63.6665 182.457 63.6895 182.301 63.6803C182.144 63.6711 181.933 63.6204 181.666 63.5284C181.647 63.5284 181.606 63.51 181.541 63.4732C181.486 63.4364 181.426 63.3903 181.362 63.3351C181.307 63.2707 181.261 63.2016 181.224 63.128C181.076 62.9163 181.017 62.6034 181.044 62.1892C181.072 61.775 181.201 61.2779 181.431 60.698C181.495 60.56 181.592 60.3851 181.721 60.1734C181.859 59.9617 181.992 59.7684 182.121 59.5935C182.259 59.4094 182.356 59.3036 182.411 59.276C182.411 59.276 182.462 59.2575 182.563 59.2207C182.664 59.1839 182.793 59.1241 182.95 59.0412C182.996 59.0228 183.046 59.0044 183.101 58.986C183.166 58.9676 183.23 58.9538 183.295 58.9446C183.359 58.9354 183.414 58.9354 183.46 58.9446C183.645 58.9538 183.833 59.0228 184.027 59.1517C184.229 59.2714 184.395 59.414 184.524 59.5797C184.652 59.7362 184.694 59.8742 184.648 59.9939C184.648 60.0123 184.62 60.0491 184.565 60.1044C184.519 60.1504 184.464 60.201 184.399 60.2562C184.344 60.3022 184.298 60.3483 184.261 60.3943C184.215 60.4495 184.151 60.4725 184.068 60.4633C183.994 60.4541 183.925 60.4173 183.861 60.3529C183.806 60.2792 183.773 60.1872 183.764 60.0767C183.746 60.0031 183.677 59.9341 183.557 59.8696C183.447 59.8052 183.391 59.773 183.391 59.773C183.318 59.773 183.212 59.842 183.074 59.9801C182.945 60.109 182.816 60.2654 182.687 60.4495C182.522 60.6152 182.379 60.8131 182.259 61.0432C182.14 61.2641 182.043 61.4758 181.969 61.6783C181.905 61.8716 181.859 62.0097 181.831 62.0925C181.794 62.1846 181.79 62.3134 181.817 62.4791C181.845 62.6448 181.877 62.746 181.914 62.7828C181.951 62.8013 182.043 62.8059 182.19 62.7966C182.347 62.7874 182.531 62.769 182.742 62.7414C182.954 62.7046 183.161 62.6632 183.364 62.6172C183.566 62.5711 183.732 62.5205 183.861 62.4653C184.036 62.3548 184.188 62.2904 184.316 62.272C184.445 62.2536 184.542 62.2536 184.606 62.272C184.708 62.3088 184.767 62.3594 184.786 62.4239C184.804 62.4883 184.781 62.5619 184.717 62.6448C184.652 62.7184 184.542 62.7966 184.385 62.8795C184.238 62.9531 184.105 63.036 183.985 63.128C183.875 63.2108 183.819 63.2753 183.819 63.3213C183.783 63.3213 183.741 63.3351 183.695 63.3627C183.658 63.3811 183.626 63.3857 183.599 63.3765C183.58 63.3765 183.506 63.3903 183.378 63.4179C183.249 63.4456 183.115 63.4778 182.977 63.5146C182.848 63.5514 182.761 63.5836 182.715 63.6112ZM186.029 63.5284C185.955 63.4548 185.9 63.3627 185.863 63.2523C185.836 63.1418 185.827 63.0314 185.836 62.9209C185.845 62.8105 185.868 62.7184 185.905 62.6448C185.905 62.5711 185.914 62.5159 185.932 62.4791C185.96 62.4331 185.969 62.3917 185.96 62.3548C185.951 62.318 185.96 62.2536 185.988 62.1615C186.015 62.0695 186.043 61.9821 186.071 61.8992C186.135 61.7519 186.204 61.5771 186.278 61.3746C186.351 61.1629 186.42 60.9558 186.485 60.7533C186.549 60.5508 186.604 60.3759 186.65 60.2286C186.696 60.0813 186.724 59.9893 186.733 59.9525C186.733 59.842 186.807 59.7822 186.954 59.773C187.065 59.7362 187.147 59.7362 187.203 59.773C187.258 59.8006 187.332 59.888 187.424 60.0353C187.497 60.109 187.525 60.2194 187.506 60.3667C187.488 60.514 187.428 60.698 187.327 60.9189C187.29 60.9926 187.244 61.0984 187.189 61.2365C187.143 61.3746 187.111 61.4988 187.092 61.6093C187.055 61.6829 187.009 61.7888 186.954 61.9268C186.908 62.0557 186.867 62.18 186.83 62.2996C186.812 62.3456 186.793 62.4147 186.775 62.5067C186.756 62.5896 186.733 62.6816 186.706 62.7828C186.678 62.8749 186.641 62.9577 186.595 63.0314C186.512 63.4087 186.434 63.6297 186.36 63.6941C186.296 63.7585 186.186 63.7033 186.029 63.5284ZM187.368 57.9229C187.322 57.8769 187.281 57.8125 187.244 57.7296C187.207 57.6376 187.184 57.5547 187.175 57.4811C187.166 57.3983 187.175 57.3568 187.203 57.3568C187.276 57.3476 187.364 57.2694 187.465 57.1221C187.566 56.9748 187.608 56.846 187.589 56.7355C187.589 56.6987 187.603 56.6665 187.631 56.6389C187.658 56.6021 187.691 56.5791 187.727 56.5699C187.838 56.4962 187.944 56.487 188.045 56.5422C188.155 56.5883 188.257 56.6849 188.349 56.8322C188.431 57.0071 188.454 57.1543 188.418 57.274C188.381 57.3844 188.28 57.5409 188.114 57.7434C187.976 57.9275 187.847 58.0288 187.727 58.0472C187.617 58.0656 187.497 58.0242 187.368 57.9229ZM187.914 67.0629C187.877 67.0629 187.831 67.0629 187.776 67.0629C187.721 67.0721 187.67 67.0353 187.624 66.9525C187.587 66.9064 187.564 66.8374 187.555 66.7454C187.555 66.6533 187.578 66.4876 187.624 66.2483C187.67 66.0918 187.707 65.9354 187.735 65.7789C187.762 65.6316 187.776 65.5212 187.776 65.4475C187.776 65.4107 187.785 65.3371 187.804 65.2266C187.831 65.1254 187.845 65.0517 187.845 65.0057C187.891 64.9321 187.928 64.8308 187.955 64.702C187.983 64.5731 187.997 64.458 187.997 64.3568C187.997 64.2463 188.052 64.1451 188.163 64.0531C188.163 63.9794 188.176 63.8874 188.204 63.7769C188.241 63.6665 188.259 63.5928 188.259 63.556C188.287 63.4272 188.347 63.2016 188.439 62.8795C188.54 62.5481 188.66 62.1754 188.798 61.7612C188.945 61.347 189.088 60.942 189.226 60.5462C189.364 60.1504 189.488 59.8144 189.598 59.5383C189.709 59.2806 189.783 59.0597 189.819 58.8756C189.865 58.6823 189.888 58.5396 189.888 58.4476C189.888 58.4107 189.898 58.3831 189.916 58.3647C189.934 58.3371 189.976 58.2865 190.04 58.2128C190.132 58.1208 190.211 58.0932 190.275 58.13C190.349 58.1668 190.436 58.222 190.537 58.2957C190.611 58.4153 190.662 58.5166 190.689 58.5994C190.726 58.6823 190.726 58.8249 190.689 59.0274C190.689 59.1655 190.666 59.2852 190.62 59.3864C190.574 59.4877 190.533 59.5659 190.496 59.6211C190.459 59.6671 190.45 59.6856 190.468 59.6763C190.846 59.5015 191.177 59.4094 191.462 59.4002C191.757 59.3818 192.001 59.4324 192.194 59.5521C192.397 59.6625 192.548 59.819 192.65 60.0215C192.751 60.224 192.802 60.4587 192.802 60.7257C192.802 60.8361 192.779 60.9696 192.733 61.126C192.687 61.2733 192.627 61.4114 192.553 61.5402C192.489 61.6599 192.429 61.7473 192.374 61.8026C192.337 61.8026 192.3 61.8348 192.263 61.8992C192.226 61.9544 192.19 62.0189 192.153 62.0925C192.079 62.1846 191.959 62.2904 191.794 62.4101C191.637 62.5205 191.481 62.6126 191.324 62.6862C191.168 62.7506 191.053 62.769 190.979 62.7414C190.979 62.7414 190.965 62.746 190.938 62.7552C190.919 62.7552 190.91 62.7782 190.91 62.8243C190.91 62.8427 190.836 62.8841 190.689 62.9485C190.542 63.0037 190.372 63.059 190.178 63.1142C189.985 63.1602 189.815 63.1832 189.668 63.1832C189.474 63.1832 189.336 63.1464 189.253 63.0728C189.235 63.0912 189.212 63.1188 189.184 63.1556C189.166 63.1924 189.157 63.2247 189.157 63.2523C189.157 63.3075 189.134 63.4133 189.088 63.5698C189.051 63.7171 189.005 63.8598 188.95 63.9978C188.894 64.1359 188.844 64.2049 188.798 64.2049C188.798 64.2049 188.788 64.2187 188.77 64.2463C188.752 64.274 188.761 64.3108 188.798 64.3568C188.798 64.3568 188.793 64.4074 188.784 64.5087C188.784 64.6191 188.761 64.7112 188.715 64.7848C188.715 64.8584 188.701 64.9689 188.673 65.1162C188.646 65.2634 188.614 65.3739 188.577 65.4475C188.577 65.558 188.558 65.6638 188.522 65.7651C188.494 65.8755 188.462 65.9308 188.425 65.9308C188.388 65.94 188.365 65.9952 188.356 66.0964C188.347 66.2069 188.342 66.2851 188.342 66.3312C188.333 66.5613 188.287 66.7407 188.204 66.8696C188.121 66.9985 188.025 67.0629 187.914 67.0629ZM189.585 62.4515C189.658 62.4515 189.81 62.4193 190.04 62.3548C190.27 62.2904 190.505 62.2122 190.744 62.1201C190.993 62.0189 191.177 61.9176 191.297 61.8164C191.536 61.6047 191.72 61.3654 191.849 61.0984C191.987 60.8223 191.978 60.56 191.821 60.3115C191.748 60.1826 191.614 60.132 191.421 60.1596C191.228 60.178 191.016 60.2516 190.786 60.3805C190.556 60.5093 190.339 60.6704 190.137 60.8637C190.026 60.9834 189.925 61.1306 189.833 61.3055C189.741 61.4804 189.663 61.6553 189.598 61.8302C189.543 62.0051 189.511 62.1523 189.502 62.272C189.493 62.3917 189.52 62.4515 189.585 62.4515ZM194.996 64.0116C194.591 64.0116 194.26 63.8598 194.002 63.556C193.744 63.2431 193.62 62.8565 193.629 62.3963C193.647 62.0649 193.712 61.7105 193.822 61.3331C193.942 60.9466 194.098 60.5784 194.292 60.2286C194.485 59.8696 194.697 59.5567 194.927 59.2898C195.157 59.0228 195.396 58.8341 195.645 58.7237C195.737 58.6777 195.834 58.6408 195.935 58.6132C196.045 58.5856 196.156 58.5718 196.266 58.5718C196.367 58.5718 196.473 58.5902 196.584 58.627C196.694 58.6547 196.786 58.6869 196.86 58.7237C197.016 58.7881 197.136 58.8664 197.219 58.9584C197.302 59.0504 197.375 59.1931 197.44 59.3864C197.467 59.5613 197.481 59.6856 197.481 59.7592C197.481 59.8328 197.458 59.9433 197.412 60.0905C197.302 60.4219 197.159 60.7072 196.984 60.9466C196.809 61.1859 196.574 61.3884 196.28 61.5541C196.206 61.6001 196.119 61.6369 196.018 61.6645C195.926 61.6829 195.829 61.6921 195.728 61.6921C195.544 61.6921 195.364 61.6599 195.189 61.5955C195.024 61.5218 194.89 61.416 194.789 61.2779L194.692 61.1675L194.651 61.2779C194.559 61.5264 194.485 61.7565 194.43 61.9683C194.384 62.18 194.361 62.3732 194.361 62.5481C194.361 62.6586 194.37 62.7644 194.388 62.8657C194.416 62.9669 194.453 63.0544 194.499 63.128C194.536 63.1832 194.596 63.2247 194.678 63.2523C194.77 63.2707 194.867 63.2799 194.968 63.2799C195.033 63.2799 195.097 63.2799 195.162 63.2799C195.235 63.2707 195.304 63.2523 195.369 63.2247C195.525 63.1694 195.649 63.1096 195.741 63.0452C195.843 62.9807 195.944 62.9117 196.045 62.8381L196.1 62.8105H196.087C196.197 62.7552 196.294 62.7 196.377 62.6448C196.469 62.5896 196.515 62.5619 196.515 62.5619C196.551 62.5619 196.588 62.5389 196.625 62.4929C196.699 62.4561 196.791 62.4699 196.901 62.5343C197.021 62.5988 197.081 62.6816 197.081 62.7828C197.071 62.8289 197.03 62.9025 196.956 63.0037C196.883 63.0958 196.8 63.1832 196.708 63.2661C196.625 63.3489 196.556 63.3949 196.501 63.4041C196.492 63.4133 196.459 63.4318 196.404 63.4594C196.349 63.4778 196.312 63.4962 196.294 63.5146H196.308C196.225 63.625 196.142 63.6803 196.059 63.6803H195.949C195.912 63.7447 195.792 63.8183 195.59 63.9012C195.387 63.9748 195.189 64.0116 194.996 64.0116ZM195.617 60.9742C195.783 60.9742 195.926 60.9282 196.045 60.8361C196.174 60.7349 196.285 60.6244 196.377 60.5047C196.561 60.2562 196.667 60.0169 196.694 59.7868C196.731 59.5475 196.703 59.3818 196.611 59.2898C196.556 59.2621 196.505 59.2483 196.459 59.2483C196.423 59.2391 196.344 59.2529 196.225 59.2898C196.142 59.3082 196.027 59.3772 195.88 59.4969C195.732 59.6165 195.585 59.75 195.438 59.8973C195.3 60.0445 195.194 60.1688 195.12 60.27L194.941 60.56C195.014 60.5324 195.083 60.5186 195.148 60.5186C195.221 60.5093 195.263 60.514 195.272 60.5324C195.272 60.6152 195.286 60.6934 195.313 60.7671C195.35 60.8315 195.392 60.8821 195.438 60.9189C195.493 60.9558 195.553 60.9742 195.617 60.9742ZM199.472 63.846C199.242 63.8644 199.021 63.8506 198.809 63.8045C198.607 63.7585 198.432 63.6803 198.285 63.5698C198.147 63.4502 198.05 63.3075 197.995 63.1418C197.93 63.013 197.898 62.9255 197.898 62.8795C197.898 62.8243 197.93 62.7782 197.995 62.7414C198.068 62.7414 198.133 62.7644 198.188 62.8105C198.252 62.8473 198.335 62.8887 198.436 62.9347C198.575 63.0544 198.74 63.1188 198.933 63.128C199.136 63.1372 199.32 63.105 199.486 63.0314C199.651 62.9577 199.743 62.8657 199.762 62.7552C199.762 62.7184 199.748 62.654 199.72 62.5619C199.693 62.4699 199.661 62.3732 199.624 62.272C199.375 61.9222 199.191 61.5771 199.072 61.2365C198.961 60.8867 198.906 60.6014 198.906 60.3805C198.906 60.2148 198.956 60.0399 199.058 59.8558C199.159 59.6625 199.297 59.5015 199.472 59.3726C199.638 59.1977 199.822 59.0412 200.024 58.9032C200.227 58.7651 200.429 58.6455 200.632 58.5442C200.843 58.443 201.032 58.3693 201.198 58.3233C201.299 58.3233 201.432 58.3371 201.598 58.3647C201.764 58.3923 201.879 58.4245 201.943 58.4614C202.045 58.4982 202.141 58.5994 202.233 58.7651C202.325 58.9216 202.371 59.0781 202.371 59.2345C202.371 59.299 202.353 59.3818 202.316 59.4831C202.279 59.5843 202.219 59.704 202.137 59.842C202.1 59.9433 202.058 60.0399 202.012 60.132C201.966 60.2148 201.943 60.2746 201.943 60.3115C201.897 60.4127 201.833 60.4633 201.75 60.4633C201.676 60.4541 201.598 60.4127 201.515 60.3391C201.442 60.2562 201.382 60.1596 201.336 60.0491C201.299 59.9111 201.285 59.8006 201.294 59.7178C201.304 59.6257 201.34 59.5291 201.405 59.4278C201.506 59.3266 201.557 59.2575 201.557 59.2207C201.557 59.1839 201.506 59.1655 201.405 59.1655C201.34 59.1655 201.221 59.2069 201.046 59.2898C200.88 59.3634 200.701 59.4646 200.507 59.5935C200.323 59.7132 200.162 59.842 200.024 59.9801C199.849 60.1458 199.743 60.2654 199.707 60.3391C199.679 60.4127 199.665 60.5278 199.665 60.6842C199.665 60.8131 199.693 60.9742 199.748 61.1675C199.813 61.3608 199.877 61.4896 199.941 61.5541C199.941 61.5541 199.974 61.6185 200.038 61.7473C200.102 61.867 200.181 61.9959 200.273 62.1339C200.54 62.723 200.609 63.1464 200.48 63.4041C200.351 63.6619 200.015 63.8091 199.472 63.846Z" fill="white"/>
<mask id="path-5-inside-2_92_734" fill="white">
<path d="M205.949 58.1064H221.29V61.1746H205.949V58.1064Z"/>
</mask>
<path d="M205.949 58.8735H221.29V57.3394H205.949V58.8735ZM221.29 60.4076H205.949V61.9416H221.29V60.4076Z" fill="white" mask="url(#path-5-inside-2_92_734)"/>
</svg>
