<svg width="363" height="79" viewBox="0 0 363 79" fill="none" xmlns="http://www.w3.org/2000/svg">
<path d="M37.4051 40.1871C37.4051 41.9293 36.9785 43.547 36.1252 45.0402C35.2719 46.5335 34.1342 47.7423 32.712 48.6667C31.2898 49.5556 29.7077 50 27.9656 50H10.4197V12.1351H27.1656C28.9433 12.1351 30.4721 12.6151 31.752 13.5751C33.0675 14.4995 34.063 15.7083 34.7386 17.2016C35.4497 18.6593 35.8052 20.1881 35.8052 21.788C35.8052 23.7079 35.3074 25.4678 34.3119 27.0678C33.352 28.6677 32.0365 29.841 30.3654 30.5876C32.5342 31.2276 34.2408 32.4542 35.4852 34.2674C36.7651 36.0451 37.4051 38.0183 37.4051 40.1871ZM36.3385 40.1871C36.3385 38.6583 35.983 37.2362 35.2719 35.9207C34.5964 34.6052 33.6542 33.5386 32.4453 32.7208C31.2365 31.8675 29.8677 31.4409 28.3389 31.4409H11.4863V48.9334H27.9656C29.5299 48.9334 30.9343 48.5067 32.1787 47.6534C33.4586 46.8002 34.4719 45.7158 35.2185 44.4003C35.9652 43.0492 36.3385 41.6448 36.3385 40.1871ZM11.4863 13.2018V30.3743H26.8456C28.41 30.3743 29.7788 29.9476 30.9521 29.0943C32.1254 28.241 33.0498 27.1566 33.7253 25.8412C34.4008 24.5257 34.7386 23.1746 34.7386 21.788C34.7386 20.2592 34.4186 18.8548 33.7786 17.5749C33.1386 16.2594 32.2498 15.2105 31.1121 14.4284C29.9744 13.6106 28.6589 13.2018 27.1656 13.2018H11.4863ZM65.686 12.1351H66.6459L83.1251 50H81.9519L76.0322 36.454H56.2464L50.3267 50H49.1534L65.686 12.1351ZM75.5522 35.3874L66.166 13.6817L56.6731 35.3874H75.5522ZM98.2975 50V12.1351H99.3641V36.7206L123.47 12.1351H125.016L108.857 28.6677L125.763 50H124.376L108.057 29.4143L99.3641 38.2139V50H98.2975ZM165.162 48.9334V50H140.309V12.1351H164.682V13.2018H141.376V30.1076H161.802V31.1742H141.376V48.9334H165.162ZM194.326 12.1351H195.286L211.765 50H210.592L204.672 36.454H184.886L178.966 50H177.793L194.326 12.1351ZM204.192 35.3874L194.806 13.6817L185.313 35.3874H204.192ZM228.004 14.215V50H226.937V12.1351H227.737L256.696 48.4534V12.1351H257.762V50H256.536L228.004 14.215ZM278.297 14.215V50H277.23V12.1351H278.03L306.988 48.4534V12.1351H308.055V50H306.829L278.297 14.215ZM339.735 12.1351H340.695L357.175 50H356.001L350.082 36.454H330.296L324.376 50H323.203L339.735 12.1351ZM349.602 35.3874L340.215 13.6817L330.722 35.3874H349.602Z" fill="black"/>
<mask id="path-2-inside-1_10_823" fill="white">
<path d="M106.219 67.3338H123.996V70.8892H106.219V67.3338Z"/>
</mask>
<path d="M106.219 68.2227H123.996V66.445H106.219V68.2227ZM123.996 70.0004H106.219V71.7781H123.996V70.0004Z" fill="#C4C4C4" mask="url(#path-2-inside-1_10_823)"/>
<path d="M133.396 73.9671C133.129 73.9671 132.868 73.9404 132.612 73.8871C132.366 73.8231 132.169 73.7431 132.02 73.6471C131.87 73.5404 131.801 73.4231 131.812 73.2951C131.822 73.1244 131.86 73.0338 131.924 73.0231C131.988 73.0018 132.137 73.0071 132.372 73.0391C132.734 73.1138 133.124 73.1191 133.54 73.0551C133.956 72.9911 134.345 72.8791 134.707 72.7191C135.07 72.5591 135.353 72.3778 135.555 72.1752C135.843 71.8978 135.971 71.6205 135.939 71.3432C135.918 71.0659 135.753 70.8259 135.443 70.6232C135.305 70.5272 135.113 70.4366 134.867 70.3512C134.622 70.2659 134.377 70.2019 134.131 70.1592C133.897 70.1059 133.705 70.0846 133.556 70.0952C133.46 70.1059 133.38 70.1059 133.316 70.0952C133.262 70.0846 133.166 70.0419 133.028 69.9673C132.964 69.8926 132.905 69.8126 132.852 69.7273C132.798 69.6313 132.761 69.5619 132.74 69.5193C132.729 69.4659 132.756 69.4126 132.82 69.3593C132.894 69.306 133.049 69.2153 133.284 69.0873C133.518 68.9486 133.881 68.746 134.371 68.4793C134.819 68.234 135.171 68.0367 135.427 67.8874C135.694 67.7274 135.902 67.5994 136.051 67.5034C136.211 67.3967 136.339 67.3007 136.435 67.2154C136.627 66.9594 136.723 66.7941 136.723 66.7194C136.723 66.6447 136.585 66.5808 136.307 66.5274C136.041 66.5061 135.785 66.4901 135.539 66.4794C135.294 66.4688 135.171 66.4848 135.171 66.5274C135.171 66.5274 135.166 66.5274 135.155 66.5274C135.155 66.5274 135.139 66.5274 135.107 66.5274C135.054 66.5061 134.937 66.5114 134.755 66.5434C134.574 66.5754 134.398 66.6127 134.227 66.6554C134.067 66.6981 133.982 66.7354 133.972 66.7674C133.961 66.7887 133.897 66.8261 133.78 66.8794C133.673 66.9221 133.561 66.9594 133.444 66.9914C133.337 67.0234 133.268 67.0394 133.236 67.0394C133.182 67.0181 133.118 66.9647 133.044 66.8794C132.98 66.7834 132.926 66.6874 132.884 66.5914C132.841 66.4848 132.83 66.4048 132.852 66.3514C132.873 66.3088 132.937 66.2554 133.044 66.1914C133.161 66.1168 133.294 66.0421 133.444 65.9674C133.593 65.8821 133.726 65.8128 133.844 65.7595C133.993 65.7168 134.201 65.6848 134.467 65.6635C134.745 65.6421 135.022 65.6315 135.299 65.6315C135.577 65.6208 135.779 65.6208 135.907 65.6315C136.398 65.6848 136.777 65.8128 137.043 66.0154C137.31 66.2181 137.475 66.4901 137.539 66.8314C137.571 66.9807 137.582 67.1034 137.571 67.1994C137.561 67.2954 137.513 67.3967 137.427 67.5034C137.342 67.5994 137.193 67.7434 136.979 67.9354C136.713 68.106 136.494 68.25 136.323 68.3673C136.153 68.4847 135.897 68.634 135.555 68.8153C135.481 68.8686 135.379 68.938 135.251 69.0233C135.123 69.1086 135.006 69.1886 134.899 69.2633C134.793 69.3273 134.739 69.37 134.739 69.3913C134.739 69.3913 134.761 69.4073 134.803 69.4393C134.846 69.4606 134.899 69.4926 134.963 69.5353C135.027 69.5779 135.086 69.6259 135.139 69.6793C135.449 69.7859 135.731 69.9566 135.987 70.1912C136.243 70.4259 136.425 70.6179 136.531 70.7672C136.681 71.0979 136.739 71.4179 136.707 71.7272C136.686 72.0365 136.579 72.3298 136.387 72.6071C136.195 72.8738 135.913 73.1191 135.539 73.3431C135.241 73.5138 134.894 73.6577 134.499 73.7751C134.105 73.8817 133.737 73.9457 133.396 73.9671ZM140.758 73.7271C140.406 73.8231 140.113 73.8604 139.878 73.8391C139.644 73.8071 139.414 73.6844 139.19 73.4711C139.041 73.3538 138.929 73.2418 138.854 73.1351C138.78 73.0284 138.726 72.8685 138.694 72.6551C138.641 72.4951 138.609 72.3671 138.598 72.2711C138.588 72.1752 138.593 72.0578 138.614 71.9192C138.646 71.7805 138.689 71.5672 138.742 71.2792C138.828 70.8952 138.902 70.5966 138.966 70.3832C139.03 70.1592 139.158 69.9139 139.35 69.6473C139.436 69.4233 139.532 69.1993 139.638 68.9753C139.756 68.7406 139.841 68.5913 139.894 68.5273C139.948 68.4527 140.028 68.3407 140.134 68.1913C140.241 68.042 140.353 67.9034 140.47 67.7754C140.577 67.6367 140.673 67.5087 140.758 67.3914C140.854 67.2634 140.902 67.1994 140.902 67.1994C140.956 67.1674 141.004 67.1354 141.046 67.1034C141.1 67.0714 141.153 67.0181 141.206 66.9434C141.292 66.8474 141.409 66.7354 141.558 66.6074C141.718 66.4794 141.894 66.3568 142.086 66.2394C142.289 66.1221 142.486 66.0208 142.678 65.9354C142.881 65.8501 143.068 65.7968 143.238 65.7755C143.58 65.6581 143.739 65.6635 143.718 65.7915C143.718 65.7915 143.734 65.8075 143.766 65.8395C143.798 65.8715 143.857 65.8981 143.942 65.9194C143.985 65.9301 144.017 65.9674 144.038 66.0314C144.07 66.0848 144.102 66.1381 144.134 66.1914C144.155 66.2768 144.15 66.3514 144.118 66.4154C144.097 66.4794 144.011 66.5808 143.862 66.7194C143.713 66.8261 143.606 66.8847 143.542 66.8954C143.489 66.9061 143.441 66.8901 143.398 66.8474C143.409 66.8047 143.388 66.7781 143.334 66.7674C143.281 66.7461 143.254 66.7354 143.254 66.7354C143.19 66.7141 143.052 66.7621 142.838 66.8794C142.625 66.9967 142.396 67.1461 142.15 67.3274C141.916 67.5087 141.718 67.6847 141.558 67.8554C141.462 67.9407 141.377 68.026 141.302 68.1113C141.228 68.1967 141.18 68.2607 141.158 68.3033C141.02 68.442 140.897 68.5807 140.79 68.7193C140.684 68.8473 140.63 68.9113 140.63 68.9113C140.662 68.9753 140.737 68.9913 140.854 68.9593C140.982 68.9273 141.052 68.89 141.062 68.8473C141.062 68.8046 141.18 68.7513 141.414 68.6873C141.66 68.6127 141.905 68.5647 142.15 68.5433C142.246 68.5007 142.374 68.4953 142.534 68.5273C142.705 68.5593 142.844 68.586 142.95 68.6073C143.185 68.65 143.345 68.6927 143.43 68.7353C143.516 68.778 143.622 68.8793 143.75 69.0393C143.963 69.242 144.107 69.4446 144.182 69.6473C144.267 69.8393 144.305 70.0739 144.294 70.3512C144.294 70.5219 144.278 70.6712 144.246 70.7992C144.214 70.9272 144.139 71.0605 144.022 71.1992C143.937 71.3379 143.825 71.5032 143.686 71.6952C143.548 71.8765 143.409 72.0418 143.27 72.1911C143.142 72.3405 143.03 72.4471 142.934 72.5111C142.892 72.5325 142.849 72.5591 142.806 72.5911C142.774 72.6125 142.758 72.6231 142.758 72.6231C142.748 72.6871 142.668 72.7725 142.518 72.8791C142.38 72.9751 142.204 73.0818 141.99 73.1991C141.777 73.3164 141.558 73.4231 141.334 73.5191C141.121 73.6151 140.929 73.6844 140.758 73.7271ZM139.686 72.9431C139.878 72.9858 140.028 73.0071 140.134 73.0071C140.241 72.9964 140.428 72.9378 140.694 72.8311C140.78 72.8098 140.86 72.7885 140.934 72.7671C141.009 72.7458 141.068 72.7405 141.11 72.7511C141.11 72.7511 141.185 72.7031 141.334 72.6071C141.484 72.5005 141.66 72.3885 141.862 72.2711C142.428 71.9085 142.865 71.5085 143.174 71.0712C143.484 70.6232 143.611 70.2552 143.558 69.9673C143.569 69.8819 143.553 69.8019 143.51 69.7273C143.478 69.6419 143.468 69.5779 143.478 69.5353C143.446 69.5353 143.393 69.5246 143.318 69.5033C143.244 69.4819 143.148 69.4606 143.03 69.4393C142.902 69.4073 142.774 69.3966 142.646 69.4073C142.529 69.4179 142.348 69.4499 142.102 69.5033C141.868 69.5459 141.505 69.6259 141.014 69.7433C140.94 69.7646 140.854 69.8019 140.758 69.8553C140.662 69.8979 140.566 69.9299 140.47 69.9513C140.428 69.9833 140.364 70.0259 140.278 70.0793C140.193 70.1219 140.113 70.1539 140.038 70.1752C139.91 70.1859 139.804 70.2872 139.718 70.4792C139.633 70.6712 139.532 71.0339 139.414 71.5672C139.34 71.9298 139.297 72.1752 139.286 72.3031C139.276 72.4311 139.297 72.5378 139.35 72.6231C139.372 72.7511 139.414 72.8311 139.478 72.8631C139.542 72.8951 139.612 72.9218 139.686 72.9431ZM146.585 73.8391C146.393 73.7004 146.297 73.5831 146.297 73.4871C146.254 73.4231 146.206 73.3911 146.153 73.3911C146.121 73.4018 146.089 73.3698 146.057 73.2951C146.036 73.2204 146.015 73.1351 145.993 73.0391C145.983 72.9324 145.983 72.8578 145.993 72.8151C146.036 72.7298 146.1 72.6818 146.185 72.6711C146.27 72.6498 146.35 72.6605 146.425 72.7031C146.51 72.7351 146.558 72.7938 146.569 72.8791C146.59 72.9644 146.67 73.0338 146.809 73.0871C146.958 73.1404 147.15 73.1618 147.385 73.1511C147.684 73.1404 147.993 73.0658 148.313 72.9271C148.644 72.7885 148.948 72.6125 149.225 72.3991C149.513 72.1858 149.742 71.9672 149.913 71.7432C149.988 71.5938 150.057 71.3965 150.121 71.1512C150.185 70.9059 150.228 70.6872 150.249 70.4952C150.27 70.3032 150.254 70.2072 150.201 70.2072C150.201 70.2072 150.19 70.1699 150.169 70.0952C150.158 70.0206 150.137 69.9406 150.105 69.8553C150.052 69.6953 149.929 69.5353 149.737 69.3753C149.545 69.2046 149.358 69.082 149.177 69.0073C149.102 68.986 148.964 68.97 148.761 68.9593C148.569 68.938 148.393 68.938 148.233 68.9593C148.062 68.97 147.908 68.97 147.769 68.9593C147.641 68.9486 147.577 68.9433 147.577 68.9433C147.524 68.9326 147.444 68.89 147.337 68.8153C147.241 68.7406 147.15 68.6607 147.065 68.5753C146.98 68.49 146.937 68.4207 146.937 68.3673C146.958 68.2927 147.012 68.1753 147.097 68.0153C147.182 67.8447 147.284 67.658 147.401 67.4554C147.529 67.2421 147.662 67.0447 147.801 66.8634C147.94 66.6714 148.073 66.5114 148.201 66.3834C148.521 66.0314 148.884 65.7701 149.289 65.5995C149.705 65.4181 150.132 65.3381 150.569 65.3595C150.878 65.3701 151.097 65.3968 151.225 65.4395C151.364 65.4715 151.497 65.5728 151.625 65.7435C151.71 65.8928 151.748 66.0261 151.737 66.1434C151.726 66.2608 151.684 66.3408 151.609 66.3834C151.534 66.4261 151.433 66.4154 151.305 66.3514C151.156 66.2554 150.948 66.2181 150.681 66.2394C150.425 66.2608 150.153 66.3141 149.865 66.3994C149.641 66.4848 149.401 66.6234 149.145 66.8154C148.9 66.9967 148.75 67.1461 148.697 67.2634C148.654 67.2954 148.622 67.3274 148.601 67.3594C148.59 67.3914 148.564 67.402 148.521 67.3914C148.521 67.3914 148.505 67.4127 148.473 67.4554C148.441 67.4874 148.425 67.5247 148.425 67.5674C148.372 67.6314 148.334 67.6794 148.313 67.7114C148.302 67.7327 148.276 67.722 148.233 67.6794C148.233 67.6794 148.233 67.6954 148.233 67.7274C148.233 67.7594 148.228 67.7967 148.217 67.8394C148.206 67.914 148.212 67.978 148.233 68.0313C148.265 68.074 148.382 68.106 148.585 68.1273C148.852 68.17 149.054 68.2127 149.193 68.2553C149.332 68.2873 149.534 68.3833 149.801 68.5433C150.1 68.714 150.34 68.9433 150.521 69.2313C150.702 69.5086 150.825 69.8233 150.889 70.1752C150.964 70.5272 150.974 70.8845 150.921 71.2472C150.889 71.4819 150.857 71.6632 150.825 71.7912C150.793 71.9192 150.702 72.0952 150.553 72.3191C150.308 72.6605 150.009 72.9644 149.657 73.2311C149.305 73.4871 148.937 73.6897 148.553 73.8391C148.169 73.9777 147.801 74.0524 147.449 74.0631C147.108 74.0737 146.82 73.9991 146.585 73.8391ZM160.783 74.527C160.644 74.559 160.527 74.5377 160.431 74.463C160.345 74.399 160.281 74.303 160.239 74.1751C160.153 73.9297 160.089 73.6631 160.047 73.3751C160.015 73.0764 160.009 72.8151 160.031 72.5911L160.063 72.2551L159.439 72.7511C159.076 73.0711 158.724 73.3004 158.383 73.4391C158.052 73.5778 157.759 73.6471 157.503 73.6471C157.385 73.6257 157.268 73.5831 157.151 73.5191C157.033 73.4551 156.927 73.3751 156.831 73.2791C156.745 73.1831 156.676 73.0818 156.623 72.9751C156.559 72.8258 156.537 72.6231 156.559 72.3671C156.591 72.1112 156.655 71.8338 156.751 71.5352C156.857 71.2259 156.985 70.9272 157.135 70.6392C157.295 70.3406 157.476 70.0793 157.679 69.8553C158.031 69.322 158.409 68.9966 158.815 68.8793C159.22 68.762 159.62 68.8206 160.015 69.0553C160.292 69.1726 160.463 69.226 160.527 69.2153C160.601 69.2046 160.665 69.082 160.719 68.8473C160.761 68.6767 160.804 68.506 160.847 68.3353C160.889 68.154 160.959 67.914 161.055 67.6154C161.321 66.8047 161.551 66.1701 161.743 65.7115C161.945 65.2528 162.127 64.8528 162.287 64.5115C162.404 64.2662 162.5 64.1169 162.575 64.0635C162.66 63.9995 162.745 63.9729 162.83 63.9835C162.948 63.9835 163.054 64.0262 163.15 64.1115C163.246 64.1969 163.321 64.3142 163.374 64.4635C163.417 64.5595 163.433 64.6448 163.422 64.7195C163.422 64.7835 163.39 64.8742 163.326 64.9915C163.188 65.2475 163.022 65.5888 162.83 66.0154C162.649 66.4314 162.463 66.8901 162.271 67.3914C162.089 67.8927 161.919 68.3887 161.759 68.8793C161.599 69.37 161.465 69.8019 161.359 70.1752C161.295 70.4099 161.236 70.7086 161.183 71.0712C161.14 71.4339 161.103 71.8072 161.071 72.1911C161.039 72.5645 161.017 72.9004 161.007 73.1991C161.007 73.4871 161.017 73.6737 161.039 73.7591C161.103 73.9724 161.129 74.1324 161.119 74.2391C161.119 74.3457 161.092 74.415 161.039 74.447C160.985 74.4897 160.9 74.5164 160.783 74.527ZM158.079 72.7511C158.228 72.7191 158.372 72.6605 158.511 72.5751C158.66 72.4898 158.815 72.3885 158.975 72.2711C159.295 72.0258 159.572 71.8018 159.807 71.5992C160.041 71.3965 160.196 71.0872 160.271 70.6712C160.292 70.4686 160.271 70.3086 160.207 70.1912C160.153 70.0633 160.063 69.9459 159.935 69.8393C159.807 69.7539 159.631 69.7219 159.407 69.7433C159.193 69.7539 158.969 69.8659 158.735 70.0793C158.479 70.3139 158.228 70.6286 157.983 71.0232C157.748 71.4179 157.572 71.9032 157.455 72.4791C157.433 72.5858 157.465 72.6711 157.551 72.7351C157.636 72.7991 157.812 72.8045 158.079 72.7511ZM162.984 73.6471C162.941 73.5618 162.888 73.4978 162.824 73.4551C162.76 73.4018 162.728 73.3538 162.728 73.3111C162.728 73.2684 162.722 73.2258 162.712 73.1831C162.712 73.1298 162.69 73.0818 162.648 73.0391C162.594 72.9751 162.6 72.8311 162.664 72.6071C162.728 72.3725 162.834 72.0898 162.984 71.7592C163.133 71.4179 163.309 71.0605 163.512 70.6872C163.597 70.6019 163.682 70.4899 163.768 70.3512C163.853 70.2126 163.917 70.1219 163.96 70.0793C163.96 70.0366 163.976 69.9993 164.008 69.9673C164.04 69.9246 164.077 69.9033 164.12 69.9033V69.8073C164.12 69.7539 164.168 69.6633 164.264 69.5353C164.37 69.4073 164.498 69.2686 164.648 69.1193C164.797 68.9593 164.952 68.81 165.112 68.6713C165.272 68.522 165.405 68.4153 165.512 68.3513C165.736 68.202 165.965 68.1113 166.2 68.0793C166.445 68.0473 166.653 68.1007 166.824 68.2393C166.856 68.2713 166.909 68.3247 166.984 68.3993C167.058 68.474 167.144 68.5593 167.24 68.6553C167.346 68.7406 167.453 68.8313 167.56 68.9273L168.151 69.4553L167.864 70.2552C167.725 70.6819 167.688 71.0552 167.752 71.3752C167.826 71.6952 167.933 71.9725 168.071 72.2071C168.125 72.3245 168.231 72.4365 168.391 72.5431C168.562 72.6498 168.722 72.7138 168.871 72.7351C168.957 72.7458 169.037 72.7778 169.111 72.8311C169.186 72.8845 169.223 72.9698 169.223 73.0871C169.223 73.1938 169.202 73.2791 169.159 73.3431C169.117 73.4071 169.042 73.4498 168.935 73.4711C168.583 73.5138 168.253 73.4284 167.944 73.2151C167.645 73.0018 167.368 72.6498 167.112 72.1592C167.069 72.0952 167.01 71.9778 166.936 71.8072C166.872 71.6258 166.834 71.5085 166.824 71.4552C166.781 71.5085 166.701 71.6098 166.584 71.7592C166.466 71.8978 166.376 71.9992 166.312 72.0632C165.554 72.8311 164.898 73.3484 164.344 73.6151C163.8 73.8711 163.346 73.8817 162.984 73.6471ZM163.56 72.7511C163.56 72.8258 163.672 72.8258 163.896 72.7511C164.13 72.6658 164.381 72.5165 164.648 72.3031C165.01 71.9938 165.373 71.6525 165.736 71.2792C166.109 70.9059 166.408 70.5592 166.632 70.2392L166.984 69.6633C166.877 69.4179 166.76 69.2526 166.632 69.1673C166.514 69.0713 166.413 69.0233 166.328 69.0233C166.189 69.0233 165.981 69.1513 165.704 69.4073C165.437 69.6633 165.149 70.0046 164.84 70.4312C164.53 70.8579 164.237 71.3272 163.96 71.8392C163.853 72.0525 163.757 72.2605 163.672 72.4631C163.597 72.6551 163.56 72.7511 163.56 72.7511ZM169.6 78.0789C169.365 78.1215 169.205 78.1269 169.12 78.0949C169.034 78.0629 168.917 78.0095 168.768 77.9349C168.651 77.8495 168.56 77.7855 168.496 77.7429C168.432 77.7002 168.4 77.6576 168.4 77.6149C168.4 77.5829 168.411 77.5456 168.432 77.5029C168.453 77.4709 168.491 77.4389 168.544 77.4069C168.608 77.3856 168.693 77.3749 168.8 77.3749C168.875 77.4176 168.997 77.4389 169.168 77.4389C169.349 77.4389 169.461 77.4176 169.504 77.3749C169.504 77.3749 169.552 77.3429 169.648 77.2789C169.754 77.2256 169.893 77.1829 170.064 77.1509C170.394 76.9909 170.688 76.7883 170.944 76.5429C171.2 76.2976 171.445 75.9776 171.68 75.583C171.776 75.4337 171.877 75.2577 171.984 75.055C172.09 74.863 172.165 74.671 172.208 74.479C172.293 74.2657 172.389 73.9777 172.496 73.6151C172.613 73.2524 172.714 72.8951 172.8 72.5431C172.885 72.1805 172.933 71.9085 172.944 71.7272C173.008 71.1299 173.109 70.5806 173.248 70.0793C173.397 69.5673 173.525 68.9966 173.632 68.3673C173.696 68.218 173.744 68.1327 173.776 68.1113C173.808 68.0793 173.877 68.0633 173.984 68.0633C174.101 68.0633 174.186 68.074 174.24 68.0953C174.304 68.106 174.373 68.17 174.448 68.2873C174.554 68.49 174.592 68.73 174.56 69.0073C174.538 69.274 174.458 69.5086 174.32 69.7113C174.213 69.8606 174.117 70.0952 174.032 70.4152C173.957 70.7246 173.882 71.1139 173.808 71.5832C173.754 71.8178 173.696 72.0952 173.632 72.4151C173.578 72.7245 173.52 73.0711 173.456 73.4551C173.413 73.5618 173.354 73.7271 173.28 73.9511C173.205 74.1644 173.157 74.335 173.136 74.463C173.125 74.5057 173.093 74.591 173.04 74.719C172.986 74.847 172.933 74.9697 172.88 75.087C172.826 75.215 172.789 75.3003 172.768 75.343C172.352 76.207 171.877 76.8683 171.344 77.3269C170.81 77.7855 170.229 78.0362 169.6 78.0789ZM170.816 73.4391C170.698 73.4391 170.576 73.3751 170.448 73.2471C170.33 73.1191 170.25 73.0178 170.208 72.9431C170.165 72.8365 170.112 72.7351 170.048 72.6391C169.984 72.5431 169.936 72.4258 169.904 72.2871C169.882 72.1485 169.893 71.9778 169.936 71.7752C169.978 71.6365 170.037 71.4392 170.112 71.1832C170.197 70.9165 170.288 70.6286 170.384 70.3192C170.49 70.0099 170.597 69.7059 170.704 69.4073C170.821 69.098 170.928 68.826 171.024 68.5913C171.12 68.346 171.205 68.17 171.28 68.0633C171.344 67.978 171.413 67.9247 171.488 67.9034C171.573 67.882 171.658 67.8927 171.744 67.9354C171.829 67.9674 171.904 68.0367 171.968 68.1433C172.085 68.2927 172.133 68.4207 172.112 68.5273C172.09 68.634 171.994 68.842 171.824 69.1513C171.781 69.2686 171.728 69.3966 171.664 69.5353C171.6 69.6633 171.568 69.7486 171.568 69.7913C171.557 69.8126 171.536 69.8873 171.504 70.0153C171.482 70.1326 171.456 70.2446 171.424 70.3512C171.392 70.4579 171.36 70.5112 171.328 70.5112C171.285 70.5539 171.237 70.6766 171.184 70.8792C171.13 71.0712 171.082 71.2899 171.04 71.5352C170.997 71.7698 170.97 71.9778 170.96 72.1592C170.949 72.3298 170.965 72.4151 171.008 72.4151C171.338 72.4151 171.68 72.2871 172.032 72.0312C172.394 71.7752 172.757 71.4019 173.12 70.9112L173.392 72.0472C173.242 72.1218 173.104 72.2018 172.976 72.2871C172.848 72.3618 172.73 72.4525 172.624 72.5591C172.592 72.6018 172.517 72.6605 172.4 72.7351C172.282 72.8098 172.165 72.8791 172.048 72.9431C171.941 72.9964 171.872 73.0231 171.84 73.0231C171.84 73.0231 171.824 73.0284 171.792 73.0391C171.77 73.0391 171.76 73.0604 171.76 73.1031C171.76 73.1244 171.69 73.1671 171.552 73.2311C171.413 73.2844 171.269 73.3324 171.12 73.3751C170.97 73.4178 170.869 73.4391 170.816 73.4391ZM176.781 73.9991C176.247 73.9991 175.858 73.8071 175.613 73.4231C175.538 73.3164 175.501 73.2098 175.501 73.1031C175.511 72.9858 175.543 72.9058 175.597 72.8631C175.661 72.8205 175.735 72.8578 175.821 72.9751C175.97 73.0604 176.183 73.1031 176.461 73.1031C176.599 73.1031 176.743 73.0924 176.893 73.0711C177.042 73.0391 177.191 72.9964 177.341 72.9431C177.501 72.8685 177.607 72.8045 177.661 72.7511C177.714 72.6871 177.703 72.6338 177.629 72.5911H177.645C177.367 72.5165 177.085 72.3991 176.797 72.2391C176.519 72.0685 176.279 71.8872 176.077 71.6952C175.874 71.4925 175.757 71.3112 175.725 71.1512C175.639 70.8205 175.661 70.4846 175.789 70.1432C175.917 69.7913 176.098 69.4819 176.333 69.2153C176.418 69.162 176.525 69.098 176.653 69.0233C176.781 68.938 176.882 68.89 176.957 68.8793V68.8953C177.159 68.682 177.405 68.5113 177.693 68.3833C177.991 68.2553 178.306 68.138 178.636 68.0313L178.876 67.9993C179.004 67.978 179.111 67.9674 179.196 67.9674C179.186 67.9674 179.207 67.978 179.26 67.9993C179.314 68.01 179.362 68.0207 179.404 68.0313C179.468 68.0633 179.522 68.0793 179.564 68.0793C179.703 68.1007 179.831 68.1647 179.948 68.2713C180.066 68.378 180.156 68.506 180.22 68.6553C180.295 68.794 180.322 68.9273 180.3 69.0553C180.279 69.258 180.215 69.4393 180.108 69.5993C180.012 69.7593 179.895 69.8499 179.756 69.8713C179.778 69.8606 179.762 69.8446 179.708 69.8233C179.666 69.7913 179.618 69.7593 179.564 69.7273L179.516 69.7593C179.516 69.7593 179.511 69.7486 179.5 69.7273C179.5 69.6953 179.49 69.6579 179.468 69.6153C179.436 69.5513 179.42 69.4819 179.42 69.4073C179.42 69.322 179.426 69.2313 179.436 69.1353C179.458 69.018 179.458 68.9486 179.436 68.9273C179.426 68.906 179.356 68.89 179.228 68.8793C179.079 68.8473 178.86 68.874 178.572 68.9593C178.295 69.0446 178.061 69.162 177.869 69.3113C177.634 69.4606 177.437 69.6046 177.277 69.7433C177.117 69.8713 176.989 69.9993 176.893 70.1272C176.797 70.2446 176.711 70.3832 176.637 70.5432C176.583 70.6179 176.535 70.6926 176.493 70.7672C176.461 70.8312 176.445 70.8899 176.445 70.9432C176.445 71.0605 176.53 71.1832 176.701 71.3112C176.882 71.4285 177.149 71.5672 177.501 71.7272C177.778 71.8445 178.013 71.9725 178.205 72.1112C178.397 72.2498 178.53 72.4098 178.604 72.5911C178.626 72.6338 178.631 72.6871 178.62 72.7511C178.62 72.8045 178.61 72.8418 178.588 72.8631C178.61 72.8845 178.62 72.9004 178.62 72.9111V72.8951C178.706 73.0231 178.706 73.1564 178.62 73.2951C178.546 73.4338 178.413 73.5564 178.221 73.6631C178.039 73.7591 177.815 73.8337 177.549 73.8871H177.565C177.426 73.9297 177.287 73.9617 177.149 73.9831C177.021 73.9937 176.898 73.9991 176.781 73.9991ZM186.316 73.6151C186.092 73.6577 185.948 73.6737 185.884 73.6631C185.831 73.6417 185.746 73.5778 185.628 73.4711C185.458 73.3858 185.314 73.2791 185.196 73.1511C185.09 73.0231 185.01 72.8898 184.956 72.7511C184.914 72.6018 184.898 72.4791 184.908 72.3831C184.94 72.0098 185.031 71.6098 185.18 71.1832C185.33 70.7566 185.511 70.3459 185.724 69.9513C185.938 69.5566 186.167 69.2206 186.412 68.9433C186.668 68.6553 186.914 68.4687 187.148 68.3833C187.362 68.298 187.564 68.266 187.756 68.2873C187.948 68.3087 188.087 68.41 188.172 68.5913C188.332 68.9006 188.295 69.098 188.06 69.1833C188.028 69.1833 187.991 69.1993 187.948 69.2313C187.906 69.2526 187.884 69.2846 187.884 69.3273C187.927 69.3486 188.044 69.354 188.236 69.3433C188.428 69.322 188.62 69.29 188.812 69.2473C189.015 69.194 189.148 69.1406 189.212 69.0873C189.276 69.0553 189.324 69.0393 189.356 69.0393C189.388 69.0393 189.468 69.05 189.596 69.0713C189.777 69.1246 189.868 69.1886 189.868 69.2633C189.868 69.306 189.884 69.3486 189.916 69.3913C189.948 69.4233 189.985 69.4393 190.028 69.4393C190.103 69.4499 190.092 69.4979 189.996 69.5833C189.911 69.6686 189.761 69.7859 189.548 69.9353C189.345 70.0633 189.217 70.1486 189.164 70.1912C189.121 70.2232 189.116 70.2979 189.148 70.4152C189.233 70.6179 189.239 70.8525 189.164 71.1192C189.089 71.3859 188.956 71.6578 188.764 71.9352C188.572 72.2125 188.337 72.4738 188.06 72.7191C187.794 72.9538 187.506 73.1564 187.196 73.3271C186.898 73.4871 186.604 73.5831 186.316 73.6151ZM186.044 72.9111C186.087 72.9111 186.162 72.8898 186.268 72.8471C186.375 72.7938 186.46 72.7511 186.524 72.7191C186.567 72.6765 186.62 72.6285 186.684 72.5751C186.759 72.5111 186.818 72.4738 186.86 72.4631C186.903 72.4631 186.956 72.4471 187.02 72.4151C187.084 72.3725 187.175 72.2925 187.292 72.1752C187.41 72.0472 187.564 71.8605 187.756 71.6152C187.97 71.3805 188.135 71.1672 188.252 70.9752C188.369 70.7726 188.401 70.5859 188.348 70.4152C188.337 70.3726 188.305 70.3459 188.252 70.3352C188.209 70.3246 188.151 70.2979 188.076 70.2552C187.97 70.2552 187.868 70.2286 187.772 70.1752C187.687 70.1112 187.586 70.0313 187.468 69.9353L187.212 69.6153L186.94 69.8873C186.77 70.0579 186.588 70.3139 186.396 70.6552C186.215 70.9859 186.06 71.3272 185.932 71.6792C185.804 72.0205 185.73 72.2925 185.708 72.4951C185.698 72.6551 185.724 72.7618 185.788 72.8151C185.852 72.8685 185.938 72.9004 186.044 72.9111ZM190.645 75.919C190.581 75.9616 190.506 75.951 190.421 75.887C190.346 75.823 190.234 75.7056 190.085 75.535C190.01 75.4497 189.962 75.359 189.941 75.263C189.919 75.167 189.925 74.9857 189.957 74.719C189.999 74.6017 190.021 74.4897 190.021 74.383C190.031 74.2764 190.037 74.2017 190.037 74.1591C190.037 74.0951 190.053 73.9457 190.085 73.7111C190.127 73.4764 190.17 73.2311 190.213 72.9751C190.255 72.7085 190.293 72.5058 190.325 72.3671C190.325 72.3565 190.33 72.3298 190.341 72.2871C190.351 72.2445 190.362 72.2071 190.373 72.1752C190.394 72.0792 190.421 71.9512 190.453 71.7912C190.495 71.6312 190.533 71.4339 190.565 71.1992C190.65 70.9325 190.719 70.6712 190.773 70.4152C190.837 70.1486 190.869 69.9673 190.869 69.8713C190.869 69.6793 190.943 69.5406 191.093 69.4553C191.103 69.4019 191.135 69.322 191.189 69.2153C191.242 69.098 191.29 69.002 191.333 68.9273C191.546 68.3193 191.722 67.8394 191.861 67.4874C191.999 67.1247 192.143 66.8101 192.293 66.5434C192.357 66.3621 192.426 66.1754 192.501 65.9834C192.586 65.7915 192.671 65.6421 192.757 65.5355C192.81 65.3968 192.933 65.2208 193.125 65.0075C193.317 64.7835 193.519 64.5702 193.733 64.3675C193.946 64.1542 194.117 63.9942 194.244 63.8875C194.479 63.7702 194.666 63.6902 194.804 63.6476C194.943 63.6049 195.124 63.5836 195.348 63.5836C195.551 63.5836 195.684 63.6102 195.748 63.6636C195.823 63.7062 195.93 63.7916 196.068 63.9195C196.218 64.0795 196.303 64.1862 196.324 64.2395C196.346 64.2929 196.356 64.3942 196.356 64.5435C196.335 64.6822 196.276 64.8635 196.18 65.0875C196.095 65.3008 195.999 65.4981 195.892 65.6795C195.796 65.8501 195.716 65.9408 195.652 65.9514C195.524 65.9941 195.428 65.9834 195.364 65.9194C195.311 65.8448 195.284 65.7275 195.284 65.5675C195.284 65.4928 195.263 65.4235 195.22 65.3595C195.188 65.2848 195.172 65.2475 195.172 65.2475C195.172 65.2155 195.178 65.1622 195.188 65.0875C195.21 65.0022 195.242 64.9222 195.284 64.8475C195.338 64.7408 195.348 64.6608 195.316 64.6075C195.295 64.5542 195.226 64.5435 195.108 64.5755C195.076 64.5968 194.991 64.6608 194.852 64.7675C194.714 64.8742 194.564 64.9968 194.404 65.1355C194.255 65.2635 194.122 65.3861 194.005 65.5035C193.887 65.6208 193.829 65.6955 193.829 65.7275C193.829 65.7275 193.807 65.7755 193.765 65.8715C193.722 65.9568 193.642 66.0688 193.525 66.2074C193.45 66.3141 193.381 66.4208 193.317 66.5274C193.263 66.6234 193.237 66.6821 193.237 66.7034C193.237 66.7461 193.231 66.7941 193.221 66.8474C193.221 66.8901 193.194 66.9114 193.141 66.9114C193.141 66.9114 193.125 66.9594 193.093 67.0554C193.061 67.1514 193.002 67.2741 192.917 67.4234C192.874 67.53 192.821 67.642 192.757 67.7594C192.693 67.866 192.639 67.9407 192.597 67.9834H192.613C192.613 67.9834 192.586 68.0527 192.533 68.1913C192.49 68.3193 192.442 68.458 192.389 68.6073C192.335 68.746 192.309 68.826 192.309 68.8473C192.309 68.89 192.383 68.9113 192.533 68.9113C192.693 68.9113 192.879 68.8953 193.093 68.8633C193.306 68.8206 193.498 68.778 193.669 68.7353C193.818 68.6927 193.919 68.6713 193.973 68.6713C194.026 68.6713 194.133 68.6927 194.292 68.7353C194.378 68.7886 194.447 68.8686 194.5 68.9753C194.564 69.0713 194.607 69.1673 194.628 69.2633C194.66 69.3486 194.66 69.4126 194.628 69.4553C194.618 69.4979 194.5 69.5566 194.276 69.6313C194.053 69.7059 193.829 69.7646 193.605 69.8073C193.413 69.8499 193.178 69.8979 192.901 69.9513C192.623 70.0046 192.378 70.0526 192.165 70.0952C191.962 70.1379 191.861 70.1752 191.861 70.2072C191.818 70.2072 191.781 70.2339 191.749 70.2872C191.717 70.3299 191.701 70.3672 191.701 70.3992C191.701 70.5486 191.679 70.6606 191.637 70.7352C191.615 70.7992 191.578 70.9272 191.525 71.1192C191.471 71.3112 191.413 71.5245 191.349 71.7592C191.295 71.9938 191.247 72.2071 191.205 72.3991C191.173 72.5911 191.157 72.7191 191.157 72.7831C191.093 72.8578 191.055 72.9538 191.045 73.0711C191.034 73.1778 191.029 73.2738 191.029 73.3591C190.986 73.4444 190.959 73.5244 190.949 73.5991C190.938 73.6631 190.933 73.7164 190.933 73.7591C190.933 73.7697 190.933 73.7911 190.933 73.8231C190.933 73.8551 190.927 73.8871 190.917 73.9191C190.906 74.0257 190.89 74.1644 190.869 74.335C190.858 74.5164 190.853 74.6924 190.853 74.863L190.805 75.327C190.794 75.4657 190.778 75.583 190.757 75.679C190.735 75.7856 190.698 75.8656 190.645 75.919ZM199.783 73.7271C199.751 73.7377 199.698 73.7324 199.623 73.7111C199.549 73.6897 199.474 73.6631 199.399 73.6311C199.325 73.5991 199.277 73.5724 199.256 73.5511C199.213 73.5084 199.17 73.4444 199.128 73.3591C199.096 73.2738 199.096 73.1511 199.128 72.9911C199.16 72.8205 199.266 72.6018 199.447 72.3351C199.501 72.2285 199.565 72.0685 199.639 71.8552C199.714 71.6418 199.789 71.4179 199.863 71.1832C199.949 70.9379 200.023 70.7192 200.087 70.5272C200.162 70.3352 200.215 70.2019 200.247 70.1272C200.269 69.9459 200.258 69.8179 200.215 69.7433C200.183 69.6579 200.093 69.6099 199.943 69.5993C199.837 69.5993 199.751 69.5886 199.687 69.5673C199.634 69.5459 199.607 69.4393 199.607 69.2473C199.629 69.098 199.666 68.9966 199.719 68.9433C199.783 68.8793 199.869 68.81 199.975 68.7353C200.082 68.682 200.189 68.6447 200.295 68.6233C200.413 68.602 200.525 68.5967 200.631 68.6073C200.738 68.618 200.823 68.6553 200.887 68.7193C200.962 68.762 201.01 68.858 201.031 69.0073C201.053 69.146 201.063 69.29 201.063 69.4393C201.074 69.5886 201.085 69.7006 201.095 69.7753C201.202 69.6899 201.346 69.5726 201.527 69.4233C201.719 69.2633 201.885 69.114 202.023 68.9753C202.194 68.858 202.397 68.7406 202.631 68.6233C202.866 68.4953 203.037 68.4313 203.143 68.4313C203.261 68.4313 203.378 68.4633 203.495 68.5273C203.613 68.5807 203.693 68.65 203.735 68.7353C203.842 68.9166 203.89 69.0766 203.879 69.2153C203.879 69.354 203.821 69.4979 203.703 69.6473C203.597 69.7859 203.463 69.8819 203.303 69.9353C203.154 69.9886 203.058 70.0153 203.015 70.0153C202.951 70.0153 202.871 69.9673 202.775 69.8713C202.679 69.7753 202.626 69.6953 202.615 69.6313C202.615 69.5993 202.546 69.6313 202.407 69.7273C202.279 69.8126 202.135 69.9246 201.975 70.0633C201.815 70.1912 201.682 70.3086 201.575 70.4152C201.394 70.6392 201.202 70.9432 200.999 71.3272C200.797 71.7112 200.557 72.1752 200.279 72.7191C200.151 72.9858 200.061 73.2151 200.007 73.4071C199.954 73.5884 199.879 73.6951 199.783 73.7271ZM205.693 73.8391C205.277 73.6684 205.005 73.4338 204.877 73.1351C204.76 72.8258 204.738 72.3511 204.813 71.7112C204.834 71.3805 204.845 71.1619 204.845 71.0552C204.845 70.9485 204.786 70.8419 204.669 70.7352C204.637 70.6926 204.578 70.6339 204.493 70.5592C204.418 70.4846 204.386 70.4206 204.397 70.3672C204.386 70.2926 204.392 70.2126 204.413 70.1272C204.434 70.0313 204.466 69.9833 204.509 69.9833C204.552 69.9833 204.594 69.9726 204.637 69.9513C204.69 69.9299 204.738 69.9299 204.781 69.9513C204.824 69.9513 204.872 69.9566 204.925 69.9673C204.978 69.9779 205.005 70.0046 205.005 70.0473C205.048 70.1219 205.117 70.1326 205.213 70.0793C205.309 70.0153 205.41 69.8766 205.517 69.6633C205.623 69.4926 205.762 69.322 205.933 69.1513C206.114 68.9806 206.29 68.826 206.461 68.6873C206.642 68.538 206.791 68.4313 206.909 68.3673C206.962 68.346 207.042 68.3193 207.149 68.2873C207.255 68.2553 207.367 68.2287 207.485 68.2073C207.613 68.186 207.719 68.1807 207.805 68.1913C207.997 68.202 208.157 68.2553 208.285 68.3513C208.423 68.4473 208.551 68.5593 208.669 68.6873C208.807 68.7833 208.893 68.9113 208.925 69.0713C208.967 69.2313 208.978 69.4019 208.957 69.5833C208.935 69.7646 208.887 69.9299 208.813 70.0793C208.781 70.1859 208.69 70.3139 208.541 70.4632C208.391 70.6126 208.221 70.7566 208.029 70.8952C207.837 71.0339 207.661 71.1352 207.501 71.1992C207.362 71.2312 207.181 71.2579 206.957 71.2792C206.743 71.3005 206.541 71.3112 206.349 71.3112C206.167 71.3005 206.045 71.2792 205.981 71.2472C205.906 71.2045 205.847 71.2632 205.805 71.4232C205.762 71.5832 205.73 71.8125 205.709 72.1112C205.687 72.3458 205.687 72.5165 205.709 72.6231C205.73 72.7298 205.751 72.8045 205.773 72.8471C205.847 72.9218 205.949 73.0178 206.077 73.1351C206.215 73.2418 206.407 73.2578 206.653 73.1831C206.855 73.1298 207.053 72.9911 207.245 72.7671C207.447 72.5431 207.634 72.3618 207.805 72.2231C207.847 72.1485 207.917 72.1058 208.013 72.0952C208.119 72.0738 208.231 72.0792 208.349 72.1112C208.466 72.1858 208.514 72.2765 208.493 72.3831C208.482 72.4791 208.429 72.6285 208.333 72.8311C208.301 72.9058 208.226 73.0018 208.109 73.1191C208.002 73.2258 207.879 73.3378 207.741 73.4551C207.613 73.5618 207.495 73.6471 207.389 73.7111C207.069 73.8817 206.77 73.9724 206.493 73.9831C206.215 73.9831 205.949 73.9351 205.693 73.8391ZM206.637 70.5912C206.871 70.5379 207.058 70.5006 207.197 70.4792C207.335 70.4579 207.469 70.3992 207.597 70.3032C207.725 70.1966 207.885 69.9993 208.077 69.7113C208.119 69.5939 208.13 69.4766 208.109 69.3593C208.098 69.242 208.071 69.162 208.029 69.1193C207.933 69.0126 207.815 68.9806 207.677 69.0233C207.549 69.0553 207.426 69.114 207.309 69.1993C207.234 69.2313 207.122 69.3113 206.973 69.4393C206.834 69.5566 206.695 69.6953 206.557 69.8553C206.418 70.0046 206.306 70.1432 206.221 70.2712C206.135 70.3992 206.114 70.4739 206.157 70.4952C206.135 70.5379 206.194 70.5646 206.333 70.5752C206.482 70.5859 206.583 70.5912 206.637 70.5912ZM212.08 73.8071C211.941 73.8711 211.781 73.8977 211.6 73.8871C211.418 73.8764 211.173 73.8177 210.864 73.7111C210.842 73.7111 210.794 73.6897 210.72 73.6471C210.656 73.6044 210.586 73.5511 210.512 73.4871C210.448 73.4124 210.394 73.3324 210.352 73.2471C210.181 73.0018 210.112 72.6391 210.144 72.1592C210.176 71.6792 210.325 71.1032 210.592 70.4312C210.666 70.2712 210.778 70.0686 210.928 69.8233C211.088 69.5779 211.242 69.354 211.392 69.1513C211.552 68.938 211.664 68.8153 211.728 68.7833C211.728 68.7833 211.786 68.762 211.904 68.7193C212.021 68.6767 212.17 68.6073 212.352 68.5113C212.405 68.49 212.464 68.4687 212.528 68.4473C212.602 68.426 212.677 68.41 212.752 68.3993C212.826 68.3887 212.89 68.3887 212.944 68.3993C213.157 68.41 213.376 68.49 213.6 68.6393C213.834 68.778 214.026 68.9433 214.176 69.1353C214.325 69.3166 214.373 69.4766 214.32 69.6153C214.32 69.6366 214.288 69.6793 214.224 69.7433C214.17 69.7966 214.106 69.8553 214.032 69.9193C213.968 69.9726 213.914 70.0259 213.872 70.0793C213.818 70.1432 213.744 70.1699 213.648 70.1592C213.562 70.1486 213.482 70.1059 213.408 70.0313C213.344 69.9459 213.306 69.8393 213.296 69.7113C213.274 69.6259 213.194 69.5459 213.056 69.4713C212.928 69.3966 212.864 69.3593 212.864 69.3593C212.778 69.3593 212.656 69.4393 212.496 69.5993C212.346 69.7486 212.197 69.9299 212.048 70.1432C211.856 70.3352 211.69 70.5646 211.552 70.8312C211.413 71.0872 211.301 71.3325 211.216 71.5672C211.141 71.7912 211.088 71.9512 211.056 72.0472C211.013 72.1538 211.008 72.3031 211.04 72.4951C211.072 72.6871 211.109 72.8045 211.152 72.8471C211.194 72.8685 211.301 72.8738 211.472 72.8631C211.653 72.8525 211.866 72.8311 212.112 72.7991C212.357 72.7565 212.597 72.7085 212.832 72.6551C213.066 72.6018 213.258 72.5431 213.408 72.4791C213.61 72.3511 213.786 72.2765 213.936 72.2551C214.085 72.2338 214.197 72.2338 214.272 72.2551C214.389 72.2978 214.458 72.3565 214.48 72.4311C214.501 72.5058 214.474 72.5911 214.4 72.6871C214.325 72.7725 214.197 72.8631 214.016 72.9591C213.845 73.0444 213.69 73.1404 213.552 73.2471C213.424 73.3431 213.36 73.4178 213.36 73.4711C213.317 73.4711 213.269 73.4871 213.216 73.5191C213.173 73.5404 213.136 73.5458 213.104 73.5351C213.082 73.5351 212.997 73.5511 212.848 73.5831C212.698 73.6151 212.544 73.6524 212.384 73.6951C212.234 73.7377 212.133 73.7751 212.08 73.8071ZM215.92 73.7111C215.835 73.6257 215.771 73.5191 215.728 73.3911C215.696 73.2631 215.686 73.1351 215.696 73.0071C215.707 72.8791 215.734 72.7725 215.776 72.6871C215.776 72.6018 215.787 72.5378 215.808 72.4951C215.84 72.4418 215.851 72.3938 215.84 72.3511C215.83 72.3085 215.84 72.2338 215.872 72.1272C215.904 72.0205 215.936 71.9192 215.968 71.8232C216.043 71.6525 216.123 71.4499 216.208 71.2152C216.294 70.9699 216.374 70.7299 216.448 70.4952C216.523 70.2606 216.587 70.0579 216.64 69.8873C216.694 69.7166 216.726 69.6099 216.736 69.5673C216.736 69.4393 216.822 69.37 216.992 69.3593C217.12 69.3166 217.216 69.3166 217.28 69.3593C217.344 69.3913 217.429 69.4926 217.536 69.6633C217.621 69.7486 217.653 69.8766 217.632 70.0473C217.611 70.2179 217.541 70.4312 217.424 70.6872C217.381 70.7726 217.328 70.8952 217.264 71.0552C217.211 71.2152 217.173 71.3592 217.152 71.4872C217.109 71.5725 217.056 71.6952 216.992 71.8552C216.939 72.0045 216.891 72.1485 216.848 72.2871C216.827 72.3405 216.806 72.4205 216.784 72.5271C216.763 72.6231 216.736 72.7298 216.704 72.8471C216.672 72.9538 216.63 73.0498 216.576 73.1351C216.48 73.5724 216.39 73.8284 216.304 73.9031C216.23 73.9777 216.102 73.9137 215.92 73.7111ZM217.472 67.2154C217.419 67.1621 217.371 67.0874 217.328 66.9914C217.285 66.8847 217.259 66.7887 217.248 66.7034C217.237 66.6074 217.248 66.5594 217.28 66.5594C217.365 66.5488 217.467 66.4581 217.584 66.2874C217.701 66.1168 217.749 65.9674 217.728 65.8395C217.728 65.7968 217.744 65.7595 217.776 65.7275C217.808 65.6848 217.845 65.6581 217.888 65.6475C218.016 65.5621 218.139 65.5515 218.256 65.6155C218.384 65.6688 218.501 65.7808 218.608 65.9514C218.704 66.1541 218.731 66.3248 218.688 66.4634C218.645 66.5914 218.528 66.7727 218.336 67.0074C218.176 67.2207 218.027 67.338 217.888 67.3594C217.76 67.3807 217.621 67.3327 217.472 67.2154ZM218.104 77.8069C218.062 77.8069 218.008 77.8069 217.944 77.8069C217.88 77.8175 217.822 77.7749 217.769 77.6789C217.726 77.6256 217.699 77.5456 217.689 77.4389C217.689 77.3322 217.715 77.1402 217.769 76.8629C217.822 76.6816 217.864 76.5003 217.896 76.319C217.928 76.1483 217.944 76.0203 217.944 75.935C217.944 75.8923 217.955 75.807 217.976 75.679C218.008 75.5617 218.024 75.4763 218.024 75.423C218.078 75.3377 218.12 75.2203 218.152 75.071C218.184 74.9217 218.2 74.7884 218.2 74.671C218.2 74.543 218.264 74.4257 218.392 74.319C218.392 74.2337 218.408 74.1271 218.44 73.9991C218.483 73.8711 218.504 73.7857 218.504 73.7431C218.536 73.5937 218.606 73.3324 218.712 72.9591C218.83 72.5751 218.968 72.1432 219.128 71.6632C219.299 71.1832 219.464 70.7139 219.624 70.2552C219.784 69.7966 219.928 69.4073 220.056 69.0873C220.184 68.7886 220.27 68.5327 220.312 68.3193C220.366 68.0953 220.392 67.93 220.392 67.8234C220.392 67.7807 220.403 67.7487 220.424 67.7274C220.446 67.6954 220.494 67.6367 220.568 67.5514C220.675 67.4447 220.766 67.4127 220.84 67.4554C220.926 67.498 221.027 67.562 221.144 67.6474C221.23 67.786 221.288 67.9034 221.32 67.9993C221.363 68.0953 221.363 68.2607 221.32 68.4953C221.32 68.6553 221.294 68.794 221.24 68.9113C221.187 69.0286 221.139 69.1193 221.096 69.1833C221.054 69.2366 221.043 69.258 221.064 69.2473C221.502 69.0446 221.886 68.938 222.216 68.9273C222.558 68.906 222.84 68.9646 223.064 69.1033C223.299 69.2313 223.475 69.4126 223.592 69.6473C223.71 69.8819 223.768 70.1539 223.768 70.4632C223.768 70.5912 223.742 70.7459 223.688 70.9272C223.635 71.0979 223.566 71.2579 223.48 71.4072C223.406 71.5458 223.336 71.6472 223.272 71.7112C223.23 71.7112 223.187 71.7485 223.144 71.8232C223.102 71.8872 223.059 71.9618 223.016 72.0472C222.931 72.1538 222.792 72.2765 222.6 72.4151C222.419 72.5431 222.238 72.6498 222.056 72.7351C221.875 72.8098 221.742 72.8311 221.656 72.7991C221.656 72.7991 221.64 72.8045 221.608 72.8151C221.587 72.8151 221.576 72.8418 221.576 72.8951C221.576 72.9164 221.491 72.9644 221.32 73.0391C221.15 73.1031 220.952 73.1671 220.728 73.2311C220.504 73.2844 220.307 73.3111 220.136 73.3111C219.912 73.3111 219.752 73.2684 219.656 73.1831C219.635 73.2044 219.608 73.2364 219.576 73.2791C219.555 73.3218 219.544 73.3591 219.544 73.3911C219.544 73.4551 219.518 73.5778 219.464 73.7591C219.422 73.9297 219.368 74.0951 219.304 74.2551C219.24 74.415 219.182 74.495 219.128 74.495C219.128 74.495 219.118 74.511 219.096 74.543C219.075 74.575 219.086 74.6177 219.128 74.671C219.128 74.671 219.123 74.7297 219.112 74.847C219.112 74.975 219.086 75.0817 219.032 75.167C219.032 75.2523 219.016 75.3803 218.984 75.551C218.952 75.7216 218.915 75.8496 218.872 75.935C218.872 76.063 218.851 76.1856 218.808 76.303C218.776 76.4309 218.739 76.4949 218.696 76.4949C218.654 76.5056 218.627 76.5696 218.616 76.6869C218.606 76.8149 218.6 76.9056 218.6 76.9589C218.59 77.2256 218.536 77.4336 218.44 77.5829C218.344 77.7322 218.232 77.8069 218.104 77.8069ZM220.04 72.4631C220.126 72.4631 220.302 72.4258 220.568 72.3511C220.835 72.2765 221.107 72.1858 221.384 72.0792C221.672 71.9618 221.886 71.8445 222.024 71.7272C222.302 71.4819 222.515 71.2045 222.664 70.8952C222.824 70.5752 222.814 70.2712 222.632 69.9833C222.547 69.8339 222.392 69.7753 222.168 69.8073C221.944 69.8286 221.699 69.9139 221.432 70.0633C221.166 70.2126 220.915 70.3992 220.68 70.6232C220.552 70.7619 220.435 70.9325 220.328 71.1352C220.222 71.3379 220.131 71.5405 220.056 71.7432C219.992 71.9458 219.955 72.1165 219.944 72.2551C219.934 72.3938 219.966 72.4631 220.04 72.4631ZM226.311 74.2711C225.842 74.2711 225.458 74.0951 225.159 73.7431C224.86 73.3804 224.716 72.9324 224.727 72.3991C224.748 72.0152 224.823 71.6045 224.951 71.1672C225.09 70.7192 225.271 70.2926 225.495 69.8873C225.719 69.4713 225.964 69.1086 226.231 68.7993C226.498 68.49 226.775 68.2713 227.063 68.1433C227.17 68.09 227.282 68.0473 227.399 68.0153C227.527 67.9834 227.655 67.9674 227.783 67.9674C227.9 67.9674 228.023 67.9887 228.151 68.0313C228.279 68.0633 228.386 68.1007 228.471 68.1433C228.652 68.218 228.791 68.3087 228.887 68.4153C228.983 68.522 229.068 68.6873 229.143 68.9113C229.175 69.114 229.191 69.258 229.191 69.3433C229.191 69.4286 229.164 69.5566 229.111 69.7273C228.983 70.1112 228.818 70.4419 228.615 70.7192C228.412 70.9965 228.14 71.2312 227.799 71.4232C227.714 71.4765 227.612 71.5192 227.495 71.5512C227.388 71.5725 227.276 71.5832 227.159 71.5832C226.946 71.5832 226.738 71.5458 226.535 71.4712C226.343 71.3859 226.188 71.2632 226.071 71.1032L225.959 70.9752L225.911 71.1032C225.804 71.3912 225.719 71.6578 225.655 71.9032C225.602 72.1485 225.575 72.3725 225.575 72.5751C225.575 72.7031 225.586 72.8258 225.607 72.9431C225.639 73.0604 225.682 73.1618 225.735 73.2471C225.778 73.3111 225.847 73.3591 225.943 73.3911C226.05 73.4124 226.162 73.4231 226.279 73.4231C226.354 73.4231 226.428 73.4231 226.503 73.4231C226.588 73.4124 226.668 73.3911 226.743 73.3591C226.924 73.2951 227.068 73.2258 227.175 73.1511C227.292 73.0764 227.41 72.9964 227.527 72.9111L227.591 72.8791H227.575C227.703 72.8151 227.815 72.7511 227.911 72.6871C228.018 72.6231 228.071 72.5911 228.071 72.5911C228.114 72.5911 228.156 72.5645 228.199 72.5111C228.284 72.4685 228.391 72.4845 228.519 72.5591C228.658 72.6338 228.727 72.7298 228.727 72.8471C228.716 72.9004 228.668 72.9858 228.583 73.1031C228.498 73.2098 228.402 73.3111 228.295 73.4071C228.199 73.5031 228.119 73.5564 228.055 73.5671C228.044 73.5778 228.007 73.5991 227.943 73.6311C227.879 73.6524 227.836 73.6737 227.815 73.6951H227.831C227.735 73.8231 227.639 73.8871 227.543 73.8871H227.415C227.372 73.9617 227.234 74.0471 226.999 74.1431C226.764 74.2284 226.535 74.2711 226.311 74.2711ZM227.031 70.7512C227.223 70.7512 227.388 70.6979 227.527 70.5912C227.676 70.4739 227.804 70.3459 227.911 70.2072C228.124 69.9193 228.247 69.6419 228.279 69.3753C228.322 69.098 228.29 68.906 228.183 68.7993C228.119 68.7673 228.06 68.7513 228.007 68.7513C227.964 68.7406 227.874 68.7566 227.735 68.7993C227.639 68.8206 227.506 68.9006 227.335 69.0393C227.164 69.178 226.994 69.3326 226.823 69.5033C226.663 69.6739 226.54 69.8179 226.455 69.9353L226.247 70.2712C226.332 70.2392 226.412 70.2232 226.487 70.2232C226.572 70.2126 226.62 70.2179 226.631 70.2392C226.631 70.3352 226.647 70.4259 226.679 70.5112C226.722 70.5859 226.77 70.6446 226.823 70.6872C226.887 70.7299 226.956 70.7512 227.031 70.7512ZM231.498 74.0791C231.231 74.1004 230.975 74.0844 230.73 74.0311C230.495 73.9777 230.293 73.8871 230.122 73.7591C229.962 73.6204 229.85 73.4551 229.786 73.2631C229.711 73.1138 229.674 73.0124 229.674 72.9591C229.674 72.8951 229.711 72.8418 229.786 72.7991C229.871 72.7991 229.946 72.8258 230.01 72.8791C230.085 72.9218 230.181 72.9698 230.298 73.0231C230.458 73.1618 230.65 73.2364 230.874 73.2471C231.109 73.2578 231.322 73.2204 231.514 73.1351C231.706 73.0498 231.812 72.9431 231.834 72.8151C231.834 72.7725 231.818 72.6978 231.786 72.5911C231.754 72.4845 231.716 72.3725 231.674 72.2551C231.386 71.8498 231.173 71.4499 231.034 71.0552C230.906 70.6499 230.842 70.3192 230.842 70.0633C230.842 69.8713 230.901 69.6686 231.018 69.4553C231.135 69.2313 231.295 69.0446 231.498 68.8953C231.69 68.6927 231.903 68.5113 232.138 68.3513C232.372 68.1913 232.607 68.0527 232.842 67.9354C233.087 67.818 233.306 67.7327 233.498 67.6794C233.615 67.6794 233.77 67.6954 233.962 67.7274C234.154 67.7594 234.287 67.7967 234.362 67.8394C234.479 67.882 234.591 67.9993 234.698 68.1913C234.804 68.3727 234.858 68.554 234.858 68.7353C234.858 68.81 234.836 68.906 234.794 69.0233C234.751 69.1406 234.682 69.2793 234.586 69.4393C234.543 69.5566 234.495 69.6686 234.442 69.7753C234.388 69.8713 234.362 69.9406 234.362 69.9833C234.308 70.1006 234.234 70.1592 234.138 70.1592C234.052 70.1486 233.962 70.1006 233.866 70.0153C233.78 69.9193 233.711 69.8073 233.658 69.6793C233.615 69.5193 233.599 69.3913 233.61 69.2953C233.62 69.1886 233.663 69.0766 233.738 68.9593C233.855 68.842 233.914 68.762 233.914 68.7193C233.914 68.6767 233.855 68.6553 233.738 68.6553C233.663 68.6553 233.524 68.7033 233.322 68.7993C233.13 68.8846 232.922 69.002 232.698 69.1513C232.484 69.29 232.298 69.4393 232.138 69.5993C231.935 69.7913 231.812 69.9299 231.77 70.0153C231.738 70.1006 231.722 70.2339 231.722 70.4152C231.722 70.5646 231.754 70.7512 231.818 70.9752C231.892 71.1992 231.967 71.3485 232.042 71.4232C232.042 71.4232 232.079 71.4978 232.154 71.6472C232.228 71.7858 232.319 71.9352 232.426 72.0952C232.735 72.7778 232.815 73.2684 232.666 73.5671C232.516 73.8657 232.127 74.0364 231.498 74.0791Z" fill="#646464"/>
<mask id="path-5-inside-2_10_823" fill="white">
<path d="M239.004 67.3338H256.781V70.8892H239.004V67.3338Z"/>
</mask>
<path d="M239.004 68.2227H256.781V66.445H239.004V68.2227ZM256.781 70.0004H239.004V71.7781H256.781V70.0004Z" fill="#C4C4C4" mask="url(#path-5-inside-2_10_823)"/>
</svg>
